<svg xmlns="http://www.w3.org/2000/svg" width="70.156" height="75.52" viewBox="0 0 70.156 75.52">
  <g id="archivo" transform="translate(-18.181)">
    <g id="Grupo_205150" data-name="Grupo 205150" transform="translate(25.247 1.106)">
      <path id="Trazado_222112" data-name="Trazado 222112" d="M116.75,12.268H66.091V8.99a1.49,1.49,0,0,1,1.49-1.49H115.26a1.49,1.49,0,0,1,1.49,1.49v3.278Z" transform="translate(-66.091 -7.5)" fill="#f3f9ff"/>
    </g>
    <g id="Grupo_205151" data-name="Grupo 205151" transform="translate(23.757 5.874)">
      <path id="Trazado_222113" data-name="Trazado 222113" d="M109.628,44.593H55.989V41.315a1.49,1.49,0,0,1,1.49-1.49h50.659a1.49,1.49,0,0,1,1.49,1.49Z" transform="translate(-55.989 -39.825)" fill="#f3f9ff"/>
    </g>
    <g id="Grupo_205152" data-name="Grupo 205152" transform="translate(19.287 55.044)">
      <path id="Trazado_222114" data-name="Trazado 222114" d="M88.263,392.549H25.849l-.165-19.37H88.263Z" transform="translate(-25.684 -373.179)" fill="#feca2e"/>
    </g>
    <g id="Grupo_205153" data-name="Grupo 205153" transform="translate(34.426 55.044)">
      <path id="Trazado_222115" data-name="Trazado 222115" d="M175.757,382.97l-9.025-9.025q.171-.381.325-.767H128.316a20.871,20.871,0,0,0,27.879,11.3l8.069,8.069h11.493V382.97Z" transform="translate(-128.316 -373.179)" fill="#d9b445"/>
    </g>
    <g id="Grupo_205154" data-name="Grupo 205154" transform="translate(22.267 10.642)">
      <path id="Trazado_222116" data-name="Trazado 222116" d="M102.506,116.552H45.887V73.64a1.49,1.49,0,0,1,1.49-1.49h53.639a1.49,1.49,0,0,1,1.49,1.49v42.912Z" transform="translate(-45.887 -72.15)" fill="#f3f9ff"/>
    </g>
    <g id="Grupo_205155" data-name="Grupo 205155" transform="translate(27.035 15.41)">
      <path id="Trazado_222117" data-name="Trazado 222117" d="M0,0H18.476V14.9H0Z" transform="translate(14.9 0) rotate(90)" fill="#4dd0e1"/>
    </g>
    <g id="Grupo_205156" data-name="Grupo 205156" transform="translate(73.47 10.642)">
      <path id="Trazado_222118" data-name="Trazado 222118" d="M396.95,72.15h-3.927a1.49,1.49,0,0,1,1.49,1.49v42.912h3.927V73.64a1.49,1.49,0,0,0-1.49-1.49Z" transform="translate(-393.023 -72.15)" fill="#d9ecff"/>
    </g>
    <g id="Grupo_205165" data-name="Grupo 205165" transform="translate(35.912 29.416)">
      <g id="Grupo_205157" data-name="Grupo 205157" transform="translate(26.929 26.94)">
        <path id="Trazado_222119" data-name="Trazado 222119" d="M0,0H8.94V5.364H0Z" transform="translate(0 6.321) rotate(-45)" fill="#4dd0e1"/>
      </g>
      <g id="Grupo_205158" data-name="Grupo 205158" transform="translate(31.985 31.997)">
        <path id="Trazado_222120" data-name="Trazado 222120" d="M0,0H5.364V5.364H0Z" transform="translate(0 3.792) rotate(-45)" fill="#bddcf6"/>
      </g>
      <g id="Grupo_205159" data-name="Grupo 205159" transform="translate(34.526 34.526)">
        <path id="Trazado_222121" data-name="Trazado 222121" d="M389.264,443.982H376.621l-4.149-4.149,6.321-6.322Z" transform="translate(-372.472 -433.511)" fill="#4dd0e1"/>
      </g>
      <g id="Grupo_205160" data-name="Grupo 205160" transform="translate(38.741 34.526)">
        <path id="Trazado_222122" data-name="Trazado 222122" d="M403.151,433.511l-2.107,2.107,8.364,8.364h4.214Z" transform="translate(-401.044 -433.511)" fill="#3a9ca8"/>
      </g>
      <g id="Grupo_205161" data-name="Grupo 205161">
        <circle id="Elipse_5119" data-name="Elipse 5119" cx="17.88" cy="17.88" r="17.88" fill="#f6f6f6"/>
      </g>
      <g id="Grupo_205162" data-name="Grupo 205162" transform="translate(3.64 3.64)">
        <path id="Trazado_222123" data-name="Trazado 222123" d="M188.124,224.113a17.88,17.88,0,0,1-25.052,25.052,17.88,17.88,0,1,0,25.052-25.052Z" transform="translate(-163.072 -224.113)" fill="#e8e8e8"/>
      </g>
      <g id="Grupo_205163" data-name="Grupo 205163" transform="translate(4.768 4.768)">
        <circle id="Elipse_5120" data-name="Elipse 5120" cx="13.112" cy="13.112" r="13.112" fill="#bddcf6"/>
      </g>
      <g id="Grupo_205164" data-name="Grupo 205164" transform="translate(7.429 7.429)">
        <path id="Trazado_222124" data-name="Trazado 222124" d="M207.129,249.8a13.112,13.112,0,0,1-18.369,18.369A13.112,13.112,0,1,0,207.129,249.8Z" transform="translate(-188.76 -249.798)" fill="#bddcf6"/>
      </g>
    </g>
    <g id="Grupo_205166" data-name="Grupo 205166" transform="translate(18.181 0)">
      <path id="Trazado_222125" data-name="Trazado 222125" d="M39.5,41.323A1.106,1.106,0,0,0,40.6,40.217V12.132a.384.384,0,0,1,.383-.383h53.64a.384.384,0,0,1,.383.383V25.467a1.106,1.106,0,1,0,2.212,0V12.132a2.6,2.6,0,0,0-1.49-2.345V7.364a2.6,2.6,0,0,0-1.49-2.345V2.6a2.6,2.6,0,0,0-2.6-2.6H43.966a2.6,2.6,0,0,0-2.6,2.6V5.019a2.6,2.6,0,0,0-1.49,2.345V9.787a2.6,2.6,0,0,0-1.489,2.345V40.217A1.106,1.106,0,0,0,39.5,41.323Zm2.6-33.959a.384.384,0,0,1,.384-.384H93.135a.384.384,0,0,1,.384.384V9.536H42.092ZM43.582,2.6a.384.384,0,0,1,.384-.384H91.645a.384.384,0,0,1,.384.384V4.768H43.582Z" transform="translate(-35.409 0)"/>
      <path id="Trazado_222126" data-name="Trazado 222126" d="M187.492,228.423a14.218,14.218,0,1,0,4.164,10.054A14.125,14.125,0,0,0,187.492,228.423Zm-1.565,18.543a12.006,12.006,0,1,1,3.516-8.489A11.927,11.927,0,0,1,185.927,246.966Z" transform="translate(-141.827 -191.181)"/>
      <path id="Trazado_222127" data-name="Trazado 222127" d="M88.013,156.3l-5.04-5.04V137.716a1.106,1.106,0,0,0-1.106-1.106H79.993V113.3a1.106,1.106,0,1,0-2.212,0V136.61h-6.2a18.985,18.985,0,0,0-28.535-22.292V98.082a1.106,1.106,0,0,0-1.106-1.106h-14.9a1.106,1.106,0,0,0-1.106,1.106v18.476a1.106,1.106,0,0,0,1.106,1.106h12.3a19.025,19.025,0,0,0-3.325,18.945H23.374v-8.558a1.106,1.106,0,1,0-2.212,0v8.558H19.287a1.106,1.106,0,0,0-1.106,1.116l.165,19.37a1.106,1.106,0,0,0,1.106,1.1h6.573a1.106,1.106,0,0,0,0-2.212H20.549L20.4,138.822H37a19.016,19.016,0,0,0,25.688,7.923l3.18,3.18a1.106,1.106,0,0,0,1.564,0l.482-.482,2.228,2.228-.482.482a1.106,1.106,0,0,0,0,1.564l2.261,2.261H31.187a1.106,1.106,0,0,0,0,2.213h43.4a1.106,1.106,0,0,0,.78-1.888L72,152.936l4.757-4.757,9.689,9.689a1.106,1.106,0,1,0,1.564-1.565ZM28.142,99.188H40.829v16.263H28.142Zm13.789,42.64a16.774,16.774,0,1,1,23.721,0A16.793,16.793,0,0,1,41.931,141.829Zm22.7,3.732a19.109,19.109,0,0,0,4.757-4.757l2.018,2.018-4.757,4.757Zm4.847,2.318,2.228-2.228,2.228,2.228L71.7,150.107Zm6.5-2.047-.482.482-2.228-2.228.482-.482a1.106,1.106,0,0,0,0-1.564l-3.18-3.18.02-.037H80.76v10.229l-3.218-3.218a1.106,1.106,0,0,0-1.565,0Z" transform="translate(-18.181 -82.672)"/>
      <path id="Trazado_222128" data-name="Trazado 222128" d="M234.3,96.976H207.18a1.106,1.106,0,1,0,0,2.212H234.3a1.106,1.106,0,1,0,0-2.212Z" transform="translate(-178.36 -82.672)"/>
      <path id="Trazado_222129" data-name="Trazado 222129" d="M235.4,130.407A1.106,1.106,0,0,0,234.3,129.3H207.18a1.106,1.106,0,1,0,0,2.212H234.3A1.106,1.106,0,0,0,235.4,130.407Z" transform="translate(-178.36 -110.229)"/>
      <path id="Trazado_222130" data-name="Trazado 222130" d="M207.181,161.626a1.106,1.106,0,0,0,0,2.212h18.178a1.106,1.106,0,1,0,0-2.212Z" transform="translate(-178.361 -137.786)"/>
    </g>
  </g>
</svg>
