<svg id="analitica" xmlns="http://www.w3.org/2000/svg" width="75.52" height="75.52" viewBox="0 0 75.52 75.52">
  <path id="Trazado_222039" data-name="Trazado 222039" d="M20.62,72.2H15.9A5.9,5.9,0,0,1,10,66.3V15.9A5.9,5.9,0,0,1,15.9,10H76.67a5.9,5.9,0,0,1,5.9,5.9V66.3a5.9,5.9,0,0,1-5.9,5.9H20.62Z" transform="translate(-8.525 -8.525)" fill="#fff"/>
  <path id="Trazado_222040" data-name="Trazado 222040" d="M76.67,10H15.9A5.9,5.9,0,0,0,10,15.9v4.72H82.57V15.9A5.9,5.9,0,0,0,76.67,10Z" transform="translate(-8.525 -8.525)" fill="#feca2e"/>
  <path id="Trazado_222041" data-name="Trazado 222041" d="M21,82H91.065" transform="translate(-17.906 -69.905)" fill="#231f20"/>
  <rect id="Rectángulo_294001" data-name="Rectángulo 294001" width="10" height="16" transform="translate(8 57.52)" fill="#4dd0e1"/>
  <rect id="Rectángulo_294002" data-name="Rectángulo 294002" width="10" height="20" transform="translate(41 53.52)" fill="#bddcf6"/>
  <rect id="Rectángulo_294003" data-name="Rectángulo 294003" width="9.44" height="32.534" transform="translate(24.78 41.511)" fill="#feca2e"/>
  <rect id="Rectángulo_294004" data-name="Rectángulo 294004" width="9.44" height="34.736" transform="translate(57.82 39.309)" fill="#4dd0e1"/>
  <circle id="Elipse_5107" data-name="Elipse 5107" cx="3.835" cy="3.835" r="3.835" transform="translate(24.834 21.526)" fill="#feca2e"/>
  <circle id="Elipse_5108" data-name="Elipse 5108" cx="3.835" cy="3.835" r="3.835" transform="translate(42.048 39.087)" fill="#bddcf6"/>
  <circle id="Elipse_5109" data-name="Elipse 5109" cx="3.835" cy="3.835" r="3.835" transform="translate(58.705 21.526)" fill="#4dd0e1"/>
  <circle id="Elipse_5110" data-name="Elipse 5110" cx="3.835" cy="3.835" r="3.835" transform="translate(9.048 37.676)" fill="#4dd0e1"/>
  <path id="Trazado_222042" data-name="Trazado 222042" d="M70.369,64.974a5.156,5.156,0,0,0,5.15-5.15V7.375A7.383,7.383,0,0,0,68.145,0H7.375A7.383,7.383,0,0,0,0,7.375V59.823a5.156,5.156,0,0,0,5.15,5.15H6.785v7.6H1.475a1.475,1.475,0,0,0,0,2.95h72.57a1.475,1.475,0,0,0,0-2.95h-5.31v-7.6ZM7.375,2.95h60.77A4.43,4.43,0,0,1,72.57,7.375V10.62H3.1c-.05,0-.1,0-.148.008V7.375A4.43,4.43,0,0,1,7.375,2.95Zm2.36,69.62V59.295h6.49V72.57Zm16.52,0V42.986h6.49V72.57Zm16.52,0V55.46h6.49V72.57Zm16.52,0V56.677a1.475,1.475,0,0,0-2.95,0V72.57h-4.13V53.985A1.475,1.475,0,0,0,50.74,52.51H41.3a1.475,1.475,0,0,0-1.475,1.475V72.57h-4.13V41.511a1.475,1.475,0,0,0-1.475-1.475H24.78A1.475,1.475,0,0,0,23.3,41.511V72.57h-4.13V57.82A1.475,1.475,0,0,0,17.7,56.345H8.26A1.475,1.475,0,0,0,6.785,57.82v4.2H5.15a2.2,2.2,0,0,1-2.2-2.2V13.562c.049,0,.1.008.148.008H72.57V59.823a2.2,2.2,0,0,1-2.2,2.2H68.735V39.309a1.475,1.475,0,0,0-1.475-1.475H57.82a1.475,1.475,0,0,0-1.475,1.475v7.449a1.475,1.475,0,0,0,2.95,0V40.783h6.49V72.57Z"/>
  <path id="Trazado_222043" data-name="Trazado 222043" d="M213.54,38.95h33.325a1.475,1.475,0,1,0,0-2.95H213.54a1.475,1.475,0,0,0,0,2.95Z" transform="translate(-180.786 -30.69)"/>
  <path id="Trazado_222044" data-name="Trazado 222044" d="M95.475,38.95a1.476,1.476,0,1,0-1.043-.432A1.486,1.486,0,0,0,95.475,38.95Z" transform="translate(-80.135 -30.69)"/>
  <path id="Trazado_222045" data-name="Trazado 222045" d="M55.475,38.95a1.476,1.476,0,1,0-1.043-.432A1.486,1.486,0,0,0,55.475,38.95Z" transform="translate(-46.035 -30.69)"/>
  <path id="Trazado_222046" data-name="Trazado 222046" d="M135.475,38.95a1.476,1.476,0,1,0-1.043-.432A1.486,1.486,0,0,0,135.475,38.95Z" transform="translate(-114.235 -30.69)"/>
  <path id="Trazado_222047" data-name="Trazado 222047" d="M383.475,342.64a1.475,1.475,0,1,0,1.043.432A1.48,1.48,0,0,0,383.475,342.64Z" transform="translate(-325.655 -292.101)"/>
  <path id="Trazado_222048" data-name="Trazado 222048" d="M106.3,146.559a5.318,5.318,0,1,0-4.3-2.2l-9.8,9.8a5.3,5.3,0,0,0-4.9-.119l-10.23-10.23a5.31,5.31,0,1,0-9.163.228l-8.71,8.71a5.314,5.314,0,1,0,2.086,2.086l8.814-8.814A5.3,5.3,0,0,0,75,145.9l10.13,10.13a5.31,5.31,0,1,0,9.169.219l10.06-10.06A5.275,5.275,0,0,0,106.3,146.559Zm0-7.67a2.36,2.36,0,1,1-2.36,2.36A2.363,2.363,0,0,1,106.3,138.889Zm-49.657,20.87a2.36,2.36,0,1,1,2.36-2.36A2.363,2.363,0,0,1,56.646,159.759Zm15.788-16.15a2.36,2.36,0,1,1,2.36-2.36A2.363,2.363,0,0,1,72.434,143.609ZM89.647,161.17a2.36,2.36,0,1,1,2.36-2.36A2.363,2.363,0,0,1,89.647,161.17Z" transform="translate(-43.764 -115.888)"/>
  <path id="Trazado_222049" data-name="Trazado 222049" d="M132.735,128.97a1.473,1.473,0,1,0-1.044-.432A1.488,1.488,0,0,0,132.735,128.97Z" transform="translate(-111.899 -107.432)"/>
  <path id="Trazado_222050" data-name="Trazado 222050" d="M47.475,128.971h7.08a1.475,1.475,0,0,0,0-2.95h-7.08a1.475,1.475,0,1,0,0,2.95Z" transform="translate(-39.215 -107.433)"/>
  <path id="Trazado_222051" data-name="Trazado 222051" d="M54.555,176.971a1.475,1.475,0,1,0,0-2.95h-7.08a1.475,1.475,0,0,0,0,2.95Z" transform="translate(-39.215 -148.353)"/>
</svg>
