<svg xmlns="http://www.w3.org/2000/svg" width="1240.273" height="676" viewBox="0 0 1240.273 676">
  <line id="Línea_188" data-name="Línea 188" x2="19" transform="translate(280.333 394.429)" fill="none" stroke="#707070" stroke-width="2"/>
  <line id="Línea_189" data-name="Línea 189" x2="16" transform="translate(399.333 394.429)" fill="none" stroke="#707070" stroke-width="2"/>
  <line id="Línea_192" data-name="Línea 192" x2="22" transform="translate(536.618 621.5)" fill="none" stroke="#707070" stroke-width="2"/>
  <line id="Línea_390" data-name="Línea 390" x2="26" transform="translate(655.618 394.429)" fill="none" stroke="#707070" stroke-width="2"/>
  <line id="Línea_192-2" data-name="Línea 192" x2="28" transform="translate(669.618 353)" fill="none" stroke="#707070" stroke-width="2"/>
  <line id="Línea_192-3" data-name="Línea 192" x2="28" transform="translate(669.618 434)" fill="none" stroke="#707070" stroke-width="2"/>
  <g id="Grupo_205170" data-name="Grupo 205170" transform="translate(-4478.382 -454)">
    <path id="Línea_192-4" data-name="Línea 192" d="M0,0H28" transform="translate(5403 569.857)" fill="none" stroke="#707070" stroke-width="2"/>
    <path id="Línea_192-5" data-name="Línea 192" d="M0,0H24" transform="translate(5147 1075)" fill="none" stroke="#707070" stroke-width="1.414"/>
    <g id="Grupo_109845" data-name="Grupo 109845">
      <line id="Línea_204-3" data-name="Línea 204-3" x2="11" transform="translate(5171.714 1031.429)" fill="none" stroke="#707070" stroke-linecap="round" stroke-width="2"/>
      <line id="Línea_206-3" data-name="Línea 206-3" x2="11" transform="translate(5171.714 1116.429)" fill="none" stroke="#707070" stroke-linecap="round" stroke-width="2"/>
      <line id="Línea_203-3" data-name="Línea 203-3" y2="84" transform="translate(5171.214 1031.929)" fill="none" stroke="#707070" stroke-linecap="round" stroke-width="2"/>
    </g>
    <path id="Línea_192-6" data-name="Línea 192" d="M0,0H28" transform="translate(5545 569.857)" fill="none" stroke="#707070" stroke-width="2"/>
    <path id="Línea_192-7" data-name="Línea 192" d="M5573,608h-28V529h28" fill="none" stroke="#707070" stroke-width="2"/>
    <path id="Línea_192-8" data-name="Línea 192" d="M0,0H38" transform="translate(5136 569.857)" fill="none" stroke="#707070" stroke-width="2"/>
    <path id="Línea_192-9" data-name="Línea 192" d="M5174,660h-28V479h28" fill="none" stroke="#707070" stroke-width="2"/>
    <path id="Trazado_222134" data-name="Trazado 222134" d="M0,0H18.179" transform="translate(5010.82 570.429)" fill="none" stroke="#707070" stroke-width="2"/>
    <path id="Línea_191" data-name="Línea 191" d="M0,0H20" transform="translate(4893.715 848.429)" fill="none" stroke="#707070" stroke-width="2"/>
    <path id="Línea_191-2" data-name="Línea 191" d="M4914,1080h-20.286V570.429h20" fill="none" stroke="#707070" stroke-width="2"/>
    <path id="Trazado_222133" data-name="Trazado 222133" d="M0,0H18.179" transform="translate(5010.82 848.429)" fill="none" stroke="#707070" stroke-width="2"/>
    <path id="Trazado_222140" data-name="Trazado 222140" d="M14.5,0h258A14.5,14.5,0,0,1,287,14.5h0A14.5,14.5,0,0,1,272.5,29H14.5A14.5,14.5,0,0,1,0,14.5H0A14.5,14.5,0,0,1,14.5,0Z" transform="translate(5177 1101)" fill="#4dd0e1"/>
    <path id="Trazado_222141" data-name="Trazado 222141" d="M14.5,0h258A14.5,14.5,0,0,1,287,14.5h0A14.5,14.5,0,0,1,272.5,29H14.5A14.5,14.5,0,0,1,0,14.5H0A14.5,14.5,0,0,1,14.5,0Z" transform="translate(5177 1020)" fill="#4dd0e1"/>
    <path id="Trazado_199552" data-name="Trazado 199552" d="M4996,595h-70a15,15,0,0,1-15-15V560a15,15,0,0,1,15-15h70a15,15,0,0,1,15,15v20A15,15,0,0,1,4996,595Z" fill="#0f2771"/>
    <g id="Rectángulo_41022" data-name="Rectángulo 41022" transform="translate(48.668)">
      <path id="Trazado_199553" data-name="Trazado 199553" d="M4460.814,810.429h218.13c17.177,0,31.1,16.341,31.1,36.5h0c0,20.158-13.924,36.5-31.1,36.5h-218.13c-17.176,0-31.1-16.342-31.1-36.5h0C4429.714,826.77,4443.639,810.429,4460.814,810.429Z" fill="none"/>
      <path id="Trazado_199554" data-name="Trazado 199554" d="M4460.989,811.929h217.782c16.444,0,29.775,15.67,29.775,35h0c0,19.33-13.331,35-29.775,35H4460.989c-16.444,0-29.775-15.67-29.775-35h0C4431.214,827.6,4444.544,811.929,4460.989,811.929Z" fill="none" stroke="#0f2771" stroke-width="3"/>
    </g>
    <path id="Trazado_222132" data-name="Trazado 222132" d="M-30.516-2.637h-4.623L-36.018,0h-2.8l4.764-12.8h2.443L-26.824,0h-2.8Zm-3.911-2.136h3.2l-1.608-4.79ZM-23.88-9.51l.079,1.1a3.32,3.32,0,0,1,2.733-1.274,2.759,2.759,0,0,1,2.25.888,4.142,4.142,0,0,1,.756,2.654V0H-20.6V-6.082a1.648,1.648,0,0,0-.352-1.173,1.574,1.574,0,0,0-1.169-.365,1.747,1.747,0,0,0-1.608.914V0h-2.54V-9.51ZM-10.626,0a2.821,2.821,0,0,1-.255-.853A3.073,3.073,0,0,1-13.28.176,3.376,3.376,0,0,1-15.6-.633a2.6,2.6,0,0,1-.918-2.039,2.687,2.687,0,0,1,1.121-2.32,5.529,5.529,0,0,1,3.239-.817h1.169v-.545a1.567,1.567,0,0,0-.338-1.055,1.331,1.331,0,0,0-1.068-.4A1.513,1.513,0,0,0-13.4-7.5a1.045,1.045,0,0,0-.365.844H-16.3a2.551,2.551,0,0,1,.51-1.529,3.37,3.37,0,0,1,1.441-1.1,5.253,5.253,0,0,1,2.092-.4A4.15,4.15,0,0,1-9.47-8.8,3.09,3.09,0,0,1-8.437-6.319V-2.2A4.546,4.546,0,0,0-8.06-.149V0Zm-2.1-1.767a2.188,2.188,0,0,0,1.037-.25,1.645,1.645,0,0,0,.7-.672V-4.324h-.949q-1.907,0-2.03,1.318l-.009.149a1.017,1.017,0,0,0,.334.782A1.3,1.3,0,0,0-12.727-1.767ZM-11.76-13.5h2.769l-2.435,2.725h-2.065ZM-3.806,0H-6.354V-13.5h2.549ZM.967,0H-1.582V-9.51H.967Zm-2.7-11.971a1.251,1.251,0,0,1,.382-.94A1.436,1.436,0,0,1-.308-13.28a1.44,1.44,0,0,1,1.037.369,1.244,1.244,0,0,1,.387.94,1.247,1.247,0,0,1-.391.949,1.443,1.443,0,0,1-1.033.369,1.443,1.443,0,0,1-1.033-.369A1.247,1.247,0,0,1-1.731-11.971Zm9.94,9.343a.818.818,0,0,0-.461-.734,5.241,5.241,0,0,0-1.481-.479Q2.874-4.553,2.874-6.724a2.613,2.613,0,0,1,1.05-2.114,4.237,4.237,0,0,1,2.747-.848,4.56,4.56,0,0,1,2.9.853,2.687,2.687,0,0,1,1.085,2.215H8.112a1.229,1.229,0,0,0-.352-.9,1.488,1.488,0,0,0-1.1-.356,1.52,1.52,0,0,0-.993.29.916.916,0,0,0-.352.738.783.783,0,0,0,.4.681,4.114,4.114,0,0,0,1.349.448,11.019,11.019,0,0,1,1.6.426,2.628,2.628,0,0,1,2.013,2.558,2.481,2.481,0,0,1-1.116,2.1,4.815,4.815,0,0,1-2.883.8A5.029,5.029,0,0,1,4.557-.25,3.561,3.561,0,0,1,3.1-1.419a2.716,2.716,0,0,1-.527-1.6H4.983a1.326,1.326,0,0,0,.5,1.037,1.987,1.987,0,0,0,1.248.36,1.839,1.839,0,0,0,1.1-.277A.861.861,0,0,0,8.209-2.628ZM14.994,0H12.445V-9.51h2.549ZM12.3-11.971a1.251,1.251,0,0,1,.382-.94,1.436,1.436,0,0,1,1.042-.369,1.44,1.44,0,0,1,1.037.369,1.244,1.244,0,0,1,.387.94,1.247,1.247,0,0,1-.391.949,1.443,1.443,0,0,1-1.033.369,1.443,1.443,0,0,1-1.033-.369A1.247,1.247,0,0,1,12.3-11.971Zm9.94,9.343a.818.818,0,0,0-.461-.734,5.241,5.241,0,0,0-1.481-.479Q16.9-4.553,16.9-6.724a2.613,2.613,0,0,1,1.05-2.114A4.237,4.237,0,0,1,20.7-9.686a4.56,4.56,0,0,1,2.9.853A2.687,2.687,0,0,1,24.68-6.618H22.14a1.229,1.229,0,0,0-.352-.9,1.488,1.488,0,0,0-1.1-.356,1.52,1.52,0,0,0-.993.29.916.916,0,0,0-.352.738.783.783,0,0,0,.4.681,4.114,4.114,0,0,0,1.349.448,11.019,11.019,0,0,1,1.6.426,2.628,2.628,0,0,1,2.013,2.558,2.481,2.481,0,0,1-1.116,2.1,4.815,4.815,0,0,1-2.883.8A5.029,5.029,0,0,1,18.584-.25,3.561,3.561,0,0,1,17.13-1.419a2.716,2.716,0,0,1-.527-1.6h2.408a1.326,1.326,0,0,0,.5,1.037,1.987,1.987,0,0,0,1.248.36,1.839,1.839,0,0,0,1.1-.277A.861.861,0,0,0,22.236-2.628Zm12.138-.967L36.132-9.51h2.725L35.033,1.477l-.211.5A2.9,2.9,0,0,1,32.01,3.841a4,4,0,0,1-1.125-.167V1.749l.387.009a2.09,2.09,0,0,0,1.077-.22,1.443,1.443,0,0,0,.558-.729l.3-.782L29.874-9.51h2.733ZM-87.776,16.933a5.7,5.7,0,0,1-1,3.52,3.2,3.2,0,0,1-2.694,1.323,2.963,2.963,0,0,1-2.329-1v4.482h-2.54V12.09h2.355l.088.932a2.985,2.985,0,0,1,2.408-1.107,3.22,3.22,0,0,1,2.733,1.3,5.858,5.858,0,0,1,.976,3.586Zm-2.54-.185a3.743,3.743,0,0,0-.47-2.048,1.532,1.532,0,0,0-1.367-.721,1.663,1.663,0,0,0-1.644.914v3.894a1.692,1.692,0,0,0,1.661.94Q-90.316,19.728-90.316,16.748Zm9.457-2.276a6.9,6.9,0,0,0-.914-.07,1.86,1.86,0,0,0-1.89.976V21.6H-86.2V12.09h2.4l.07,1.134a2.354,2.354,0,0,1,2.118-1.31,2.662,2.662,0,0,1,.791.114Zm.51,2.285a5.64,5.64,0,0,1,.545-2.522,3.989,3.989,0,0,1,1.569-1.714,4.577,4.577,0,0,1,2.377-.606,4.33,4.33,0,0,1,3.142,1.178,4.727,4.727,0,0,1,1.358,3.2l.018.65a4.97,4.97,0,0,1-1.222,3.511,4.247,4.247,0,0,1-3.278,1.323,4.268,4.268,0,0,1-3.283-1.318,5.058,5.058,0,0,1-1.226-3.586Zm2.54.18a3.555,3.555,0,0,0,.51,2.073,1.682,1.682,0,0,0,1.459.717,1.686,1.686,0,0,0,1.441-.709,3.89,3.89,0,0,0,.519-2.267,3.519,3.519,0,0,0-.519-2.06,1.686,1.686,0,0,0-1.459-.731,1.658,1.658,0,0,0-1.441.726A3.955,3.955,0,0,0-77.81,16.938Zm11.988,2.79a1.666,1.666,0,0,0,1.143-.387,1.355,1.355,0,0,0,.457-1.028h2.382a3.258,3.258,0,0,1-.527,1.771,3.48,3.48,0,0,1-1.419,1.248,4.442,4.442,0,0,1-1.991.444,4.129,4.129,0,0,1-3.217-1.3A5.13,5.13,0,0,1-70.172,16.9v-.167A5.071,5.071,0,0,1-69,13.224a4.08,4.08,0,0,1,3.208-1.31,4,4,0,0,1,2.861,1.015,3.594,3.594,0,0,1,1.094,2.7h-2.382a1.745,1.745,0,0,0-.457-1.206,1.524,1.524,0,0,0-1.16-.464,1.53,1.53,0,0,0-1.34.647,3.749,3.749,0,0,0-.453,2.1v.264a3.8,3.8,0,0,0,.448,2.113A1.549,1.549,0,0,0-65.821,19.728Zm9.809,2.048a4.668,4.668,0,0,1-3.406-1.283,4.561,4.561,0,0,1-1.314-3.419v-.246a5.745,5.745,0,0,1,.554-2.562,4.064,4.064,0,0,1,1.569-1.74,4.4,4.4,0,0,1,2.316-.611,3.947,3.947,0,0,1,3.072,1.23A5,5,0,0,1-52.1,16.634v1.037h-6.056a2.36,2.36,0,0,0,.743,1.494,2.245,2.245,0,0,0,1.569.563,2.742,2.742,0,0,0,2.294-1.063l1.248,1.4a3.813,3.813,0,0,1-1.547,1.261A5.075,5.075,0,0,1-56.013,21.776Zm-.29-7.813a1.587,1.587,0,0,0-1.226.512,2.651,2.651,0,0,0-.6,1.466H-54.6v-.2a1.891,1.891,0,0,0-.457-1.311A1.638,1.638,0,0,0-56.3,13.962Zm10.793,5.01a.818.818,0,0,0-.461-.734,5.241,5.241,0,0,0-1.481-.479q-3.393-.712-3.393-2.883a2.613,2.613,0,0,1,1.05-2.114,4.237,4.237,0,0,1,2.747-.848,4.56,4.56,0,0,1,2.9.853,2.687,2.687,0,0,1,1.085,2.215h-2.54a1.229,1.229,0,0,0-.352-.9,1.488,1.488,0,0,0-1.1-.356,1.52,1.52,0,0,0-.993.29.916.916,0,0,0-.352.738.783.783,0,0,0,.4.681,4.114,4.114,0,0,0,1.349.448,11.019,11.019,0,0,1,1.6.426,2.628,2.628,0,0,1,2.013,2.558,2.481,2.481,0,0,1-1.116,2.1,4.815,4.815,0,0,1-2.883.8,5.029,5.029,0,0,1-2.123-.426,3.561,3.561,0,0,1-1.455-1.169,2.716,2.716,0,0,1-.527-1.6h2.408a1.326,1.326,0,0,0,.5,1.037,1.987,1.987,0,0,0,1.248.36,1.839,1.839,0,0,0,1.1-.277A.861.861,0,0,0-45.51,18.972Zm9.615,2.628a2.821,2.821,0,0,1-.255-.853,3.073,3.073,0,0,1-2.4,1.028,3.376,3.376,0,0,1-2.316-.809,2.6,2.6,0,0,1-.918-2.039,2.687,2.687,0,0,1,1.121-2.32,5.529,5.529,0,0,1,3.239-.817h1.169v-.545a1.567,1.567,0,0,0-.338-1.055,1.331,1.331,0,0,0-1.068-.4,1.513,1.513,0,0,0-1.006.308,1.045,1.045,0,0,0-.365.844h-2.54a2.551,2.551,0,0,1,.51-1.529,3.37,3.37,0,0,1,1.441-1.1,5.253,5.253,0,0,1,2.092-.4,4.15,4.15,0,0,1,2.791.883,3.09,3.09,0,0,1,1.033,2.483V19.4a4.546,4.546,0,0,0,.378,2.048V21.6ZM-38,19.833a2.188,2.188,0,0,0,1.037-.25,1.645,1.645,0,0,0,.7-.672V17.276H-37.2q-1.907,0-2.03,1.318l-.009.149a1.017,1.017,0,0,0,.334.782A1.3,1.3,0,0,0-38,19.833Zm8.622-7.743.079,1.063a3.342,3.342,0,0,1,2.733-1.239,2.536,2.536,0,0,1,2.522,1.45,3.265,3.265,0,0,1,2.856-1.45,2.836,2.836,0,0,1,2.3.9,4.141,4.141,0,0,1,.756,2.711V21.6h-2.549V15.536a1.811,1.811,0,0,0-.316-1.182A1.4,1.4,0,0,0-22.1,13.98a1.585,1.585,0,0,0-1.582,1.09l.009,6.53h-2.54V15.544a1.789,1.789,0,0,0-.325-1.2,1.416,1.416,0,0,0-1.107-.369,1.646,1.646,0,0,0-1.564.9V21.6h-2.54V12.09Zm15.882,9.51H-16.04V12.09h2.549Zm-2.7-11.971a1.251,1.251,0,0,1,.382-.94,1.436,1.436,0,0,1,1.042-.369,1.44,1.44,0,0,1,1.037.369,1.244,1.244,0,0,1,.387.94,1.247,1.247,0,0,1-.391.949,1.443,1.443,0,0,1-1.033.369,1.443,1.443,0,0,1-1.033-.369A1.247,1.247,0,0,1-16.189,9.629Zm9.167,12.146a4.668,4.668,0,0,1-3.406-1.283,4.561,4.561,0,0,1-1.314-3.419v-.246a5.745,5.745,0,0,1,.554-2.562,4.064,4.064,0,0,1,1.569-1.74A4.4,4.4,0,0,1-7.3,11.914a3.947,3.947,0,0,1,3.072,1.23,5,5,0,0,1,1.121,3.489v1.037H-9.167a2.36,2.36,0,0,0,.743,1.494,2.245,2.245,0,0,0,1.569.563,2.742,2.742,0,0,0,2.294-1.063l1.248,1.4A3.813,3.813,0,0,1-4.86,21.323,5.075,5.075,0,0,1-7.022,21.776Zm-.29-7.813a1.587,1.587,0,0,0-1.226.512,2.651,2.651,0,0,0-.6,1.466h3.533v-.2a1.891,1.891,0,0,0-.457-1.311A1.638,1.638,0,0,0-7.312,13.962ZM.668,12.09l.079,1.1A3.32,3.32,0,0,1,3.48,11.914a2.759,2.759,0,0,1,2.25.888,4.142,4.142,0,0,1,.756,2.654V21.6H3.946V15.518a1.648,1.648,0,0,0-.352-1.173,1.574,1.574,0,0,0-1.169-.365,1.747,1.747,0,0,0-1.608.914V21.6h-2.54V12.09ZM11.452,9.752V12.09h1.626v1.863H11.452V18.7a1.133,1.133,0,0,0,.2.756,1.015,1.015,0,0,0,.773.229,4.051,4.051,0,0,0,.747-.062v1.925a5.229,5.229,0,0,1-1.538.229,2.425,2.425,0,0,1-2.725-2.7V13.954H7.523V12.09H8.912V9.752Zm2.382,7a5.64,5.64,0,0,1,.545-2.522,3.989,3.989,0,0,1,1.569-1.714,4.577,4.577,0,0,1,2.377-.606,4.33,4.33,0,0,1,3.142,1.178,4.727,4.727,0,0,1,1.358,3.2l.018.65a4.97,4.97,0,0,1-1.222,3.511,4.247,4.247,0,0,1-3.278,1.323,4.268,4.268,0,0,1-3.283-1.318,5.058,5.058,0,0,1-1.226-3.586Zm2.54.18a3.555,3.555,0,0,0,.51,2.073,1.831,1.831,0,0,0,2.9.009,3.89,3.89,0,0,0,.519-2.267,3.519,3.519,0,0,0-.519-2.06,1.686,1.686,0,0,0-1.459-.731,1.658,1.658,0,0,0-1.441.726A3.955,3.955,0,0,0,16.374,16.938Zm12.12-.163a5.731,5.731,0,0,1,1-3.542,3.237,3.237,0,0,1,2.729-1.318,2.913,2.913,0,0,1,2.294,1.037V8.1h2.549V21.6H34.77l-.123-1.011A2.989,2.989,0,0,1,32.2,21.776a3.228,3.228,0,0,1-2.694-1.323A5.916,5.916,0,0,1,28.494,16.775Zm2.54.189a3.754,3.754,0,0,0,.466,2.051,1.517,1.517,0,0,0,1.354.713,1.7,1.7,0,0,0,1.661-.995V14.975a1.675,1.675,0,0,0-1.644-.995Q31.034,13.98,31.034,16.964Zm12.375,4.812A4.668,4.668,0,0,1,40,20.493a4.561,4.561,0,0,1-1.314-3.419v-.246a5.745,5.745,0,0,1,.554-2.562,4.064,4.064,0,0,1,1.569-1.74,4.4,4.4,0,0,1,2.316-.611,3.947,3.947,0,0,1,3.072,1.23,5,5,0,0,1,1.121,3.489v1.037H41.265a2.36,2.36,0,0,0,.743,1.494,2.245,2.245,0,0,0,1.569.563,2.742,2.742,0,0,0,2.294-1.063l1.248,1.4a3.813,3.813,0,0,1-1.547,1.261A5.075,5.075,0,0,1,43.409,21.776Zm-.29-7.813a1.587,1.587,0,0,0-1.226.512,2.651,2.651,0,0,0-.6,1.466h3.533v-.2a1.891,1.891,0,0,0-.457-1.311A1.638,1.638,0,0,0,43.119,13.962Zm9.729,2.813a5.731,5.731,0,0,1,1-3.542,3.237,3.237,0,0,1,2.729-1.318,2.913,2.913,0,0,1,2.294,1.037V8.1h2.549V21.6H59.124L59,20.589a2.989,2.989,0,0,1-2.443,1.187,3.228,3.228,0,0,1-2.694-1.323A5.916,5.916,0,0,1,52.849,16.775Zm2.54.189a3.754,3.754,0,0,0,.466,2.051,1.517,1.517,0,0,0,1.354.713,1.7,1.7,0,0,0,1.661-.995V14.975a1.675,1.675,0,0,0-1.644-.995Q55.389,13.98,55.389,16.964ZM68.9,21.6a2.821,2.821,0,0,1-.255-.853,3.073,3.073,0,0,1-2.4,1.028,3.376,3.376,0,0,1-2.316-.809,2.6,2.6,0,0,1-.918-2.039,2.687,2.687,0,0,1,1.121-2.32,5.529,5.529,0,0,1,3.239-.817h1.169v-.545a1.567,1.567,0,0,0-.338-1.055,1.331,1.331,0,0,0-1.068-.4,1.513,1.513,0,0,0-1.006.308,1.045,1.045,0,0,0-.365.844H63.22a2.551,2.551,0,0,1,.51-1.529,3.37,3.37,0,0,1,1.441-1.1,5.253,5.253,0,0,1,2.092-.4,4.15,4.15,0,0,1,2.791.883,3.09,3.09,0,0,1,1.033,2.483V19.4a4.546,4.546,0,0,0,.378,2.048V21.6Zm-2.1-1.767a2.188,2.188,0,0,0,1.037-.25,1.645,1.645,0,0,0,.7-.672V17.276h-.949q-1.907,0-2.03,1.318l-.009.149a1.017,1.017,0,0,0,.334.782A1.3,1.3,0,0,0,66.8,19.833ZM76.078,9.752V12.09H77.7v1.863H76.078V18.7a1.133,1.133,0,0,0,.2.756,1.015,1.015,0,0,0,.773.229,4.051,4.051,0,0,0,.747-.062v1.925a5.229,5.229,0,0,1-1.538.229,2.425,2.425,0,0,1-2.725-2.7V13.954H72.149V12.09h1.389V9.752Zm2.382,7A5.64,5.64,0,0,1,79,14.235a3.989,3.989,0,0,1,1.569-1.714,4.577,4.577,0,0,1,2.377-.606,4.33,4.33,0,0,1,3.142,1.178,4.727,4.727,0,0,1,1.358,3.2l.018.65a4.97,4.97,0,0,1-1.222,3.511,4.735,4.735,0,0,1-6.561,0,5.058,5.058,0,0,1-1.226-3.586Zm2.54.18a3.555,3.555,0,0,0,.51,2.073,1.831,1.831,0,0,0,2.9.009,3.89,3.89,0,0,0,.519-2.267,3.519,3.519,0,0,0-.519-2.06,1.686,1.686,0,0,0-1.459-.731,1.658,1.658,0,0,0-1.441.726A3.955,3.955,0,0,0,81,16.938Zm13.184,2.035a.818.818,0,0,0-.461-.734,5.241,5.241,0,0,0-1.481-.479q-3.393-.712-3.393-2.883a2.613,2.613,0,0,1,1.05-2.114,4.237,4.237,0,0,1,2.747-.848,4.56,4.56,0,0,1,2.9.853,2.687,2.687,0,0,1,1.085,2.215h-2.54a1.229,1.229,0,0,0-.352-.9,1.488,1.488,0,0,0-1.1-.356,1.52,1.52,0,0,0-.993.29.916.916,0,0,0-.352.738.783.783,0,0,0,.4.681,4.114,4.114,0,0,0,1.349.448,11.019,11.019,0,0,1,1.6.426,2.628,2.628,0,0,1,2.013,2.558,2.481,2.481,0,0,1-1.116,2.1,4.815,4.815,0,0,1-2.883.8,5.029,5.029,0,0,1-2.123-.426,3.561,3.561,0,0,1-1.455-1.169,2.716,2.716,0,0,1-.527-1.6h2.408a1.326,1.326,0,0,0,.5,1.037,1.987,1.987,0,0,0,1.248.36,1.839,1.839,0,0,0,1.1-.277A.861.861,0,0,0,94.184,18.972Z" transform="translate(4618.549 841.929)" fill="#0f2771"/>
    <g id="Se_compone_de" data-name="Se compone de" style="isolation: isolate">
      <text id="Se_compone_de-2" data-name="Se compone de" transform="translate(4778.714 852.429)" fill="#0f2771" font-size="14" font-family="Roboto-Regular, Roboto" style="isolation: isolate"><tspan x="0" y="0">Se compone de</tspan></text>
    </g>
    <g id="Lógica" style="isolation: isolate">
      <text id="Análisis_de_datos" data-name="Análisis
de datos" transform="translate(4960.607 568.429)" fill="#fff" font-size="14" font-family="Roboto-Regular, Roboto" style="isolation: isolate"><tspan x="-24.551" y="0">Análisis</tspan><tspan x="-26.964" y="16.8">de datos</tspan></text>
    </g>
    <g id="Genera">
      <g id="Grupo_152716" data-name="Grupo 152716">
        <text id="Se_compone_de-3" data-name="Se compone de" transform="translate(5034.714 573.429)" fill="#0f2771" font-size="14" font-family="Roboto-Regular, Roboto" style="isolation: isolate"><tspan x="0" y="0">Se compone de</tspan></text>
      </g>
    </g>
    <g id="Genera-2" data-name="Genera">
      <g id="Grupo_152717" data-name="Grupo 152717">
        <text id="Se_compone_de-4" data-name="Se compone de" transform="translate(5034.714 852.429)" fill="#0f2771" font-size="14" font-family="Roboto-Regular, Roboto" style="isolation: isolate"><tspan x="0" y="0">Se compone de</tspan></text>
      </g>
    </g>
    <g id="Genera-3" data-name="Genera">
      <g id="Grupo_152718" data-name="Grupo 152718">
        <text id="Se_compone_de-5" data-name="Se compone de" transform="translate(5042.714 1080.429)" fill="#0f2771" font-size="14" font-family="Roboto-Regular, Roboto" style="isolation: isolate"><tspan x="0" y="0">Se compone de</tspan></text>
      </g>
    </g>
    <g id="Compilados" style="isolation: isolate">
      <text id="Proceso_de_transformación_de_datos" data-name="Proceso de transformación de datos" transform="translate(5206.271 1038.429)" fill="#12263f" font-size="14" font-family="Roboto-Regular, Roboto" style="isolation: isolate"><tspan x="0" y="0">Proceso de transformación de datos</tspan></text>
    </g>
    <g id="Interpretados" style="isolation: isolate">
      <text id="Métodos_de_discretización" data-name="Métodos de discretización" transform="translate(5237.686 1120.429)" fill="#12263f" font-size="14" font-family="Roboto-Regular, Roboto" style="isolation: isolate"><tspan x="0" y="0">Métodos de discretización</tspan></text>
    </g>
    <g id="Genera-4" data-name="Genera">
      <g id="Grupo_152719" data-name="Grupo 152719">
        <text id="se_compone_de-6" data-name="se compone de" transform="translate(5439.778 573.286)" fill="#0f2771" font-size="14" font-family="Roboto-Regular, Roboto" style="isolation: isolate"><tspan x="0" y="0">se compone de</tspan></text>
      </g>
    </g>
    <g id="Grupo_152720" data-name="Grupo 152720">
      <path id="Trazado_199555" data-name="Trazado 199555" d="M4996,873h-70a15,15,0,0,1-15-15V838a15,15,0,0,1,15-15h70a15,15,0,0,1,15,15v20A15,15,0,0,1,4996,873Z" fill="#0f2771"/>
      <g id="Lógica-2" data-name="Lógica" style="isolation: isolate">
        <text id="Modelos_estadísticos" data-name="Modelos
estadísticos" transform="translate(4960.607 844.429)" fill="#fff" font-size="14" font-family="Roboto-Regular, Roboto" style="isolation: isolate"><tspan x="-27.06" y="0">Modelos</tspan><tspan x="-37.95" y="16.8">estadísticos</tspan></text>
      </g>
    </g>
    <g id="Grupo_152721" data-name="Grupo 152721">
      <path id="Trazado_199556" data-name="Trazado 199556" d="M5006,1105h-90a15,15,0,0,1-15-15v-20a15,15,0,0,1,15-15h90a15,15,0,0,1,15,15v20A15,15,0,0,1,5006,1105Z" fill="#0f2771"/>
      <g id="Lógica-3" data-name="Lógica" style="isolation: isolate">
        <text id="Transformación_de_datos" data-name="Transformación
de datos" transform="translate(4960.607 1075.429)" fill="#fff" font-size="14" font-family="Roboto-Regular, Roboto" style="isolation: isolate"><tspan x="-49.383" y="0">Transformación</tspan><tspan x="-26.964" y="16.8">de datos</tspan></text>
      </g>
    </g>
    <path id="Trazado_222143" data-name="Trazado 222143" d="M14.5,0H144.44a14.5,14.5,0,0,1,14.5,14.5h0A14.5,14.5,0,0,1,144.44,29H14.5A14.5,14.5,0,0,1,0,14.5H0A14.5,14.5,0,0,1,14.5,0Z" transform="translate(5559.441 555)" fill="#4dd0e1"/>
    <g id="Lenguajes_de_Programación" data-name="Lenguajes de Programación" transform="translate(-9.227)" style="isolation: isolate">
      <text id="Tableau" transform="translate(5647.941 574.591)" fill="#12263f" font-size="14" font-family="Roboto-Regular, Roboto" style="isolation: isolate"><tspan x="-24.599" y="0">Tableau</tspan></text>
    </g>
    <path id="Trazado_222142" data-name="Trazado 222142" d="M14.5,0H144.44a14.5,14.5,0,0,1,14.5,14.5h0A14.5,14.5,0,0,1,144.44,29H14.5A14.5,14.5,0,0,1,0,14.5H0A14.5,14.5,0,0,1,14.5,0Z" transform="translate(5559.715 515)" fill="#4dd0e1"/>
    <g id="Lenguajes_de_Programación-2" data-name="Lenguajes de Programación" transform="translate(-9.227)" style="isolation: isolate">
      <text id="Power_bi" data-name="Power bi" transform="translate(5647.941 534.591)" fill="#12263f" font-size="14" font-family="Roboto-Regular, Roboto" style="isolation: isolate"><tspan x="-27.06" y="0">Power bi</tspan></text>
    </g>
    <path id="Trazado_222144" data-name="Trazado 222144" d="M14.5,0H144.44a14.5,14.5,0,0,1,14.5,14.5h0A14.5,14.5,0,0,1,144.44,29H14.5A14.5,14.5,0,0,1,0,14.5H0A14.5,14.5,0,0,1,14.5,0Z" transform="translate(5559.441 596)" fill="#4dd0e1"/>
    <g id="Lenguajes_de_Programación-3" data-name="Lenguajes de Programación" transform="translate(-9.227)" style="isolation: isolate">
      <text id="Google_Colab" data-name="Google Colab" transform="translate(5647.941 615.591)" fill="#12263f" font-size="14" font-family="Roboto-Regular, Roboto" style="isolation: isolate"><tspan x="-41.802" y="0">Google Colab</tspan></text>
    </g>
    <path id="Línea_192-10" data-name="Línea 192" d="M5176,929h-28V766h28" fill="none" stroke="#707070" stroke-width="2"/>
    <path id="Trazado_222135" data-name="Trazado 222135" d="M14.5,0h178A14.5,14.5,0,0,1,207,14.5h0A14.5,14.5,0,0,1,192.5,29H14.5A14.5,14.5,0,0,1,0,14.5H0A14.5,14.5,0,0,1,14.5,0Z" transform="translate(5160 832)" fill="#4dd0e1"/>
    <g id="Lenguajes_de_Programación-4" data-name="Lenguajes de Programación" style="isolation: isolate">
      <text id="Análisis_bivariado" data-name="Análisis bivariado" transform="translate(5263.5 851.591)" fill="#12263f" font-size="14" font-family="Roboto-Regular, Roboto" style="isolation: isolate"><tspan x="-54.872" y="0">Análisis bivariado</tspan></text>
    </g>
    <path id="Trazado_222138" data-name="Trazado 222138" d="M14.5,0h178A14.5,14.5,0,0,1,207,14.5h0A14.5,14.5,0,0,1,192.5,29H14.5A14.5,14.5,0,0,1,0,14.5H0A14.5,14.5,0,0,1,14.5,0Z" transform="translate(5160 792)" fill="#4dd0e1"/>
    <g id="Lenguajes_de_Programación-5" data-name="Lenguajes de Programación" style="isolation: isolate">
      <text id="Muestreo_estadístico" data-name="Muestreo estadístico" transform="translate(5263.5 811.591)" fill="#12263f" font-size="14" font-family="Roboto-Regular, Roboto" style="isolation: isolate"><tspan x="-65.652" y="0">Muestreo estadístico</tspan></text>
    </g>
    <path id="Trazado_222139" data-name="Trazado 222139" d="M14.5,0h178A14.5,14.5,0,0,1,207,14.5h0A14.5,14.5,0,0,1,192.5,29H14.5A14.5,14.5,0,0,1,0,14.5H0A14.5,14.5,0,0,1,14.5,0Z" transform="translate(5160 752)" fill="#4dd0e1"/>
    <g id="Lenguajes_de_Programación-6" data-name="Lenguajes de Programación" style="isolation: isolate">
      <text id="Tipos_de_variables" data-name="Tipos de variables" transform="translate(5263.5 771.591)" fill="#12263f" font-size="14" font-family="Roboto-Regular, Roboto" style="isolation: isolate"><tspan x="-56.492" y="0">Tipos de variables</tspan></text>
    </g>
    <path id="Trazado_222136" data-name="Trazado 222136" d="M14.5,0h178A14.5,14.5,0,0,1,207,14.5h0A14.5,14.5,0,0,1,192.5,29H14.5A14.5,14.5,0,0,1,0,14.5H0A14.5,14.5,0,0,1,14.5,0Z" transform="translate(5160 873)" fill="#4dd0e1"/>
    <g id="Lenguajes_de_Programación-7" data-name="Lenguajes de Programación" style="isolation: isolate">
      <text id="Regresiones" transform="translate(5263.5 892.591)" fill="#12263f" font-size="14" font-family="Roboto-Regular, Roboto" style="isolation: isolate"><tspan x="-38.438" y="0">Regresiones</tspan></text>
    </g>
    <path id="Trazado_222137" data-name="Trazado 222137" d="M14.5,0h178A14.5,14.5,0,0,1,207,14.5h0A14.5,14.5,0,0,1,192.5,29H14.5A14.5,14.5,0,0,1,0,14.5H0A14.5,14.5,0,0,1,14.5,0Z" transform="translate(5160 914)" fill="#4dd0e1"/>
    <g id="Lenguajes_de_Programación-8" data-name="Lenguajes de Programación" style="isolation: isolate">
      <text id="Corroboración_de_hipótesis" data-name="Corroboración de hipótesis" transform="translate(5263.5 933.591)" fill="#12263f" font-size="14" font-family="Roboto-Regular, Roboto" style="isolation: isolate"><tspan x="-83.894" y="0">Corroboración de hipótesis</tspan></text>
    </g>
    <g id="Grupo_152722" data-name="Grupo 152722">
      <path id="Trazado_199557" data-name="Trazado 199557" d="M5400,504H5180a15,15,0,0,1-15-15V469a15,15,0,0,1,15-15h220a15,15,0,0,1,15,15v20A15,15,0,0,1,5400,504Z" fill="#4dd0e1"/>
      <g id="Lenguajes_de_Programación-9" data-name="Lenguajes de Programación" style="isolation: isolate">
        <text id="Técnicas_de_análisis_exploratorio_de_datos_EDA_" data-name="Técnicas de análisis exploratorio
de datos (EDA)" transform="translate(5290 475)" fill="#12263f" font-size="14" font-family="Roboto-Regular, Roboto" style="isolation: isolate"><tspan x="-101.606" y="0">Técnicas de análisis exploratorio</tspan><tspan x="-46.587" y="16.8">de datos (EDA)</tspan></text>
      </g>
    </g>
    <path id="Trazado_199558" data-name="Trazado 199558" d="M5400,595H5180a15,15,0,0,1-15-15V560a15,15,0,0,1,15-15h220a15,15,0,0,1,15,15v20A15,15,0,0,1,5400,595Z" fill="#4dd0e1"/>
    <path id="Trazado_222145" data-name="Trazado 222145" d="M-74.443,0h-1.319V-4.6H-80.78V0h-1.312V-9.953h1.313v4.279h5.018V-9.953h1.319Zm5.2.137a3.232,3.232,0,0,1-2.447-.988,3.666,3.666,0,0,1-.943-2.642v-.232a4.438,4.438,0,0,1,.42-1.965,3.28,3.28,0,0,1,1.176-1.354A2.956,2.956,0,0,1-69.4-7.533a2.77,2.77,0,0,1,2.242.95,4.114,4.114,0,0,1,.8,2.721v.526h-5.011a2.629,2.629,0,0,0,.639,1.767A2.009,2.009,0,0,0-69.173-.9a2.2,2.2,0,0,0,1.135-.273,2.851,2.851,0,0,0,.813-.725l.772.6A3.106,3.106,0,0,1-69.241.137ZM-69.4-6.494a1.687,1.687,0,0,0-1.285.557,2.708,2.708,0,0,0-.643,1.562h3.705v-.1a2.409,2.409,0,0,0-.52-1.494A1.588,1.588,0,0,0-69.4-6.494Zm8.08.232a3.79,3.79,0,0,0-.622-.048,1.667,1.667,0,0,0-1.688,1.06V0h-1.265V-7.4h1.23l.021.854a1.969,1.969,0,0,1,1.764-.991,1.292,1.292,0,0,1,.561.1Zm4.737,0A3.79,3.79,0,0,0-57.2-6.31a1.667,1.667,0,0,0-1.688,1.06V0h-1.265V-7.4h1.23l.021.854a1.969,1.969,0,0,1,1.764-.991,1.292,1.292,0,0,1,.561.1ZM-51.126,0A2.657,2.657,0,0,1-51.3-.779a2.822,2.822,0,0,1-2.105.916A2.611,2.611,0,0,1-55.2-.482a2,2,0,0,1-.7-1.569,2.091,2.091,0,0,1,.878-1.794,4.142,4.142,0,0,1,2.471-.639h1.23v-.581a1.42,1.42,0,0,0-.4-1.056,1.593,1.593,0,0,0-1.169-.393,1.844,1.844,0,0,0-1.135.342,1.007,1.007,0,0,0-.458.827h-1.271a1.745,1.745,0,0,1,.393-1.07,2.683,2.683,0,0,1,1.066-.817,3.588,3.588,0,0,1,1.48-.3,2.924,2.924,0,0,1,2,.639,2.306,2.306,0,0,1,.752,1.76v3.4a4.162,4.162,0,0,0,.26,1.62V0Zm-2.1-.964A2.223,2.223,0,0,0-52.1-1.271a1.861,1.861,0,0,0,.772-.8V-3.589h-.991q-2.324,0-2.324,1.36a1.151,1.151,0,0,0,.4.93A1.524,1.524,0,0,0-53.225-.964ZM-46.888-7.4l.034.82a2.732,2.732,0,0,1,2.194-.957,2.115,2.115,0,0,1,2.112,1.189,2.8,2.8,0,0,1,.96-.861,2.837,2.837,0,0,1,1.4-.328q2.434,0,2.475,2.577V0h-1.265V-4.881a1.7,1.7,0,0,0-.362-1.186,1.6,1.6,0,0,0-1.217-.393,1.677,1.677,0,0,0-1.169.42,1.706,1.706,0,0,0-.54,1.131V0h-1.271V-4.847A1.411,1.411,0,0,0-45.117-6.46a1.692,1.692,0,0,0-1.7,1.06V0h-1.265V-7.4ZM-34.433,0H-35.7V-7.4h1.265ZM-35.8-9.358a.755.755,0,0,1,.188-.52.706.706,0,0,1,.557-.212.717.717,0,0,1,.561.212.747.747,0,0,1,.191.52.722.722,0,0,1-.191.513.73.73,0,0,1-.561.205.718.718,0,0,1-.557-.205A.73.73,0,0,1-35.8-9.358Zm6.46,9.5a3.232,3.232,0,0,1-2.447-.988,3.666,3.666,0,0,1-.943-2.642v-.232a4.438,4.438,0,0,1,.42-1.965,3.28,3.28,0,0,1,1.176-1.354A2.956,2.956,0,0,1-29.5-7.533a2.77,2.77,0,0,1,2.242.95,4.114,4.114,0,0,1,.8,2.721v.526h-5.011a2.629,2.629,0,0,0,.639,1.767A2.009,2.009,0,0,0-29.271-.9a2.2,2.2,0,0,0,1.135-.273,2.851,2.851,0,0,0,.813-.725l.772.6A3.106,3.106,0,0,1-29.34.137ZM-29.5-6.494a1.687,1.687,0,0,0-1.285.557,2.708,2.708,0,0,0-.643,1.562h3.705v-.1a2.409,2.409,0,0,0-.52-1.494A1.588,1.588,0,0,0-29.5-6.494Zm5.7-.9.041.93A2.7,2.7,0,0,1-21.54-7.533q2.345,0,2.365,2.646V0h-1.265V-4.895a1.7,1.7,0,0,0-.366-1.183,1.466,1.466,0,0,0-1.118-.383A1.825,1.825,0,0,0-23-6.132a2.228,2.228,0,0,0-.725.861V0h-1.265V-7.4Zm8.244-1.791V-7.4h1.381v.978h-1.381v4.593a1.027,1.027,0,0,0,.185.667.777.777,0,0,0,.629.222,3.062,3.062,0,0,0,.6-.082V0a3.688,3.688,0,0,1-.971.136,1.575,1.575,0,0,1-1.278-.513,2.2,2.2,0,0,1-.431-1.456V-6.419h-1.347V-7.4h1.347V-9.187ZM-8.128,0a2.657,2.657,0,0,1-.178-.779,2.822,2.822,0,0,1-2.105.916,2.611,2.611,0,0,1-1.794-.619,2,2,0,0,1-.7-1.569,2.091,2.091,0,0,1,.878-1.794,4.142,4.142,0,0,1,2.471-.639h1.23v-.581a1.42,1.42,0,0,0-.4-1.056,1.593,1.593,0,0,0-1.169-.393,1.844,1.844,0,0,0-1.135.342,1.007,1.007,0,0,0-.458.827h-1.271a1.745,1.745,0,0,1,.393-1.07A2.683,2.683,0,0,1-11.3-7.232a3.588,3.588,0,0,1,1.48-.3,2.924,2.924,0,0,1,2,.639,2.306,2.306,0,0,1,.752,1.76v3.4A4.162,4.162,0,0,0-6.8-.109V0Zm-2.1-.964A2.223,2.223,0,0,0-9.1-1.271a1.861,1.861,0,0,0,.772-.8V-3.589h-.991q-2.324,0-2.324,1.36a1.151,1.151,0,0,0,.4.93A1.524,1.524,0,0,0-10.227-.964Zm9.454-1a.931.931,0,0,0-.386-.8,3.718,3.718,0,0,0-1.347-.489A6.367,6.367,0,0,1-4.03-3.739a2.169,2.169,0,0,1-.834-.684,1.635,1.635,0,0,1-.27-.943A1.919,1.919,0,0,1-4.365-6.9,3,3,0,0,1-2.4-7.533a3.091,3.091,0,0,1,2.041.649A2.063,2.063,0,0,1,.424-5.223H-.848a1.142,1.142,0,0,0-.441-.9A1.652,1.652,0,0,0-2.4-6.494a1.729,1.729,0,0,0-1.08.3.947.947,0,0,0-.39.786.767.767,0,0,0,.362.69A4.458,4.458,0,0,0-2.2-4.272a6.821,6.821,0,0,1,1.535.506,2.239,2.239,0,0,1,.872.708A1.74,1.74,0,0,1,.492-2.051,1.893,1.893,0,0,1-.3-.461a3.326,3.326,0,0,1-2.058.6A3.725,3.725,0,0,1-3.931-.178,2.557,2.557,0,0,1-5-1.056a2.117,2.117,0,0,1-.386-1.22h1.265a1.309,1.309,0,0,0,.509,1.008A1.976,1.976,0,0,0-2.358-.9a2.039,2.039,0,0,0,1.152-.291A.893.893,0,0,0-.772-1.962ZM11.854-3.616A4.429,4.429,0,0,1,11.081-.9,2.476,2.476,0,0,1,8.989.137,2.713,2.713,0,0,1,6.87-.718V2.844H5.605V-7.4H6.761l.062.82a2.605,2.605,0,0,1,2.146-.957,2.522,2.522,0,0,1,2.109,1,4.477,4.477,0,0,1,.776,2.8ZM10.589-3.76a3.268,3.268,0,0,0-.533-1.976A1.718,1.718,0,0,0,8.593-6.46,1.859,1.859,0,0,0,6.87-5.441v3.534A1.863,1.863,0,0,0,8.606-.9a1.71,1.71,0,0,0,1.446-.721A3.567,3.567,0,0,0,10.589-3.76ZM18.026,0a2.657,2.657,0,0,1-.178-.779,2.822,2.822,0,0,1-2.105.916,2.611,2.611,0,0,1-1.794-.619,2,2,0,0,1-.7-1.569,2.091,2.091,0,0,1,.878-1.794A4.142,4.142,0,0,1,16.6-4.484h1.23v-.581a1.42,1.42,0,0,0-.4-1.056,1.593,1.593,0,0,0-1.169-.393,1.844,1.844,0,0,0-1.135.342,1.007,1.007,0,0,0-.458.827H13.4a1.745,1.745,0,0,1,.393-1.07,2.683,2.683,0,0,1,1.066-.817,3.588,3.588,0,0,1,1.48-.3,2.924,2.924,0,0,1,2,.639,2.306,2.306,0,0,1,.752,1.76v3.4a4.162,4.162,0,0,0,.26,1.62V0Zm-2.1-.964a2.223,2.223,0,0,0,1.128-.308,1.861,1.861,0,0,0,.772-.8V-3.589h-.991q-2.324,0-2.324,1.36a1.151,1.151,0,0,0,.4.93A1.524,1.524,0,0,0,15.928-.964Zm8.723-5.3a3.79,3.79,0,0,0-.622-.048A1.667,1.667,0,0,0,22.34-5.25V0H21.075V-7.4h1.23l.021.854a1.969,1.969,0,0,1,1.764-.991,1.292,1.292,0,0,1,.561.1ZM30.105,0a2.657,2.657,0,0,1-.178-.779,2.822,2.822,0,0,1-2.105.916,2.611,2.611,0,0,1-1.794-.619,2,2,0,0,1-.7-1.569,2.091,2.091,0,0,1,.878-1.794,4.142,4.142,0,0,1,2.471-.639h1.23v-.581a1.42,1.42,0,0,0-.4-1.056,1.593,1.593,0,0,0-1.169-.393,1.844,1.844,0,0,0-1.135.342,1.007,1.007,0,0,0-.458.827H25.478a1.745,1.745,0,0,1,.393-1.07,2.683,2.683,0,0,1,1.066-.817,3.588,3.588,0,0,1,1.48-.3,2.924,2.924,0,0,1,2,.639,2.306,2.306,0,0,1,.752,1.76v3.4a4.162,4.162,0,0,0,.26,1.62V0Zm-2.1-.964a2.223,2.223,0,0,0,1.128-.308,1.861,1.861,0,0,0,.772-.8V-3.589h-.991q-2.324,0-2.324,1.36a1.151,1.151,0,0,0,.4.93A1.524,1.524,0,0,0,28.007-.964ZM41.187,0a2.657,2.657,0,0,1-.178-.779A2.822,2.822,0,0,1,38.9.137a2.611,2.611,0,0,1-1.794-.619,2,2,0,0,1-.7-1.569,2.091,2.091,0,0,1,.878-1.794,4.142,4.142,0,0,1,2.471-.639h1.23v-.581a1.42,1.42,0,0,0-.4-1.056,1.593,1.593,0,0,0-1.169-.393,1.844,1.844,0,0,0-1.135.342,1.007,1.007,0,0,0-.458.827H36.559a1.745,1.745,0,0,1,.393-1.07,2.683,2.683,0,0,1,1.066-.817,3.588,3.588,0,0,1,1.48-.3,2.924,2.924,0,0,1,2,.639,2.306,2.306,0,0,1,.752,1.76v3.4a4.162,4.162,0,0,0,.26,1.62V0Zm-2.1-.964a2.223,2.223,0,0,0,1.128-.308,1.861,1.861,0,0,0,.772-.8V-3.589H40q-2.324,0-2.324,1.36a1.151,1.151,0,0,0,.4.93A1.524,1.524,0,0,0,39.088-.964ZM45.432-7.4l.041.93a2.7,2.7,0,0,1,2.215-1.066q2.345,0,2.365,2.646V0H48.788V-4.895a1.7,1.7,0,0,0-.366-1.183A1.466,1.466,0,0,0,47.3-6.46a1.825,1.825,0,0,0-1.08.328,2.228,2.228,0,0,0-.725.861V0H44.235V-7.4ZM56.526,0a2.657,2.657,0,0,1-.178-.779,2.822,2.822,0,0,1-2.105.916,2.611,2.611,0,0,1-1.794-.619,2,2,0,0,1-.7-1.569,2.091,2.091,0,0,1,.878-1.794A4.142,4.142,0,0,1,55.1-4.484h1.23v-.581a1.42,1.42,0,0,0-.4-1.056,1.593,1.593,0,0,0-1.169-.393,1.844,1.844,0,0,0-1.135.342,1.007,1.007,0,0,0-.458.827H51.9a1.745,1.745,0,0,1,.393-1.07,2.683,2.683,0,0,1,1.066-.817,3.588,3.588,0,0,1,1.48-.3,2.924,2.924,0,0,1,2,.639,2.306,2.306,0,0,1,.752,1.76v3.4a4.162,4.162,0,0,0,.26,1.62V0Zm-2.1-.964a2.223,2.223,0,0,0,1.128-.308,1.861,1.861,0,0,0,.772-.8V-3.589h-.991q-2.324,0-2.324,1.36a1.151,1.151,0,0,0,.4.93A1.524,1.524,0,0,0,54.428-.964ZM55.6-10.5h1.531L55.3-8.49l-1.019,0ZM60.949,0H59.685V-10.5h1.265Zm3.4,0H63.082V-7.4h1.265ZM62.979-9.358a.755.755,0,0,1,.188-.52.706.706,0,0,1,.557-.212.717.717,0,0,1,.561.212.747.747,0,0,1,.191.52.722.722,0,0,1-.191.513.73.73,0,0,1-.561.205.718.718,0,0,1-.557-.205A.73.73,0,0,1,62.979-9.358Zm7.7,7.4a.931.931,0,0,0-.386-.8,3.718,3.718,0,0,0-1.347-.489,6.367,6.367,0,0,1-1.524-.492,2.169,2.169,0,0,1-.834-.684,1.635,1.635,0,0,1-.27-.943A1.919,1.919,0,0,1,67.084-6.9a3,3,0,0,1,1.965-.629,3.091,3.091,0,0,1,2.041.649,2.063,2.063,0,0,1,.783,1.661H70.6a1.142,1.142,0,0,0-.441-.9,1.652,1.652,0,0,0-1.111-.376,1.729,1.729,0,0,0-1.08.3.947.947,0,0,0-.39.786.767.767,0,0,0,.362.69,4.458,4.458,0,0,0,1.309.444,6.821,6.821,0,0,1,1.535.506,2.239,2.239,0,0,1,.872.708,1.74,1.74,0,0,1,.284,1.008,1.893,1.893,0,0,1-.793,1.589,3.326,3.326,0,0,1-2.058.6,3.725,3.725,0,0,1-1.572-.314,2.557,2.557,0,0,1-1.07-.878,2.117,2.117,0,0,1-.386-1.22h1.265a1.309,1.309,0,0,0,.509,1.008A1.976,1.976,0,0,0,69.091-.9a2.039,2.039,0,0,0,1.152-.291A.893.893,0,0,0,70.677-1.962ZM74.963,0H73.7V-7.4h1.265ZM73.6-9.358a.755.755,0,0,1,.188-.52.706.706,0,0,1,.557-.212.717.717,0,0,1,.561.212.747.747,0,0,1,.191.52.722.722,0,0,1-.191.513.73.73,0,0,1-.561.205.718.718,0,0,1-.557-.205A.73.73,0,0,1,73.6-9.358Zm7.7,7.4a.931.931,0,0,0-.386-.8,3.718,3.718,0,0,0-1.347-.489,6.367,6.367,0,0,1-1.524-.492,2.169,2.169,0,0,1-.834-.684,1.635,1.635,0,0,1-.27-.943A1.919,1.919,0,0,1,77.7-6.9a3,3,0,0,1,1.965-.629,3.091,3.091,0,0,1,2.041.649,2.063,2.063,0,0,1,.783,1.661H81.218a1.142,1.142,0,0,0-.441-.9,1.652,1.652,0,0,0-1.111-.376,1.729,1.729,0,0,0-1.08.3.947.947,0,0,0-.39.786.767.767,0,0,0,.362.69,4.458,4.458,0,0,0,1.309.444,6.821,6.821,0,0,1,1.535.506,2.239,2.239,0,0,1,.872.708,1.74,1.74,0,0,1,.284,1.008,1.893,1.893,0,0,1-.793,1.589,3.326,3.326,0,0,1-2.058.6,3.725,3.725,0,0,1-1.572-.314,2.557,2.557,0,0,1-1.07-.878,2.117,2.117,0,0,1-.386-1.22h1.265a1.309,1.309,0,0,0,.509,1.008A1.976,1.976,0,0,0,79.707-.9a2.039,2.039,0,0,0,1.152-.291A.893.893,0,0,0,81.293-1.962ZM-76.99,14.947-75.267,9.4h1.354l-2.974,8.538q-.69,1.846-2.194,1.846l-.239-.021-.472-.089V18.653l.342.027a1.683,1.683,0,0,0,1-.26,1.88,1.88,0,0,0,.591-.95l.28-.752L-80.216,9.4h1.381Zm13.918-1.764a4.429,4.429,0,0,1-.772,2.721,2.476,2.476,0,0,1-2.092,1.032,2.713,2.713,0,0,1-2.119-.854v3.562H-69.32V9.4h1.155l.062.82a2.605,2.605,0,0,1,2.146-.957,2.522,2.522,0,0,1,2.109,1,4.477,4.477,0,0,1,.776,2.8Zm-1.265-.144a3.268,3.268,0,0,0-.533-1.976,1.718,1.718,0,0,0-1.463-.725,1.859,1.859,0,0,0-1.723,1.019v3.534A1.863,1.863,0,0,0-66.319,15.9a1.71,1.71,0,0,0,1.446-.721A3.567,3.567,0,0,0-64.336,13.04Zm6.446-2.5a3.79,3.79,0,0,0-.622-.048A1.667,1.667,0,0,0-60.2,11.55V16.8h-1.265V9.4h1.23l.021.854a1.969,1.969,0,0,1,1.764-.991,1.292,1.292,0,0,1,.561.1Zm.69,2.5a4.369,4.369,0,0,1,.427-1.955,3.187,3.187,0,0,1,1.189-1.34,3.238,3.238,0,0,1,1.74-.472A3.119,3.119,0,0,1-51.4,10.313a4.024,4.024,0,0,1,.933,2.782v.089a4.407,4.407,0,0,1-.414,1.938,3.14,3.14,0,0,1-1.183,1.336,3.275,3.275,0,0,1-1.767.479,3.111,3.111,0,0,1-2.437-1.046,4,4,0,0,1-.933-2.769Zm1.271.15a3.164,3.164,0,0,0,.571,1.976,1.827,1.827,0,0,0,1.528.745,1.816,1.816,0,0,0,1.531-.755,3.46,3.46,0,0,0,.567-2.116,3.159,3.159,0,0,0-.578-1.972,1.836,1.836,0,0,0-1.535-.755,1.816,1.816,0,0,0-1.511.745A3.435,3.435,0,0,0-55.928,13.184ZM-45.914,15.9a1.822,1.822,0,0,0,1.183-.41,1.443,1.443,0,0,0,.561-1.025h1.2a2.293,2.293,0,0,1-.437,1.21,2.881,2.881,0,0,1-1.077.916,3.107,3.107,0,0,1-1.425.342,3.047,3.047,0,0,1-2.4-1.008,4.016,4.016,0,0,1-.892-2.758v-.212a4.453,4.453,0,0,1,.4-1.921,3.02,3.02,0,0,1,1.138-1.306,3.233,3.233,0,0,1,1.753-.465,2.966,2.966,0,0,1,2.068.745,2.663,2.663,0,0,1,.878,1.935h-1.2a1.743,1.743,0,0,0-.543-1.179,1.691,1.691,0,0,0-1.207-.461A1.77,1.77,0,0,0-47.414,11a3.259,3.259,0,0,0-.53,2.006v.239a3.194,3.194,0,0,0,.526,1.969A1.779,1.779,0,0,0-45.914,15.9Zm7.431,1.032a3.232,3.232,0,0,1-2.447-.988,3.666,3.666,0,0,1-.943-2.642v-.232a4.438,4.438,0,0,1,.42-1.965,3.28,3.28,0,0,1,1.176-1.354,2.956,2.956,0,0,1,1.637-.489,2.77,2.77,0,0,1,2.242.95,4.114,4.114,0,0,1,.8,2.721v.526h-5.011a2.629,2.629,0,0,0,.639,1.767,2.009,2.009,0,0,0,1.555.673,2.2,2.2,0,0,0,1.135-.273,2.851,2.851,0,0,0,.813-.725l.772.6A3.106,3.106,0,0,1-38.483,16.937Zm-.157-6.631a1.687,1.687,0,0,0-1.285.557,2.708,2.708,0,0,0-.643,1.562h3.705v-.1a2.409,2.409,0,0,0-.52-1.494A1.588,1.588,0,0,0-38.64,10.306Zm8.812,4.532a.931.931,0,0,0-.386-.8,3.718,3.718,0,0,0-1.347-.489,6.367,6.367,0,0,1-1.524-.492,2.169,2.169,0,0,1-.834-.684,1.635,1.635,0,0,1-.27-.943A1.919,1.919,0,0,1-33.421,9.9a3,3,0,0,1,1.965-.629,3.091,3.091,0,0,1,2.041.649,2.063,2.063,0,0,1,.783,1.661H-29.9a1.142,1.142,0,0,0-.441-.9,1.652,1.652,0,0,0-1.111-.376,1.729,1.729,0,0,0-1.08.3.947.947,0,0,0-.39.786.767.767,0,0,0,.362.69,4.458,4.458,0,0,0,1.309.444,6.821,6.821,0,0,1,1.535.506,2.239,2.239,0,0,1,.872.708,1.74,1.74,0,0,1,.284,1.008,1.893,1.893,0,0,1-.793,1.589,3.326,3.326,0,0,1-2.058.6,3.725,3.725,0,0,1-1.572-.314,2.557,2.557,0,0,1-1.07-.878,2.117,2.117,0,0,1-.386-1.22h1.265a1.309,1.309,0,0,0,.509,1.008,1.976,1.976,0,0,0,1.254.373,2.039,2.039,0,0,0,1.152-.291A.893.893,0,0,0-29.829,14.838ZM-22.35,16.8a2.657,2.657,0,0,1-.178-.779,2.822,2.822,0,0,1-2.105.916,2.611,2.611,0,0,1-1.794-.619,2,2,0,0,1-.7-1.569,2.091,2.091,0,0,1,.878-1.794,4.142,4.142,0,0,1,2.471-.639h1.23v-.581a1.42,1.42,0,0,0-.4-1.056,1.593,1.593,0,0,0-1.169-.393,1.844,1.844,0,0,0-1.135.342,1.007,1.007,0,0,0-.458.827h-1.271a1.745,1.745,0,0,1,.393-1.07,2.683,2.683,0,0,1,1.066-.817,3.588,3.588,0,0,1,1.48-.3,2.924,2.924,0,0,1,2,.639,2.306,2.306,0,0,1,.752,1.76v3.4a4.162,4.162,0,0,0,.26,1.62V16.8Zm-2.1-.964a2.223,2.223,0,0,0,1.128-.308,1.861,1.861,0,0,0,.772-.8V13.211h-.991q-2.324,0-2.324,1.36a1.151,1.151,0,0,0,.4.93A1.524,1.524,0,0,0-24.449,15.836ZM-18.112,9.4l.034.82a2.732,2.732,0,0,1,2.194-.957,2.115,2.115,0,0,1,2.112,1.189,2.8,2.8,0,0,1,.96-.861,2.837,2.837,0,0,1,1.4-.328q2.434,0,2.475,2.577V16.8H-10.2V11.919a1.7,1.7,0,0,0-.362-1.186,1.6,1.6,0,0,0-1.217-.393,1.677,1.677,0,0,0-1.169.42,1.706,1.706,0,0,0-.54,1.131V16.8h-1.271V11.953a1.411,1.411,0,0,0-1.579-1.613,1.692,1.692,0,0,0-1.7,1.06v5.4h-1.265V9.4Zm12.455,7.4H-6.921V9.4h1.265ZM-7.024,7.442a.755.755,0,0,1,.188-.52.706.706,0,0,1,.557-.212.717.717,0,0,1,.561.212.747.747,0,0,1,.191.52.722.722,0,0,1-.191.513.73.73,0,0,1-.561.205.718.718,0,0,1-.557-.205A.73.73,0,0,1-7.024,7.442Zm6.46,9.5a3.232,3.232,0,0,1-2.447-.988,3.666,3.666,0,0,1-.943-2.642v-.232a4.438,4.438,0,0,1,.42-1.965A3.28,3.28,0,0,1-2.358,9.756,2.956,2.956,0,0,1-.721,9.267a2.77,2.77,0,0,1,2.242.95,4.114,4.114,0,0,1,.8,2.721v.526H-2.69a2.629,2.629,0,0,0,.639,1.767A2.009,2.009,0,0,0-.5,15.9a2.2,2.2,0,0,0,1.135-.273,2.851,2.851,0,0,0,.813-.725l.772.6A3.106,3.106,0,0,1-.564,16.937Zm-.157-6.631a1.687,1.687,0,0,0-1.285.557,2.708,2.708,0,0,0-.643,1.562H1.056v-.1a2.409,2.409,0,0,0-.52-1.494A1.588,1.588,0,0,0-.721,10.306Zm5.7-.9.041.93A2.7,2.7,0,0,1,7.236,9.267q2.345,0,2.365,2.646V16.8H8.336V11.905a1.7,1.7,0,0,0-.366-1.183,1.466,1.466,0,0,0-1.118-.383,1.825,1.825,0,0,0-1.08.328,2.228,2.228,0,0,0-.725.861V16.8H3.784V9.4Zm8.244-1.791V9.4H14.6v.978H13.224v4.593a1.027,1.027,0,0,0,.185.667.777.777,0,0,0,.629.222,3.062,3.062,0,0,0,.6-.082V16.8a3.688,3.688,0,0,1-.971.136,1.575,1.575,0,0,1-1.278-.513,2.2,2.2,0,0,1-.431-1.456V10.381H10.613V9.4h1.347V7.613Zm2.386,5.421a4.369,4.369,0,0,1,.427-1.955,3.187,3.187,0,0,1,1.189-1.34,3.238,3.238,0,0,1,1.74-.472,3.119,3.119,0,0,1,2.444,1.046,4.024,4.024,0,0,1,.933,2.782v.089a4.407,4.407,0,0,1-.414,1.938,3.14,3.14,0,0,1-1.183,1.336,3.275,3.275,0,0,1-1.767.479,3.111,3.111,0,0,1-2.437-1.046,4,4,0,0,1-.933-2.769Zm1.271.15a3.164,3.164,0,0,0,.571,1.976,1.934,1.934,0,0,0,3.059-.01,3.46,3.46,0,0,0,.567-2.116,3.159,3.159,0,0,0-.578-1.972,1.836,1.836,0,0,0-1.535-.755,1.816,1.816,0,0,0-1.511.745A3.435,3.435,0,0,0,16.881,13.184Zm10.206-.144a4.333,4.333,0,0,1,.807-2.738,2.745,2.745,0,0,1,4.17-.147V6.3h1.265V16.8H32.167l-.062-.793a2.575,2.575,0,0,1-2.112.93,2.526,2.526,0,0,1-2.1-1.053,4.382,4.382,0,0,1-.81-2.748Zm1.265.144a3.281,3.281,0,0,0,.52,1.969,1.68,1.68,0,0,0,1.436.711,1.845,1.845,0,0,0,1.757-1.08v-3.4a1.859,1.859,0,0,0-1.743-1.046,1.687,1.687,0,0,0-1.449.718A3.612,3.612,0,0,0,28.352,13.184ZM38.36,16.937a3.232,3.232,0,0,1-2.447-.988,3.666,3.666,0,0,1-.943-2.642v-.232a4.438,4.438,0,0,1,.42-1.965,3.28,3.28,0,0,1,1.176-1.354A2.956,2.956,0,0,1,38.2,9.267a2.77,2.77,0,0,1,2.242.95,4.114,4.114,0,0,1,.8,2.721v.526H36.234a2.629,2.629,0,0,0,.639,1.767,2.009,2.009,0,0,0,1.555.673,2.2,2.2,0,0,0,1.135-.273,2.851,2.851,0,0,0,.813-.725l.772.6A3.106,3.106,0,0,1,38.36,16.937ZM38.2,10.306a1.687,1.687,0,0,0-1.285.557,2.708,2.708,0,0,0-.643,1.562H39.98v-.1a2.409,2.409,0,0,0-.52-1.494A1.588,1.588,0,0,0,38.2,10.306Zm7.663,2.734a4.333,4.333,0,0,1,.807-2.738,2.745,2.745,0,0,1,4.17-.147V6.3h1.265V16.8H50.945l-.062-.793a2.575,2.575,0,0,1-2.112.93,2.526,2.526,0,0,1-2.1-1.053,4.382,4.382,0,0,1-.81-2.748Zm1.265.144a3.281,3.281,0,0,0,.52,1.969,1.68,1.68,0,0,0,1.436.711,1.845,1.845,0,0,0,1.757-1.08v-3.4A1.859,1.859,0,0,0,49.1,10.34a1.687,1.687,0,0,0-1.449.718A3.612,3.612,0,0,0,47.13,13.184Zm11.5,3.616a2.657,2.657,0,0,1-.178-.779,2.822,2.822,0,0,1-2.105.916,2.611,2.611,0,0,1-1.794-.619,2,2,0,0,1-.7-1.569,2.091,2.091,0,0,1,.878-1.794,4.142,4.142,0,0,1,2.471-.639h1.23v-.581a1.42,1.42,0,0,0-.4-1.056,1.593,1.593,0,0,0-1.169-.393,1.844,1.844,0,0,0-1.135.342,1.007,1.007,0,0,0-.458.827H54.007a1.745,1.745,0,0,1,.393-1.07,2.683,2.683,0,0,1,1.066-.817,3.588,3.588,0,0,1,1.48-.3,2.924,2.924,0,0,1,2,.639,2.306,2.306,0,0,1,.752,1.76v3.4a4.162,4.162,0,0,0,.26,1.62V16.8Zm-2.1-.964a2.223,2.223,0,0,0,1.128-.308,1.861,1.861,0,0,0,.772-.8V13.211h-.991q-2.324,0-2.324,1.36a1.151,1.151,0,0,0,.4.93A1.524,1.524,0,0,0,56.537,15.836ZM63.4,7.613V9.4h1.381v.978H63.4v4.593a1.027,1.027,0,0,0,.185.667.777.777,0,0,0,.629.222,3.062,3.062,0,0,0,.6-.082V16.8a3.688,3.688,0,0,1-.971.136,1.575,1.575,0,0,1-1.278-.513,2.2,2.2,0,0,1-.431-1.456V10.381H60.789V9.4h1.347V7.613Zm2.386,5.421a4.369,4.369,0,0,1,.427-1.955A3.187,3.187,0,0,1,67.4,9.738a3.238,3.238,0,0,1,1.74-.472,3.119,3.119,0,0,1,2.444,1.046,4.024,4.024,0,0,1,.933,2.782v.089a4.407,4.407,0,0,1-.414,1.938,3.14,3.14,0,0,1-1.183,1.336,3.275,3.275,0,0,1-1.767.479,3.111,3.111,0,0,1-2.437-1.046,4,4,0,0,1-.933-2.769Zm1.271.15a3.164,3.164,0,0,0,.571,1.976,1.934,1.934,0,0,0,3.059-.01,3.46,3.46,0,0,0,.567-2.116,3.159,3.159,0,0,0-.578-1.972,1.836,1.836,0,0,0-1.535-.755,1.816,1.816,0,0,0-1.511.745A3.435,3.435,0,0,0,67.057,13.184Zm11.354,1.654a.931.931,0,0,0-.386-.8,3.718,3.718,0,0,0-1.347-.489,6.367,6.367,0,0,1-1.524-.492,2.169,2.169,0,0,1-.834-.684,1.635,1.635,0,0,1-.27-.943A1.919,1.919,0,0,1,74.819,9.9a3,3,0,0,1,1.965-.629,3.091,3.091,0,0,1,2.041.649,2.063,2.063,0,0,1,.783,1.661H78.336a1.142,1.142,0,0,0-.441-.9,1.652,1.652,0,0,0-1.111-.376,1.729,1.729,0,0,0-1.08.3.947.947,0,0,0-.39.786.767.767,0,0,0,.362.69,4.458,4.458,0,0,0,1.309.444,6.821,6.821,0,0,1,1.535.506,2.239,2.239,0,0,1,.872.708,1.74,1.74,0,0,1,.284,1.008,1.893,1.893,0,0,1-.793,1.589,3.326,3.326,0,0,1-2.058.6,3.725,3.725,0,0,1-1.572-.314,2.557,2.557,0,0,1-1.07-.878,2.117,2.117,0,0,1-.386-1.22h1.265a1.309,1.309,0,0,0,.509,1.008,1.976,1.976,0,0,0,1.254.373,2.039,2.039,0,0,0,1.152-.291A.893.893,0,0,0,78.412,14.838Z" transform="translate(5290 566)" fill="#12263f"/>
    <path id="Trazado_199559" data-name="Trazado 199559" d="M5400,686H5180a15,15,0,0,1-15-15V651a15,15,0,0,1,15-15h220a15,15,0,0,1,15,15v20A15,15,0,0,1,5400,686Z" fill="#4dd0e1"/>
    <path id="Trazado_222146" data-name="Trazado 222146" d="M-61.848-4.026h-2.338V0h-1.319V-9.953h3.295a3.9,3.9,0,0,1,2.587.766,2.755,2.755,0,0,1,.906,2.229,2.68,2.68,0,0,1-.5,1.62,3,3,0,0,1-1.4,1.032L-58.28-.082V0h-1.408ZM-64.186-5.1h2.017a2.275,2.275,0,0,0,1.555-.507,1.714,1.714,0,0,0,.578-1.356,1.8,1.8,0,0,0-.55-1.418,2.33,2.33,0,0,0-1.589-.5h-2.01ZM-54.007.137a3.232,3.232,0,0,1-2.447-.988A3.666,3.666,0,0,1-57.4-3.493v-.232a4.438,4.438,0,0,1,.42-1.965A3.28,3.28,0,0,1-55.8-7.044a2.956,2.956,0,0,1,1.637-.489,2.77,2.77,0,0,1,2.242.95,4.114,4.114,0,0,1,.8,2.721v.526h-5.011a2.629,2.629,0,0,0,.639,1.767A2.009,2.009,0,0,0-53.939-.9,2.2,2.2,0,0,0-52.8-1.169a2.851,2.851,0,0,0,.813-.725l.772.6A3.106,3.106,0,0,1-54.007.137Zm-.157-6.631a1.687,1.687,0,0,0-1.285.557,2.708,2.708,0,0,0-.643,1.562h3.705v-.1a2.409,2.409,0,0,0-.52-1.494A1.588,1.588,0,0,0-54.165-6.494Zm8.812,4.532a.931.931,0,0,0-.386-.8,3.718,3.718,0,0,0-1.347-.489,6.367,6.367,0,0,1-1.524-.492,2.169,2.169,0,0,1-.834-.684,1.635,1.635,0,0,1-.27-.943A1.919,1.919,0,0,1-48.945-6.9a3,3,0,0,1,1.965-.629,3.091,3.091,0,0,1,2.041.649,2.063,2.063,0,0,1,.783,1.661h-1.271a1.142,1.142,0,0,0-.441-.9,1.652,1.652,0,0,0-1.111-.376,1.729,1.729,0,0,0-1.08.3.947.947,0,0,0-.39.786.767.767,0,0,0,.362.69,4.458,4.458,0,0,0,1.309.444,6.821,6.821,0,0,1,1.535.506,2.239,2.239,0,0,1,.872.708,1.74,1.74,0,0,1,.284,1.008,1.893,1.893,0,0,1-.793,1.589,3.326,3.326,0,0,1-2.058.6,3.725,3.725,0,0,1-1.572-.314,2.557,2.557,0,0,1-1.07-.878,2.117,2.117,0,0,1-.386-1.22H-48.7a1.309,1.309,0,0,0,.509,1.008A1.976,1.976,0,0,0-46.939-.9a2.039,2.039,0,0,0,1.152-.291A.893.893,0,0,0-45.353-1.962Zm9.16-1.654A4.429,4.429,0,0,1-36.965-.9,2.476,2.476,0,0,1-39.057.137a2.713,2.713,0,0,1-2.119-.854V2.844h-1.265V-7.4h1.155l.062.82a2.605,2.605,0,0,1,2.146-.957,2.522,2.522,0,0,1,2.109,1,4.477,4.477,0,0,1,.776,2.8Zm-1.265-.144a3.268,3.268,0,0,0-.533-1.976,1.718,1.718,0,0,0-1.463-.725,1.859,1.859,0,0,0-1.723,1.019v3.534A1.863,1.863,0,0,0-39.44-.9a1.71,1.71,0,0,0,1.446-.721A3.567,3.567,0,0,0-37.458-3.76ZM-30.02,0A2.657,2.657,0,0,1-30.2-.779,2.822,2.822,0,0,1-32.3.137,2.611,2.611,0,0,1-34.1-.482a2,2,0,0,1-.7-1.569,2.091,2.091,0,0,1,.878-1.794,4.142,4.142,0,0,1,2.471-.639h1.23v-.581a1.42,1.42,0,0,0-.4-1.056,1.593,1.593,0,0,0-1.169-.393,1.844,1.844,0,0,0-1.135.342,1.007,1.007,0,0,0-.458.827h-1.271a1.745,1.745,0,0,1,.393-1.07,2.683,2.683,0,0,1,1.066-.817,3.588,3.588,0,0,1,1.48-.3,2.924,2.924,0,0,1,2,.639,2.306,2.306,0,0,1,.752,1.76v3.4a4.162,4.162,0,0,0,.26,1.62V0Zm-2.1-.964a2.223,2.223,0,0,0,1.128-.308,1.861,1.861,0,0,0,.772-.8V-3.589h-.991q-2.324,0-2.324,1.36a1.151,1.151,0,0,0,.4.93A1.524,1.524,0,0,0-32.119-.964ZM-25.6,0h-1.265V-10.5H-25.6Zm1.716-3.76A4.333,4.333,0,0,1-23.075-6.5a2.551,2.551,0,0,1,2.112-1.036,2.565,2.565,0,0,1,2.058.889V-10.5h1.265V0H-18.8l-.062-.793a2.575,2.575,0,0,1-2.112.93,2.526,2.526,0,0,1-2.1-1.053,4.382,4.382,0,0,1-.81-2.748Zm1.265.144a3.281,3.281,0,0,0,.52,1.969,1.68,1.68,0,0,0,1.436.711A1.845,1.845,0,0,0-18.9-2.017v-3.4A1.859,1.859,0,0,0-20.648-6.46a1.687,1.687,0,0,0-1.449.718A3.612,3.612,0,0,0-22.617-3.616Zm6.6-.15a4.369,4.369,0,0,1,.427-1.955A3.187,3.187,0,0,1-14.4-7.062a3.238,3.238,0,0,1,1.74-.472,3.119,3.119,0,0,1,2.444,1.046A4.024,4.024,0,0,1-9.28-3.705v.089a4.407,4.407,0,0,1-.414,1.938A3.14,3.14,0,0,1-10.876-.342a3.275,3.275,0,0,1-1.767.479A3.111,3.111,0,0,1-15.08-.909a4,4,0,0,1-.933-2.769Zm1.271.15a3.164,3.164,0,0,0,.571,1.976A1.827,1.827,0,0,0-12.643-.9a1.816,1.816,0,0,0,1.531-.755,3.46,3.46,0,0,0,.567-2.116,3.159,3.159,0,0,0-.578-1.972,1.836,1.836,0,0,0-1.535-.755,1.816,1.816,0,0,0-1.511.745A3.434,3.434,0,0,0-14.742-3.616ZM-1.808-1.853-.085-7.4H1.268L-1.706,1.142Q-2.4,2.987-3.9,2.987l-.239-.021-.472-.089V1.853l.342.027a1.683,1.683,0,0,0,1-.26A1.88,1.88,0,0,0-2.676.67l.28-.752L-5.035-7.4h1.381Zm11.977-.109a.931.931,0,0,0-.386-.8,3.718,3.718,0,0,0-1.347-.489,6.367,6.367,0,0,1-1.524-.492,2.169,2.169,0,0,1-.834-.684,1.635,1.635,0,0,1-.27-.943A1.919,1.919,0,0,1,6.576-6.9a3,3,0,0,1,1.965-.629,3.091,3.091,0,0,1,2.041.649,2.063,2.063,0,0,1,.783,1.661H10.093a1.142,1.142,0,0,0-.441-.9,1.652,1.652,0,0,0-1.111-.376,1.729,1.729,0,0,0-1.08.3.947.947,0,0,0-.39.786.767.767,0,0,0,.362.69,4.458,4.458,0,0,0,1.309.444,6.821,6.821,0,0,1,1.535.506,2.239,2.239,0,0,1,.872.708,1.74,1.74,0,0,1,.284,1.008A1.893,1.893,0,0,1,10.64-.461a3.326,3.326,0,0,1-2.058.6A3.725,3.725,0,0,1,7.01-.178a2.557,2.557,0,0,1-1.07-.878,2.117,2.117,0,0,1-.386-1.22H6.819a1.309,1.309,0,0,0,.509,1.008A1.976,1.976,0,0,0,8.583-.9a2.039,2.039,0,0,0,1.152-.291A.893.893,0,0,0,10.168-1.962ZM16.15.137A3.232,3.232,0,0,1,13.7-.851a3.666,3.666,0,0,1-.943-2.642v-.232a4.438,4.438,0,0,1,.42-1.965,3.28,3.28,0,0,1,1.176-1.354,2.956,2.956,0,0,1,1.637-.489,2.77,2.77,0,0,1,2.242.95,4.114,4.114,0,0,1,.8,2.721v.526H14.024a2.629,2.629,0,0,0,.639,1.767A2.009,2.009,0,0,0,16.218-.9a2.2,2.2,0,0,0,1.135-.273,2.851,2.851,0,0,0,.813-.725l.772.6A3.106,3.106,0,0,1,16.15.137Zm-.157-6.631a1.687,1.687,0,0,0-1.285.557,2.708,2.708,0,0,0-.643,1.562H17.77v-.1a2.409,2.409,0,0,0-.52-1.494A1.588,1.588,0,0,0,15.993-6.494ZM20.2-3.76A4.347,4.347,0,0,1,21-6.511a2.558,2.558,0,0,1,2.119-1.022,2.544,2.544,0,0,1,2.112.957l.062-.82h1.155V-.178a3.009,3.009,0,0,1-.851,2.263,3.141,3.141,0,0,1-2.287.827,3.8,3.8,0,0,1-1.565-.342,2.7,2.7,0,0,1-1.169-.937l.656-.759a2.473,2.473,0,0,0,1.989,1,1.938,1.938,0,0,0,1.439-.52A1.986,1.986,0,0,0,25.173-.1V-.738A2.6,2.6,0,0,1,23.1.137,2.527,2.527,0,0,1,21-.909,4.571,4.571,0,0,1,20.2-3.76Zm1.271.144a3.316,3.316,0,0,0,.513,1.965,1.666,1.666,0,0,0,1.436.714,1.852,1.852,0,0,0,1.757-1.087V-5.4A1.874,1.874,0,0,0,23.43-6.46a1.681,1.681,0,0,0-1.442.718A3.612,3.612,0,0,0,21.468-3.616ZM32.918-.731a2.686,2.686,0,0,1-2.167.868,2.3,2.3,0,0,1-1.8-.687,2.974,2.974,0,0,1-.625-2.034V-7.4h1.265v4.778q0,1.682,1.367,1.682a1.893,1.893,0,0,0,1.928-1.08V-7.4h1.265V0h-1.2Zm6.727-5.53a3.79,3.79,0,0,0-.622-.048,1.667,1.667,0,0,0-1.688,1.06V0H36.07V-7.4H37.3l.021.854a1.969,1.969,0,0,1,1.764-.991,1.292,1.292,0,0,1,.561.1ZM42.181,0H40.917V-7.4h1.265ZM40.814-9.358A.755.755,0,0,1,41-9.878a.706.706,0,0,1,.557-.212.717.717,0,0,1,.561.212.747.747,0,0,1,.191.52.722.722,0,0,1-.191.513.73.73,0,0,1-.561.205A.718.718,0,0,1,41-8.846.73.73,0,0,1,40.814-9.358ZM43.9-3.76A4.333,4.333,0,0,1,44.7-6.5a2.551,2.551,0,0,1,2.112-1.036,2.565,2.565,0,0,1,2.058.889V-10.5h1.265V0H48.976l-.062-.793A2.575,2.575,0,0,1,46.8.137a2.526,2.526,0,0,1-2.1-1.053,4.382,4.382,0,0,1-.81-2.748Zm1.265.144a3.281,3.281,0,0,0,.52,1.969,1.68,1.68,0,0,0,1.436.711,1.845,1.845,0,0,0,1.757-1.08v-3.4A1.859,1.859,0,0,0,47.13-6.46a1.687,1.687,0,0,0-1.449.718A3.612,3.612,0,0,0,45.162-3.616ZM56.667,0a2.657,2.657,0,0,1-.178-.779,2.822,2.822,0,0,1-2.105.916,2.611,2.611,0,0,1-1.794-.619,2,2,0,0,1-.7-1.569,2.091,2.091,0,0,1,.878-1.794,4.142,4.142,0,0,1,2.471-.639h1.23v-.581a1.42,1.42,0,0,0-.4-1.056A1.593,1.593,0,0,0,54.9-6.515a1.844,1.844,0,0,0-1.135.342,1.007,1.007,0,0,0-.458.827H52.039a1.745,1.745,0,0,1,.393-1.07A2.683,2.683,0,0,1,53.5-7.232a3.588,3.588,0,0,1,1.48-.3,2.924,2.924,0,0,1,2,.639,2.306,2.306,0,0,1,.752,1.76v3.4a4.162,4.162,0,0,0,.26,1.62V0Zm-2.1-.964A2.223,2.223,0,0,0,55.7-1.271a1.861,1.861,0,0,0,.772-.8V-3.589h-.991q-2.324,0-2.324,1.36a1.151,1.151,0,0,0,.4.93A1.524,1.524,0,0,0,54.568-.964Zm4.84-2.8A4.333,4.333,0,0,1,60.214-6.5a2.551,2.551,0,0,1,2.112-1.036,2.565,2.565,0,0,1,2.058.889V-10.5h1.265V0H64.487l-.062-.793a2.575,2.575,0,0,1-2.112.93,2.526,2.526,0,0,1-2.1-1.053,4.382,4.382,0,0,1-.81-2.748Zm1.265.144a3.281,3.281,0,0,0,.52,1.969,1.68,1.68,0,0,0,1.436.711,1.845,1.845,0,0,0,1.757-1.08v-3.4A1.859,1.859,0,0,0,62.641-6.46a1.687,1.687,0,0,0-1.449.718A3.612,3.612,0,0,0,60.672-3.616ZM-53.491,13.04a4.333,4.333,0,0,1,.807-2.738,2.551,2.551,0,0,1,2.112-1.036,2.565,2.565,0,0,1,2.058.889V6.3h1.265V16.8h-1.162l-.062-.793a2.575,2.575,0,0,1-2.112.93,2.526,2.526,0,0,1-2.1-1.053,4.382,4.382,0,0,1-.81-2.748Zm1.265.144a3.281,3.281,0,0,0,.52,1.969,1.68,1.68,0,0,0,1.436.711,1.845,1.845,0,0,0,1.757-1.08v-3.4a1.859,1.859,0,0,0-1.743-1.046,1.687,1.687,0,0,0-1.449.718A3.612,3.612,0,0,0-52.227,13.184Zm10.008,3.753a3.232,3.232,0,0,1-2.447-.988,3.666,3.666,0,0,1-.943-2.642v-.232a4.438,4.438,0,0,1,.42-1.965,3.28,3.28,0,0,1,1.176-1.354,2.956,2.956,0,0,1,1.637-.489,2.77,2.77,0,0,1,2.242.95,4.114,4.114,0,0,1,.8,2.721v.526h-5.011a2.629,2.629,0,0,0,.639,1.767,2.009,2.009,0,0,0,1.555.673,2.2,2.2,0,0,0,1.135-.273,2.851,2.851,0,0,0,.813-.725l.772.6A3.106,3.106,0,0,1-42.219,16.937Zm-.157-6.631a1.687,1.687,0,0,0-1.285.557,2.708,2.708,0,0,0-.643,1.562H-40.6v-.1a2.409,2.409,0,0,0-.52-1.494A1.588,1.588,0,0,0-42.376,10.306Zm9.345,6.494H-34.3V6.3h1.265Zm6.59,0a2.657,2.657,0,0,1-.178-.779,2.822,2.822,0,0,1-2.105.916,2.611,2.611,0,0,1-1.794-.619,2,2,0,0,1-.7-1.569,2.091,2.091,0,0,1,.878-1.794,4.142,4.142,0,0,1,2.471-.639h1.23v-.581a1.42,1.42,0,0,0-.4-1.056,1.593,1.593,0,0,0-1.169-.393,1.844,1.844,0,0,0-1.135.342,1.007,1.007,0,0,0-.458.827h-1.271a1.745,1.745,0,0,1,.393-1.07,2.683,2.683,0,0,1,1.066-.817,3.588,3.588,0,0,1,1.48-.3,2.924,2.924,0,0,1,2,.639,2.306,2.306,0,0,1,.752,1.76v3.4a4.162,4.162,0,0,0,.26,1.62V16.8Zm-2.1-.964a2.223,2.223,0,0,0,1.128-.308,1.861,1.861,0,0,0,.772-.8V13.211h-.991q-2.324,0-2.324,1.36a1.151,1.151,0,0,0,.4.93A1.524,1.524,0,0,0-28.54,15.836Zm9.987.964h-1.265V9.4h1.265ZM-19.92,7.442a.755.755,0,0,1,.188-.52.706.706,0,0,1,.557-.212.717.717,0,0,1,.561.212.747.747,0,0,1,.191.52.722.722,0,0,1-.191.513.73.73,0,0,1-.561.205.718.718,0,0,1-.557-.205A.73.73,0,0,1-19.92,7.442ZM-15.333,9.4l.041.93a2.7,2.7,0,0,1,2.215-1.066q2.345,0,2.365,2.646V16.8h-1.265V11.905a1.7,1.7,0,0,0-.366-1.183,1.466,1.466,0,0,0-1.118-.383,1.825,1.825,0,0,0-1.08.328,2.228,2.228,0,0,0-.725.861V16.8h-1.265V9.4Zm7.15,7.4V10.381H-9.352V9.4h1.169V8.645a2.519,2.519,0,0,1,.636-1.839,2.4,2.4,0,0,1,1.8-.649,3.339,3.339,0,0,1,.868.115l-.068,1.019a3.632,3.632,0,0,0-.684-.062,1.234,1.234,0,0,0-.95.36,1.46,1.46,0,0,0-.335,1.032V9.4h1.579v.978H-6.918V16.8Zm3.9-3.767a4.369,4.369,0,0,1,.427-1.955,3.187,3.187,0,0,1,1.189-1.34,3.238,3.238,0,0,1,1.74-.472,3.119,3.119,0,0,1,2.444,1.046,4.024,4.024,0,0,1,.933,2.782v.089a4.407,4.407,0,0,1-.414,1.938A3.14,3.14,0,0,1,.858,16.458a3.275,3.275,0,0,1-1.767.479,3.111,3.111,0,0,1-2.437-1.046,4,4,0,0,1-.933-2.769Zm1.271.15a3.164,3.164,0,0,0,.571,1.976A1.827,1.827,0,0,0-.909,15.9a1.816,1.816,0,0,0,1.531-.755,3.46,3.46,0,0,0,.567-2.116,3.159,3.159,0,0,0-.578-1.972,1.836,1.836,0,0,0-1.535-.755,1.816,1.816,0,0,0-1.511.745A3.435,3.435,0,0,0-3.008,13.184ZM7.615,10.538a3.79,3.79,0,0,0-.622-.048A1.667,1.667,0,0,0,5.3,11.55V16.8H4.04V9.4h1.23l.021.854a1.969,1.969,0,0,1,1.764-.991,1.292,1.292,0,0,1,.561.1ZM9.967,9.4l.034.82A2.732,2.732,0,0,1,12.2,9.267a2.115,2.115,0,0,1,2.112,1.189,2.8,2.8,0,0,1,.96-.861,2.837,2.837,0,0,1,1.4-.328q2.434,0,2.475,2.577V16.8H17.876V11.919a1.7,1.7,0,0,0-.362-1.186A1.6,1.6,0,0,0,16.3,10.34a1.677,1.677,0,0,0-1.169.42,1.706,1.706,0,0,0-.54,1.131V16.8H13.316V11.953a1.411,1.411,0,0,0-1.579-1.613,1.692,1.692,0,0,0-1.7,1.06v5.4H8.771V9.4Zm15.647,7.4a2.657,2.657,0,0,1-.178-.779,2.822,2.822,0,0,1-2.105.916,2.611,2.611,0,0,1-1.794-.619,2,2,0,0,1-.7-1.569,2.091,2.091,0,0,1,.878-1.794,4.142,4.142,0,0,1,2.471-.639h1.23v-.581a1.42,1.42,0,0,0-.4-1.056,1.593,1.593,0,0,0-1.169-.393,1.844,1.844,0,0,0-1.135.342,1.007,1.007,0,0,0-.458.827H20.986a1.745,1.745,0,0,1,.393-1.07,2.683,2.683,0,0,1,1.066-.817,3.588,3.588,0,0,1,1.48-.3,2.924,2.924,0,0,1,2,.639,2.306,2.306,0,0,1,.752,1.76v3.4a4.162,4.162,0,0,0,.26,1.62V16.8Zm-2.1-.964a2.223,2.223,0,0,0,1.128-.308,1.861,1.861,0,0,0,.772-.8V13.211h-.991q-2.324,0-2.324,1.36a1.151,1.151,0,0,0,.4.93A1.524,1.524,0,0,0,23.516,15.836Zm8.114.068a1.822,1.822,0,0,0,1.183-.41,1.443,1.443,0,0,0,.561-1.025h1.2a2.293,2.293,0,0,1-.437,1.21,2.881,2.881,0,0,1-1.077.916,3.107,3.107,0,0,1-1.425.342,3.047,3.047,0,0,1-2.4-1.008,4.016,4.016,0,0,1-.892-2.758v-.212a4.453,4.453,0,0,1,.4-1.921A3.02,3.02,0,0,1,29.87,9.732a3.233,3.233,0,0,1,1.753-.465,2.966,2.966,0,0,1,2.068.745,2.663,2.663,0,0,1,.878,1.935h-1.2a1.743,1.743,0,0,0-.543-1.179,1.691,1.691,0,0,0-1.207-.461A1.77,1.77,0,0,0,30.129,11a3.259,3.259,0,0,0-.53,2.006v.239a3.194,3.194,0,0,0,.526,1.969A1.779,1.779,0,0,0,31.63,15.9Zm5.735.9H36.1V9.4h1.265ZM36,7.442a.755.755,0,0,1,.188-.52.706.706,0,0,1,.557-.212.717.717,0,0,1,.561.212.747.747,0,0,1,.191.52.722.722,0,0,1-.191.513.73.73,0,0,1-.561.205.718.718,0,0,1-.557-.205A.73.73,0,0,1,36,7.442Zm3.056,5.592a4.369,4.369,0,0,1,.427-1.955,3.187,3.187,0,0,1,1.189-1.34,3.238,3.238,0,0,1,1.74-.472,3.119,3.119,0,0,1,2.444,1.046,4.024,4.024,0,0,1,.933,2.782v.089a4.407,4.407,0,0,1-.414,1.938,3.14,3.14,0,0,1-1.183,1.336,3.275,3.275,0,0,1-1.767.479,3.111,3.111,0,0,1-2.437-1.046,4,4,0,0,1-.933-2.769Zm1.271.15a3.164,3.164,0,0,0,.571,1.976,1.934,1.934,0,0,0,3.059-.01,3.46,3.46,0,0,0,.567-2.116,3.159,3.159,0,0,0-.578-1.972,1.836,1.836,0,0,0-1.535-.755,1.816,1.816,0,0,0-1.511.745A3.435,3.435,0,0,0,40.325,13.184ZM42.984,6.3h1.531L42.684,8.31l-1.019,0Zm5.585,3.1.041.93a2.7,2.7,0,0,1,2.215-1.066q2.345,0,2.365,2.646V16.8H51.926V11.905a1.7,1.7,0,0,0-.366-1.183,1.466,1.466,0,0,0-1.118-.383,1.825,1.825,0,0,0-1.08.328,2.228,2.228,0,0,0-.725.861V16.8H47.373V9.4Z" transform="translate(5290 657)" fill="#12263f"/>
  </g>
</svg>
