<svg xmlns="http://www.w3.org/2000/svg" xmlns:xlink="http://www.w3.org/1999/xlink" width="507" height="507" viewBox="0 0 507 507">
  <defs>
    <clipPath id="clip-path">
      <rect id="Rectángulo_293838" data-name="Rectángulo 293838" width="507" height="507" transform="translate(850 283)" fill="none"/>
    </clipPath>
    <radialGradient id="radial-gradient" cx="0.5" cy="0.5" r="0.388" gradientTransform="translate(-0.613) scale(2.225 1)" gradientUnits="objectBoundingBox">
      <stop offset="0" stop-color="#6d47d3"/>
      <stop offset="0.994" stop-color="#713592"/>
    </radialGradient>
    <linearGradient id="linear-gradient" x1="0.5" y1="1" x2="0.5" gradientUnits="objectBoundingBox">
      <stop offset="0.011" stop-color="#c695c7"/>
      <stop offset="1" stop-color="#8e81f4"/>
    </linearGradient>
    <radialGradient id="radial-gradient-2" cx="0.5" cy="0.5" r="0.42" gradientTransform="translate(-0.281) scale(1.562 1)" gradientUnits="objectBoundingBox">
      <stop offset="0" stop-color="#b3819d"/>
      <stop offset="1" stop-color="#785ca6"/>
    </radialGradient>
    <linearGradient id="linear-gradient-2" x1="0.5" y1="1" x2="0.5" gradientUnits="objectBoundingBox">
      <stop offset="0.016" stop-color="#ffae78"/>
      <stop offset="1" stop-color="#ff957c"/>
    </linearGradient>
    <linearGradient id="linear-gradient-3" y1="0.5" x2="1" y2="0.5" gradientUnits="objectBoundingBox">
      <stop offset="0" stop-color="#ff8647"/>
      <stop offset="1" stop-color="#ffb934"/>
    </linearGradient>
    <linearGradient id="linear-gradient-6" x1="0.5" y1="1" x2="0.5" gradientUnits="objectBoundingBox">
      <stop offset="0.022" stop-color="#ff8359"/>
      <stop offset="1" stop-color="#ff8b7c"/>
    </linearGradient>
    <linearGradient id="linear-gradient-7" x1="0.5" y1="1" x2="0.5" gradientUnits="objectBoundingBox">
      <stop offset="0.016" stop-color="#f0c2d6"/>
      <stop offset="0.994" stop-color="#bd89c4"/>
    </linearGradient>
    <linearGradient id="linear-gradient-8" x1="0.5" y1="1" x2="0.5" gradientUnits="objectBoundingBox">
      <stop offset="0.006" stop-color="#bd89c4"/>
      <stop offset="0.984" stop-color="#f0c2d6"/>
    </linearGradient>
    <linearGradient id="linear-gradient-10" y1="0.5" x2="1" y2="0.5" gradientUnits="objectBoundingBox">
      <stop offset="0" stop-color="#ffeadb" stop-opacity="0.102"/>
      <stop offset="0.986" stop-color="#93430c" stop-opacity="0.502"/>
      <stop offset="0.994" stop-color="#b060f4"/>
    </linearGradient>
    <radialGradient id="radial-gradient-3" cx="0.029" cy="0.858" r="0.739" gradientTransform="translate(0.008) scale(0.984 1)" gradientUnits="objectBoundingBox">
      <stop offset="0" stop-color="#ff6e27"/>
      <stop offset="0.998" stop-color="#e03347"/>
    </radialGradient>
    <radialGradient id="radial-gradient-4" cx="0.448" cy="0.132" r="0.699" gradientTransform="translate(-0.041) scale(1.081 1)" gradientUnits="objectBoundingBox">
      <stop offset="0" stop-color="#00e0ff"/>
      <stop offset="0.994" stop-color="#1f84ff"/>
    </radialGradient>
    <linearGradient id="linear-gradient-14" x1="0.5" y1="1" x2="0.5" gradientUnits="objectBoundingBox">
      <stop offset="0" stop-color="#8e81f4"/>
      <stop offset="0.989" stop-color="#d295ab"/>
    </linearGradient>
    <radialGradient id="radial-gradient-5" cx="0.448" cy="0.132" r="0.634" gradientTransform="translate(-0.457) scale(1.915 1)" xlink:href="#radial-gradient-4"/>
    <linearGradient id="linear-gradient-16" x1="0.5" y1="1" x2="0.5" gradientUnits="objectBoundingBox">
      <stop offset="0" stop-color="#e1dbfb"/>
      <stop offset="1" stop-color="#fff"/>
    </linearGradient>
    <linearGradient id="linear-gradient-18" x1="0.5" y1="1" x2="0.5" gradientUnits="objectBoundingBox">
      <stop offset="0.006" stop-color="#b060f4"/>
      <stop offset="1" stop-color="#ffeadb"/>
    </linearGradient>
    <radialGradient id="radial-gradient-6" cx="0.489" cy="0.711" r="0.461" gradientTransform="translate(0)" gradientUnits="objectBoundingBox">
      <stop offset="0" stop-color="#3bbdee"/>
      <stop offset="0.817" stop-color="#4390bd"/>
      <stop offset="1" stop-color="#0070a5"/>
    </radialGradient>
    <radialGradient id="radial-gradient-7" cx="0.489" cy="0.711" r="0.31" gradientTransform="translate(-0.452) scale(1.905 1)" xlink:href="#radial-gradient-6"/>
    <linearGradient id="linear-gradient-19" x1="0.5" y1="1" x2="0.5" gradientUnits="objectBoundingBox">
      <stop offset="0" stop-color="#e76c42"/>
      <stop offset="0.994" stop-color="#ae2545"/>
    </linearGradient>
    <linearGradient id="linear-gradient-20" x1="0.5" y1="1" x2="0.5" gradientUnits="objectBoundingBox">
      <stop offset="0" stop-color="#a12f42"/>
      <stop offset="0.994" stop-color="#811945"/>
    </linearGradient>
    <linearGradient id="linear-gradient-21" y1="0.5" x2="1" y2="0.5" gradientUnits="objectBoundingBox">
      <stop offset="0" stop-color="#ffeadb"/>
      <stop offset="0.994" stop-color="#b060f4"/>
    </linearGradient>
    <linearGradient id="linear-gradient-22" x1="0" y1="0.5" x2="1" y2="0.5" xlink:href="#linear-gradient-21"/>
    <radialGradient id="radial-gradient-8" cx="0.5" cy="0.5" r="0.662" gradientTransform="translate(0.184) scale(0.632 1)" xlink:href="#radial-gradient"/>
    <linearGradient id="linear-gradient-23" x1="0.5" y1="1" x2="0.5" y2="0" xlink:href="#linear-gradient"/>
    <linearGradient id="linear-gradient-25" x1="0" y1="0.5" x2="1" y2="0.5" xlink:href="#linear-gradient"/>
    <radialGradient id="radial-gradient-9" cx="0.5" cy="0.5" r="1.41" gradientTransform="translate(0 0.277) scale(1 0.446)" gradientUnits="objectBoundingBox">
      <stop offset="0" stop-color="#1139b6"/>
      <stop offset="0.195" stop-color="#1137af"/>
      <stop offset="0.562" stop-color="#103198"/>
      <stop offset="0.994" stop-color="#0f2873"/>
      <stop offset="1" stop-color="#713592"/>
    </radialGradient>
    <radialGradient id="radial-gradient-10" cx="0.5" cy="0.5" r="0.667" gradientTransform="translate(0.187) scale(0.625 1)" xlink:href="#radial-gradient"/>
    <radialGradient id="radial-gradient-11" cx="0.81" cy="0.132" r="2.087" gradientTransform="translate(0 0.074) scale(1 0.44)" gradientUnits="objectBoundingBox">
      <stop offset="0" stop-color="#113ab8"/>
      <stop offset="0.994" stop-color="#0f2771"/>
      <stop offset="1" stop-color="#713592"/>
    </radialGradient>
    <linearGradient id="linear-gradient-38" x1="0" y1="0.5" x2="1" y2="0.5" xlink:href="#linear-gradient-14"/>
  </defs>
  <g id="Grupo_205170" data-name="Grupo 205170" transform="translate(-864.333 -70)">
    <path id="Trazado_202433" data-name="Trazado 202433" d="M178.742,0A178.742,178.742,0,1,1,0,178.742,178.742,178.742,0,0,1,178.742,0Z" transform="translate(1010 144.676)" fill="#0f2771"/>
    <g id="Grupo_152763" data-name="Grupo 152763" transform="translate(14.333 -213)">
      <g id="Grupo_152731" data-name="Grupo 152731">
        <g id="Grupo_152730" data-name="Grupo 152730" clip-path="url(#clip-path)">
          <g id="Grupo_152729" data-name="Grupo 152729">
            <g id="Grupo_152728" data-name="Grupo 152728">
              <path id="Trazado_199564" data-name="Trazado 199564" d="M1138.313,991.868l-50.69-120.794-3.6,120.772Z" fill-rule="evenodd" fill="url(#radial-gradient)"/>
              <path id="Trazado_199565" data-name="Trazado 199565" d="M1100.407,628.537s-8.111,52.006-21.42,71.053c-10.116,14.495-14.862,34.016-22.951,50.776A78.781,78.781,0,0,1,1045.661,767c-17.17,20.406-39.905,52.05-39.905,52.05-17.127-2.438-27.244-26.446-27.244-26.446,12.662-32.075,39.108-71.98,55.285-88.438,14.8-15.035,25.389-41.761,32.227-61.476.647-1.834,1.25-3.6,1.833-5.285,6.73-19.952,15.4-30.09,15.4-30.09C1087.9,606.341,1100.407,628.537,1100.407,628.537Z" fill="#ffedb6" fill-rule="evenodd"/>
              <path id="Trazado_199566" data-name="Trazado 199566" d="M1100.407,628.537s-8.111,52.006-21.42,71.053c-10.116,14.495-14.862,34.016-22.951,50.776l-22.347,5.673s12.6-24.806,16.631-42.882c4.012-18.076,15.272-68.507,15.272-68.507l.432-1.963c.647-1.834,1.25-3.6,1.833-5.285,6.73-19.952,15.4-30.09,15.4-30.09C1087.9,606.341,1100.407,628.537,1100.407,628.537Z" fill-rule="evenodd" opacity="0.5" fill="url(#linear-gradient)" style="mix-blend-mode: multiply;isolation: isolate"/>
              <path id="Trazado_199567" data-name="Trazado 199567" d="M1249.932,610.008c.194,1.769.324,3.322.367,4.638.216,6.234-2.891,17.191-6.579,27.825-4.767,13.784-10.526,27.006-11.26,28.646.388-1.122,2.524-7.981-.064-19.521-2.869-12.662-31.989-33.434-40.057-57.7-1.661-4.983-2.135-11.087-1.833-17.882.647-14.862,4.961-33.111,8.412-50.518l.389-1.963c2.48-12.661,4.422-24.806,4.077-34.793-1.057-30.457,9.706-50.97,9.706-50.97l11.864-1.942s13.072-4.788,21.829,1.942c7.1,5.435,8.369,31.557,0,73.9-7.593,38.5,1.079,79.9,3.128,98.209A.628.628,0,0,1,1249.932,610.008Z" fill="#bddcf6" fill-rule="evenodd"/>
              <path id="Trazado_199568" data-name="Trazado 199568" d="M1243.72,642.428v.043c-4.767,13.784-10.526,27.006-11.26,28.646.388-1.122,2.524-7.981-.064-19.521-2.869-12.662-31.989-33.434-40.057-57.7-1.661-4.983-2.135-11.087-1.833-17.882l8.412-50.518.389-1.963,15.228-74.978h15.294s12.381,10.2,10.591,61.95c-1.769,50.259,8.865,96.743,9.491,99.374a.628.628,0,0,1,.021.13s-12.661-29.293-16.264-58.564c-3.365-27.437-9.253-43.27-9.987-45.125.41,1.639,3.171,14.668-.064,61.433C1220.1,618.162,1240.4,632.463,1243.72,642.428Z" fill="#bddcf6" fill-rule="evenodd" opacity="0.87" style="mix-blend-mode: multiply;isolation: isolate"/>
              <path id="Trazado_199569" data-name="Trazado 199569" d="M1144.874,388.707s-8.718,15.189-24.177,21.3-24.986,10.785-27.682,26.423,9.488,30.92,15.26,34.873,21.05-26.425,21.05-26.425l23.1-42.151-5.123-6.2Z" fill="#c4e4ff" fill-rule="evenodd"/>
              <path id="Trazado_199570" data-name="Trazado 199570" d="M1127.136,406.744s-1.925,3.572-13.4,12.7c-13.338,10.606-18.421,47.985,3.473,57.522,0,0-20.6-4.8-26.532-26.783C1085.286,430.183,1106.369,422.536,1127.136,406.744Z" fill="#93c2ee" fill-rule="evenodd"/>
              <path id="Trazado_199571" data-name="Trazado 199571" d="M1307.056,630.161s2.082,15.067,0,20.266a14.049,14.049,0,0,1-6.965-6.381Z" fill="#1d4fb1" fill-rule="evenodd"/>
              <path id="Trazado_199572" data-name="Trazado 199572" d="M1301.933,657.662s2.226,10.167-1.483,15.774l-7.954-7.887Z" fill-rule="evenodd" fill="url(#radial-gradient-2)"/>
              <path id="Trazado_199573" data-name="Trazado 199573" d="M996.847,790.185s-9.347,12.4-13.841,14.56c-1.6.766-17.975-1.977-21.031-1.258s-11.145,20.851-13.841,25.705S942.741,838,942.741,838s5.034,1.438,11.685-1.438,7.136-15.28,7.136-15.28,3.23-1.36,13,2,22.829,8.788,25.884,15.079c0,0,4.327-8.187,1.944-15.079s4.348-15.3,4.348-15.3Z" fill="url(#linear-gradient-2)"/>
              <path id="Trazado_199574" data-name="Trazado 199574" d="M928.065,841.878s11.235-89.935,24.716-137.12c0,0,101.651,16.447,152.341,29.389l-15.639,134.276Z" fill="#feca2e" fill-rule="evenodd"/>
              <path id="Trazado_199575" data-name="Trazado 199575" d="M946.041,704.758h6.74s-18.6,96.014-24.716,137.12l-4.557-1Z" fill-rule="evenodd" fill="url(#linear-gradient-3)"/>
              <path id="Trazado_199576" data-name="Trazado 199576" d="M954.227,846.18s4.917,7.211,6.67,8.559,6.471,1.483,6.471,1.483l2.561-2.022s7.415,1.752,10.785,1.078c0,0,2.831,3.82,5.8,3.281a6.09,6.09,0,0,0,5.663,3.325s5.179-3.583,6.617-11.582c0,0,.172-3.337-5.02-2.124l-3.3,4.269s4.314-8.9,4.224-15.009a5.976,5.976,0,0,0-5.033-5.3l.27-2.876s-4.584-1.977-7.1,0-4.584,7.37-4.584,7.37-3.955-.9-6.921.9l-2.966,1.8-5.752,8.269Z" fill="url(#linear-gradient-2)"/>
              <path id="Trazado_199577" data-name="Trazado 199577" d="M1287.328,557.944v13.639l19.054,16.021,15.639-1.259,6.83-2.516s6.516-9.347,7.056-11.235,0-6.066,0-6.066l-25.748-13.8Z" fill="#dd6668"/>
              <path id="Trazado_199578" data-name="Trazado 199578" d="M1288.587,556.417s5.931-18.246,6.83-24.357,6.092-26.964,8.259-30.828a7.082,7.082,0,0,1,6.481,3.281c2.427,3.775.18,21.435-5.64,29.659,0,0-2.179,10.956-1.91,18.555Z" fill="url(#linear-gradient-2)"/>
              <path id="Trazado_199579" data-name="Trazado 199579" d="M1187.96,535.862s-5.2,18.8-4.125,30.666l4.125,2.7s-12.582,29.344-31.474,35.815-31.475-1.258-24.644-18.874c0,0,18.155-6.65,21.57-13.3s3.074-22.29,3.074-22.29Z" fill="url(#linear-gradient-6)"/>
              <path id="Trazado_199580" data-name="Trazado 199580" d="M1155.24,567.022s21.016-.211,30.715-22.62l2.005-8.54-31.474,14.712S1156.246,563.186,1155.24,567.022Z" fill-rule="evenodd" fill="url(#linear-gradient-7)" style="mix-blend-mode: multiply;isolation: isolate"/>
              <path id="Trazado_199581" data-name="Trazado 199581" d="M1016.593,715.807V856l14.227,2.773,53.205-129.606Z" fill-rule="evenodd" opacity="0.49" fill="url(#linear-gradient-8)" style="mix-blend-mode: multiply;isolation: isolate"/>
              <path id="Trazado_199582" data-name="Trazado 199582" d="M1214.535,460.87s-1.013,38.266-15.7,62.188a48.292,48.292,0,0,1-5.867,7.916c-16.091,17.515-39.56,23.382-48.9,22.843s-11.864-3.6-15.1-6.471c-3.236-2.891-24.267-12.942-29.293-27.869-4.681-13.869,5.371-28.947,7.981-37.382a18.288,18.288,0,0,0,.453-1.811c1.445-7.895-2.7-26.769,0-41.523,2.7-14.733,23.706-34.923,44.327-36.023C1197.085,400.3,1214.535,460.87,1214.535,460.87Z" fill="url(#linear-gradient-2)"/>
              <path id="Trazado_199583" data-name="Trazado 199583" d="M1198.832,523.058c7.226-19.78-3.818-38.568-3.818-38.568-20.492,14.646-40.7,7.485-40.7,7.485-9.34-24.979-3.279-67.321-3.279-67.321-28.6-.691-38.654,18.248-38.654,18.248l7.765,8.542c7.744,13.654,8.823,28.948,6.989,34.771-1.812,5.846-8.261,10.225-11.626,9.75s-7.852-13.87-7.852-13.87a18.288,18.288,0,0,0,.453-1.811c1.445-7.895-2.7-26.769,0-41.523,2.7-14.733,23.706-34.923,44.327-36.023,44.651-2.437,62.1,58.132,62.1,58.132S1213.522,499.136,1198.832,523.058Z" fill-rule="evenodd" opacity="0.6" fill="url(#linear-gradient-10)" style="mix-blend-mode: multiply;isolation: isolate"/>
              <path id="Trazado_199584" data-name="Trazado 199584" d="M1211.225,488.319s3.3-5.511,13.369-7.669c0,0,7.19-1.078,9.168,7.37,0,0,.9,15.459-5.932,24.626s-18.874,9.707-21.75,8.988-2.7-7.3-2.7-7.3S1207.86,492.556,1211.225,488.319Z" fill="url(#linear-gradient-6)"/>
              <path id="Trazado_199585" data-name="Trazado 199585" d="M1273.128,646.742s18.334-26.064,19.054-33.614-11.325-18.694-13.976-27.187c-1.813-5.806,4.583-30.356,5.392-32.1s12-4.708,16.448-6.056,10.785-4.314,12.133-3.1-1.057,11.729-8.523,15.144c-6.9,3.158-10.935,2.876-10.935,2.876l-1.977,8.269s7.145,1.752,11.594,6.6,13.481,6.337,19.817,6.472,13.752-11.46,13.752-11.46-5.526,24.6-13.48,34.711c0,0-6.915,7.4-10.69,8.34,0,0-12.725,51.23-29.981,81.428Z" fill="url(#linear-gradient-2)"/>
              <path id="Trazado_199586" data-name="Trazado 199586" d="M1308.809,548.732a24.14,24.14,0,0,1,8.358,3.995v3.285s8.089,1.079,10.381,3.775v2.426a18.038,18.038,0,0,1,8.359,4.315s-2.966,10.245-8.359,13.886a12.449,12.449,0,0,1-7.01-2.832l-2.2,2.2s-6.6,1.079-6.92-4.16l2.157-7.434s-2.719,3.123-3.865,3.595-5.771-.9-6.041-4.494S1308.809,548.732,1308.809,548.732Z" fill="url(#linear-gradient-2)"/>
              <path id="Trazado_199587" data-name="Trazado 199587" d="M1133.052,596.194s4.232,11.546,26.766,1.455l-29.857,30.893-3.017-8.313Z" fill-rule="evenodd" fill="url(#radial-gradient-3)"/>
              <path id="Trazado_199588" data-name="Trazado 199588" d="M1198.811,577.976s-3.775,3.667-9.47,9.211c-4.788,4.637-10.914,10.59-17.321,16.8l-.108.108c-14.085,13.654-29.465,28.494-34.577,33.2-10.267,9.447-24.806,36.152-24.806,36.152s-9.987-15.919-11.475-22.649c-1.467-6.752,0-52.848,0-52.848a178.859,178.859,0,0,0,21.311-9.577c6.363-3.495,13.741-8,18.162-10.742,1.985-1.23,3.387-2.114,3.818-2.395a1.1,1.1,0,0,1,.13-.086l6.212.949c-2.718,3.236-13.223,7.679-13.223,7.679-7.83,12.145-5.133,36.454-5.133,36.454a231.467,231.467,0,0,0,23.188-18.529c12.015-10.914,31.514-33.067,31.514-33.067l-1.445-.884,2.372-.734,3.107,3.15.065.064,3.8,3.818Z" fill-rule="evenodd" fill="url(#radial-gradient-4)"/>
              <path id="Trazado_199589" data-name="Trazado 199589" d="M1120.135,655.507s-5.19-13.684-6.269-25.3,6.292-39.905,6.292-39.905l-16.178,44.751-3.578,20.456,6.993,20.355Z" fill-rule="evenodd" opacity="0.5" fill="url(#linear-gradient-14)" style="mix-blend-mode: multiply;isolation: isolate"/>
              <path id="Trazado_199590" data-name="Trazado 199590" d="M1263.327,991.847H1111.666c-3.17-13.806-5.91-27.179-8.045-38.309l-.863-4.53-.647-3.516-.13-.712-.259-1.445a.081.081,0,0,0-.021-.065,1.352,1.352,0,0,1-.043-.237c-1.618-8.714-2.654-14.992-3.064-17.343l8.154,66.157H1045.7a792.933,792.933,0,0,1-14.042-88.331c-1.834-17.558-2.869-33.3-3-45.1v-.065c-.107-8.347.238-14.689,1.079-18.313,5.026-21.7,22.649-47.692,35.03-76.1a183.841,183.841,0,0,0,11.325-36.346c.021-.043.021-.086.043-.129a162.24,162.24,0,0,0,2.847-19.241,34.467,34.467,0,0,1-3.127-3.689c-8.133-10.936-11.39-26.855-11.066-29.745.366-3.236,1.79-9.34,8.8-19.586s15.293-25,14.926-31.817c-.366-6.837-5.263-16.069-5.263-16.069s13.762-8.154,24.137-13.158c3.171-1.532,6.515-3.3,9.621-5.005l.021-.021c7.054-3.9,12.921-7.572,12.921-7.572h4.163l-.6.367c-.13.087-.259.151-.388.238-.13.064-.259.151-.41.237-.173.108-.367.237-.561.345-.97.6-2.157,1.359-3.365,2.135-.5.3-.992.6-1.488.928-1.6.992-3.193,1.984-4.444,2.783l-2.7,1.7a.337.337,0,0,1-.022.086,61.3,61.3,0,0,0-3.882,10.7c0,.021-.022.064-.022.086-3.041,10.526-6.061,25.3-8.024,36.734a141.24,141.24,0,0,0-2.114,16.049c-.021.043,0,.086,0,.129a6.3,6.3,0,0,0,.043.755c.022.173.065.367.108.561a1.106,1.106,0,0,0,.065.367c.215.992.539,2.221.906,3.537l.065.238c1.186,4.012,2.868,8.822,3.559,10.806a.8.8,0,0,1,.086.194v.022l.086.237.129.367v.043l.022.022v.043h.022v.022s11.669-18.616,19.931-29.229c2.718-3.451,9.361-10.181,17.213-17.9l.043-.043c16.135-15.811,37.274-35.7,39.581-39.927a25.176,25.176,0,0,0,2.525-7.269v-.043a28.878,28.878,0,0,0,.452-3.43V573.4a23.893,23.893,0,0,0,.13-3.235h3.818c2.7,1.337,9.706,2.567,17.946,4.314a33.924,33.924,0,0,1,10.376,4.249,30.76,30.76,0,0,1,4.033,2.825s-1.531,1.079-3.9,3.107a99.027,99.027,0,0,0-14,14.538q-.615.777-1.23,1.618v.021a74.886,74.886,0,0,0-6.557,10.462,61.5,61.5,0,0,0-2.739,6.061,67.658,67.658,0,0,0-4.379,21.657v.022a80.131,80.131,0,0,0,.216,9.038,68.393,68.393,0,0,0,1.768,10.828c.022.086.043.151.065.215l.065.2c-7.809,9.232-15.962,26.661-22.131,43.831v.043c-6.342,17.623-10.592,34.944-10.225,42.774.733,15.466,23.382,85.569,47.822,134.1C1228.578,912.942,1250.752,962.985,1263.327,991.847Z" fill="#ffedb6" fill-rule="evenodd"/>
              <path id="Trazado_199591" data-name="Trazado 199591" d="M1191.067,570.165s-4.221,8.191-25.7,29.981-31.655,35.542-31.655,35.542l-16.969-.63,17.381,1.191,53.837-45.827,7.155-16.839Z" fill-rule="evenodd" opacity="0.5" fill="url(#linear-gradient-14)" style="mix-blend-mode: multiply;isolation: isolate"/>
              <path id="Trazado_199592" data-name="Trazado 199592" d="M1302.24,673.447l-14.905,15.185c-7.01,19.09-35.052,52.847-37.575,52.847s-19.047-10.612-25.518-24.633-6.3-23.727-7.01-28.948c-.734-5.2-13.848-32.527-13.848-32.527l-6.838,3.947a58.913,58.913,0,0,1-3.387-14.9,67.367,67.367,0,0,1,5.652-35.419c12.122-26.423,28.429-27.438,28.429-27.438s3.107,2.265,3.473,3.344a50.337,50.337,0,0,1-.086,6.126l-.022.345c-.237,5.609-.582,13.676-.258,19.413.539,9.362,14.689,62.512,15.358,62.663a35.812,35.812,0,0,0,5.09-4.078c6.428-5.673,17.192-15.983,21.484-22.885.906-1.446,1.7-2.783,2.416-4.013a65.981,65.981,0,0,0,5.242-10.634l.021-.064,3.84-1.295-1.143,1.834c5.047,29.443,17.968,38.978,17.968,38.978,2.135-5.609,1.725-12.9,1.639-14.259C1303.427,663.524,1302.24,673.447,1302.24,673.447Z" fill="#ffedb6" fill-rule="evenodd"/>
              <path id="Trazado_199593" data-name="Trazado 199593" d="M1282.5,630.914l8.284-13.276s5.624,26.947,16.274,30.992l.1-16.4s1.917,12.224.974,19.1c0,0-11.593,15.721-11.449,15.9S1284.23,652.295,1282.5,630.914Z" fill-rule="evenodd" fill="url(#radial-gradient-5)"/>
              <path id="Trazado_199594" data-name="Trazado 199594" d="M1150.66,422.536s2.273,1.079,12.789,4.854,21.137,8.448,26.963,18.425c0,0-8.583-7.771-19.009-9.278s-15.728-2.334-17.526-3.583S1150.66,422.536,1150.66,422.536Z" fill="#93c2ee" fill-rule="evenodd"/>
              <path id="Trazado_199595" data-name="Trazado 199595" d="M1107.183,451.261s1.83-3.775,5.875-2.966,11.594,14.29,11.594,14.29-5.595-17.458-10.92-21.435c-3.832-2.862-6.549,2.426-6.549,2.426A9.647,9.647,0,0,0,1107.183,451.261Z" fill="#93c2ee" fill-rule="evenodd"/>
              <path id="Trazado_199596" data-name="Trazado 199596" d="M1159.973,487.85c2.759,3.27,27.987.463,32.086-9.6,4.43-10.875-5.8-26.807-19.818-24.023C1155.718,457.507,1151.974,478.368,1159.973,487.85Z" fill="url(#linear-gradient-16)"/>
              <path id="Trazado_199597" data-name="Trazado 199597" d="M1127.132,478.256a21.774,21.774,0,0,1-.237,3.645,18.81,18.81,0,0,1-2.438,6.9c-1.9,3.128-4.357,4.789-5.737,4.789-2.524,0-6.3.172-8.089-8.8-1.791-8.995-.345-22.045,4.875-24.267,1.9-.82,4.486.8,6.73,3.732a23.036,23.036,0,0,1,2.976,5.2A23.991,23.991,0,0,1,1127.132,478.256Z" fill="url(#linear-gradient-16)"/>
              <path id="Trazado_199598" data-name="Trazado 199598" d="M1118.518,499.12s.067,1.962,7.617,1.251,11.639-3.858,17.045-4.4c0,0,1.007,2.486-.193,4.4,0,0-3.389,3.068-6.224,5.453a30.34,30.34,0,0,1-3.456,2.663C1131.572,509.411,1117.417,506.625,1118.518,499.12Z" fill-rule="evenodd" opacity="0.6" fill="url(#linear-gradient-18)" style="mix-blend-mode: multiply;isolation: isolate"/>
              <path id="Trazado_199599" data-name="Trazado 199599" d="M1133.307,508.487s-13.729,1.938-16.947-6c-2.044-5.042,6.314-6.74,10.779-16.267,0,0-2.038,5.662-5.015,8.891-3.186,3.456-3.707,4.415-2.017,7.32C1123.181,507.718,1133.307,508.487,1133.307,508.487Z" fill="#dd6668" fill-rule="evenodd"/>
              <path id="Trazado_199600" data-name="Trazado 199600" d="M1134.857,502.8a9.429,9.429,0,0,1,7.935-2.958s-2.526.488-3.145,1.6S1136.767,504.631,1134.857,502.8Z" fill="#c44a4c" fill-rule="evenodd"/>
              <path id="Trazado_199601" data-name="Trazado 199601" d="M1140.83,407.131s1.138-26.987,13.157-26.987c10.75,0,17.311,10.45,27.287,16.112s38.287,16.448,45.118,25.435,12.223,38.773,0,58.977c0,0-11.248.31-18.207,14.706,0,0,4.006-19.217,1.31-30.9,0,0-11.278-2.258-22.243-18.695s-16.763-38.647-23.774-41.343-17.256-.9-22.648,4.494Z" fill="#bddcf6" fill-rule="evenodd"/>
              <path id="Trazado_199602" data-name="Trazado 199602" d="M1138.313,411.086s-4.622-3.888-11.177,1.7c0,0,4.854-6.176,6.847-18.5s18.533-17.4,27.491-12.059,16.533,55.913,37.445,76.536a77.479,77.479,0,0,1-24.655-33.387c-6.046-15.97-9.536-20.484-17.778-22.173S1138.313,411.086,1138.313,411.086Z" fill="#c4e4ff" fill-rule="evenodd"/>
              <path id="Trazado_199603" data-name="Trazado 199603" d="M1156.486,480.572s-2.984-13.766,8.745-21.808a17.648,17.648,0,0,1,27.825,12.763,14.127,14.127,0,0,0,7.5-7.459,18.351,18.351,0,0,1-5.087.6s-6.372-14.22-20.123-14.49S1153.089,466.832,1156.486,480.572Z" fill="#091743" fill-rule="evenodd"/>
              <path id="Trazado_199604" data-name="Trazado 199604" d="M1163.028,488.97s5.573,2.069,16.763.178a15.242,15.242,0,0,0,12.718-12.2S1188.866,489.335,1163.028,488.97Z" fill="#c44a4c" fill-rule="evenodd"/>
              <path id="Trazado_199605" data-name="Trazado 199605" d="M1111.135,486.875s.79,6.509,4.909,7.437,7.918-3.489,9.167-6.911c0,0-2.684,5.832-7.7,5.7C1113.134,492.981,1111.135,486.875,1111.135,486.875Z" fill="#c44a4c" fill-rule="evenodd"/>
              <path id="Trazado_199606" data-name="Trazado 199606" d="M1189,471.527a12.763,12.763,0,1,1-12.763-12.763A12.763,12.763,0,0,1,1189,471.527Z" fill-rule="evenodd" fill="url(#radial-gradient-6)"/>
              <path id="Trazado_199607" data-name="Trazado 199607" d="M1184.914,471.527a8.673,8.673,0,1,1-8.673-8.673A8.673,8.673,0,0,1,1184.914,471.527Z" fill="#091743" fill-rule="evenodd"/>
              <path id="Trazado_199608" data-name="Trazado 199608" d="M1127.132,478.256a21.774,21.774,0,0,1-.237,3.645,18.81,18.81,0,0,1-2.438,6.9,5.256,5.256,0,0,1-2.89.906c-4.335,0-7.83-5.716-7.83-12.748,0-7.054,3.495-12.77,7.83-12.77a3.526,3.526,0,0,1,.669.065,23.036,23.036,0,0,1,2.976,5.2A23.991,23.991,0,0,1,1127.132,478.256Z" fill-rule="evenodd" fill="url(#radial-gradient-7)"/>
              <path id="Trazado_199609" data-name="Trazado 199609" d="M1127.132,478.256a21.774,21.774,0,0,1-.237,3.645c-.949,2.265-2.545,3.732-4.357,3.732-2.955,0-5.328-3.882-5.328-8.671,0-4.81,2.373-8.693,5.328-8.693a3.888,3.888,0,0,1,2.674,1.187A23.991,23.991,0,0,1,1127.132,478.256Z" fill="#091743" fill-rule="evenodd"/>
              <path id="Trazado_199610" data-name="Trazado 199610" d="M1127.036,480.606s-2.907-18.929-9.485-18.021c-5.855.809-7.654,13.482-7.654,13.482s-3.221-.09-6.276-3.775a30.624,30.624,0,0,0,4.654-.988s2.039-11.362,7.053-13.482S1127.712,469.6,1127.036,480.606Z" fill="#091743" fill-rule="evenodd"/>
              <path id="Trazado_199611" data-name="Trazado 199611" d="M1121.079,519.392a8.4,8.4,0,0,1,4.132,2.506c1.508,1.888,1.834,4.314,5.8,4.943s18.891-.269,32.462-16.312a48.905,48.905,0,0,1-17.8,4.629c-9.347.359-15.94,2.418-18.6,3.6A12.23,12.23,0,0,1,1121.079,519.392Z" fill="url(#linear-gradient-19)"/>
              <path id="Trazado_199612" data-name="Trazado 199612" d="M1120.436,519.292a13.856,13.856,0,0,0,4.775,0c2.766-.45,3.188-4.036,10.765-4.844s16.537-.189,21.211-1.358a13.579,13.579,0,0,0,7.01-4.134h1.169s-3.056,3.6-12.942,6.471-25.177,4.64-28.008,4.505-4.281-.27-4.281-.27Z" fill="url(#linear-gradient-20)"/>
              <path id="Trazado_199613" data-name="Trazado 199613" d="M1160.647,508.138s6.381,1.292,9.437,3.05c0,0-2.157-4.555-4.853-5S1160.647,508.138,1160.647,508.138Z" fill-rule="evenodd" opacity="0.6" fill="url(#linear-gradient-21)" style="mix-blend-mode: multiply;isolation: isolate"/>
              <path id="Trazado_199614" data-name="Trazado 199614" d="M1122.173,517.14s-3,2.424-3,4.717c0,0,1.618-3.009,4.4-3.728Z" fill-rule="evenodd" opacity="0.6" fill="url(#linear-gradient-22)" style="mix-blend-mode: multiply;isolation: isolate"/>
              <path id="Trazado_199615" data-name="Trazado 199615" d="M1166.938,477.954a2.2,2.2,0,1,1-2.2-2.2A2.2,2.2,0,0,1,1166.938,477.954Z" fill="#fff" fill-rule="evenodd"/>
              <path id="Trazado_199616" data-name="Trazado 199616" d="M1117.534,484.214a2.2,2.2,0,1,1-2.47-1.9A2.2,2.2,0,0,1,1117.534,484.214Z" fill="#fff" fill-rule="evenodd"/>
              <path id="Trazado_199617" data-name="Trazado 199617" d="M1207.4,503.529s9.648-12.535,18.995-14.381a15.8,15.8,0,0,1,3.415,10.637s-1.471-6.519-4.224-7.99a11.8,11.8,0,0,0-2.479.989C1220.461,494.072,1215.517,496.993,1207.4,503.529Z" fill="#dd6668" fill-rule="evenodd"/>
              <path id="Trazado_199618" data-name="Trazado 199618" d="M1216.056,496.338s6.876-.355,8.426,0,2.494,8.982,0,12.319-5.685,1.181-9.954.979a19.5,19.5,0,0,0-7.131.871s-1.915-4.693,0-6.978S1216.056,496.338,1216.056,496.338Z" fill="#dd6668" fill-rule="evenodd"/>
              <path id="Trazado_199619" data-name="Trazado 199619" d="M1163.478,384.2s26.548,40.059,43.068,53.561,23.285,10.806,23.285,10.806-11.618,23.293-29.279,11.421S1172.687,397.5,1163.478,384.2Z" fill="#93c2ee" fill-rule="evenodd"/>
              <path id="Trazado_199620" data-name="Trazado 199620" d="M1167.568,385.81s6.1,15.39,22.844,28.332,38.908,12.92,38.908,12.92a15.685,15.685,0,0,0-2.332-4.526s-29.593-6.924-42.074-17.382-15.413-17.8-15.413-17.8Z" fill="#93c2ee" fill-rule="evenodd"/>
              <path id="Trazado_199621" data-name="Trazado 199621" d="M1153.987,380.144s8.4-3.1,16.549,19.473,14.6,51.209,30.016,60.369,25.467-5.641,25.467-5.641-9.221,13.224-27.1.6C1180.375,441.853,1179.728,380.12,1153.987,380.144Z" fill="#e8f5ff" fill-rule="evenodd"/>
              <path id="Trazado_199622" data-name="Trazado 199622" d="M1133.307,406.744s-2.831-19.983,10.524-24.537,20.566,3.837,23.107,17.914,6.229,22.415,6.229,22.415a139.523,139.523,0,0,1-8.34-22.774c-4.03-14.243-16.313-18.56-24-12.763S1133.307,406.744,1133.307,406.744Z" fill="#93c2ee" fill-rule="evenodd"/>
              <path id="Trazado_199623" data-name="Trazado 199623" d="M1246.783,437.769s13.537,11.311,3.149,76.679,14.809,89.453,16.006,114.094-22.653,37.007-22.653,37.007l-1.112-4.038s19.544-8.124,18.372-32.969-22-52.31-18.726-95.4S1257.309,471.527,1246.783,437.769Z" fill="#c4e4ff" fill-rule="evenodd"/>
              <path id="Trazado_199624" data-name="Trazado 199624" d="M1065.6,843.968v10.389s-24.063,2.607-28.671,1.258-6.111-10.479-6.111-10.479l2.913-11.12s3.213,8.731,5.722,9.952S1065.6,843.968,1065.6,843.968Z" fill-rule="evenodd" fill="url(#radial-gradient-8)"/>
              <path id="Trazado_199625" data-name="Trazado 199625" d="M1149.6,652.1s13.474,3.271,19,3.405,15.369-7.145,15.369-7.145l-27.781.385Z" fill-rule="evenodd" opacity="0.5" fill="url(#linear-gradient-23)" style="mix-blend-mode: multiply;isolation: isolate"/>
              <path id="Trazado_199626" data-name="Trazado 199626" d="M1111.192,671.268v.022l-.065.15c-.151.3-.5,1.014-.992,2.049-1.3,2.762-3.624,7.723-6.018,13.029v.022c-.648,1.466-1.316,2.955-1.985,4.422-.043.107-.064.172-.086.215v.065h-.022v.022c-.733,1.639-1.423,3.257-2.071,4.767-.064.15-.129.3-.172.431-1.424,3.343-2.546,6.256-3.128,8.089-.021.129-.043.216-.043.216-.194.69-.474,1.876-.8,3.451-.949,4.637-2.394,12.813-3.969,22.713-.216,1.338-.431,2.7-.625,4.077a7.954,7.954,0,0,1-.13.8c-.022.044-.022.087-.043.13v.151c-3.408,21.872-7.2,50.086-8.455,68.486-.885,12.92,1.6,35.289,4.853,57.269l.043.324c.3,2.027.6,4.055.927,6.082,4.185,27.028,9.125,51.9,9.923,55.825l.065.323.043.237.086.626.064.431,8.154,66.157h-3.516c-3.279-13.245-7.334-30.5-11.216-49.181,0-.065-.022-.129-.022-.173-5.112-24.7-9.922-51.876-12.144-75.668-.6-6.3-1.014-12.338-1.208-18.033-1.38-40.639,5.716-88.956,10.979-118.357,1.791-9.987,3.365-17.795,4.315-22.368.6-2.934.97-4.53.97-4.53l1.877-7.442,1.941-7.593c.5-1.962.971-3.882,1.424-5.737h.021c.259-1.036.518-2.071.755-3.063v-.022c1.208-4.745,2.287-8.995,3.171-12.468v-.021c.022-.086.043-.151.065-.237l.065-.3v-.022l.215-.755c.345-1.424.669-2.674.949-3.774l.173-.756h.021c.13-.517.238-.992.346-1.4.086-.367.172-.691.237-.971.258-1.036.41-1.6.41-1.6l.647,1.919.065.238,3.58,10.785.065.215v.022l.086.237.129.367v.043l.022.022v.043Z" fill-rule="evenodd" opacity="0.5" fill="url(#linear-gradient)" style="mix-blend-mode: multiply;isolation: isolate"/>
              <path id="Trazado_199627" data-name="Trazado 199627" d="M1111.2,671.279s-13.155,26.8-14.588,33.479-5.573,31.329-5.573,31.329,2.647-27.66,7.248-45.887l8.284-32.817Z" fill-rule="evenodd" opacity="0.5" fill="url(#linear-gradient-25)" style="mix-blend-mode: multiply;isolation: isolate"/>
              <path id="Trazado_199628" data-name="Trazado 199628" d="M1101.722,943.335c.755,3.085,6.191,25.194,12.36,48.512h-2.416c-3.17-13.806-5.91-27.179-8.045-38.309l-.863-4.53-.647-3.516-.13-.712Z" fill-rule="evenodd" opacity="0.5" fill="url(#linear-gradient-25)" style="mix-blend-mode: multiply;isolation: isolate"/>
              <path id="Trazado_199629" data-name="Trazado 199629" d="M1183.28,991.847c2.006-42-5.414-83.025-5.414-83.025l-35.246-3.6c28.408,1.078,42.1-3.451,42.1-3.451l-8.046-44.974-15.832-9.082h-31.515s.41-.237,1.144-.625L1158,832.2s-3.97-19.629-3.689-33.93-1.877-81.795-1.877-81.795c-4.81-3.473-35.828-8.628-37.769-8.951,9.706,3.667,23.49,11,24.331,11.453-1.381-.41-32.873-9.814-43.076-10.742a.2.2,0,0,0-.108-.021c-.388-.044-.755-.065-1.122-.087-.259-.021-.517-.042-.754-.064a79.292,79.292,0,0,0-14.949.151,34.467,34.467,0,0,1-3.127-3.689c-8.133-10.936-11.39-26.855-11.066-29.745,2.179,8.477,10.634,13.891,18.529,17.17a77.245,77.245,0,0,0,13.46,4.141.36.36,0,0,1,.151.022c.97.194,1.51.28,1.51.28s.28.022.8.043a2.185,2.185,0,0,1,.367.022h.172c2.8.129,9.836.453,17.925.647.065,0,.129.022.216.022,13.546.323,30,.345,34.922-1.295,8.585-2.89,38.546-47.346,39.884-49.288a.169.169,0,0,0,.021-.064l.41-2.071c.043.539.108,1.1.194,1.661.043.345.108.69.151,1.035a12.4,12.4,0,0,0,.194,1.229,81.941,81.941,0,0,0,2.783,10.785l.065.2c-7.809,9.232-15.962,26.682-22.131,43.852v.022c-6.342,17.623-10.592,34.944-10.225,42.774.733,15.466,23.382,85.569,47.822,134.1,16.566,32.873,38.74,82.916,51.315,111.778Z" fill-rule="evenodd" opacity="0.5" fill="url(#linear-gradient-25)" style="mix-blend-mode: multiply;isolation: isolate"/>
              <path id="Trazado_199630" data-name="Trazado 199630" d="M1302.24,673.447l-14.905,15.185c-7.01,19.09-35.052,52.847-37.575,52.847s-19.047-10.612-25.518-24.633-6.3-23.727-7.01-28.948c-.734-5.2-13.848-32.527-13.848-32.527l-6.838,3.947a58.913,58.913,0,0,1-3.387-14.9c2.092-9.75,12.317-50.885,37.468-53.991v.6l-.022.345-.258,19.413s-18.594,21.679-18.335,31.644,17.256,43.141,17.256,43.141,10.03-6.881,16.437-12.122a35.812,35.812,0,0,0,5.09-4.078c-3.775,6.644-7.7,14.668-9.318,21.593-3.581,15.1,2.524,22.2,2.524,22.2s34.975-8.4,38.5-62.64a48.88,48.88,0,0,1-2.545-18.744l3.84-1.295-1.143,1.834c5.047,29.443,17.968,38.978,17.968,38.978,2.135-5.609,1.725-12.9,1.639-14.259C1303.427,663.524,1302.24,673.447,1302.24,673.447Z" fill-rule="evenodd" opacity="0.5" fill="url(#linear-gradient-14)" style="mix-blend-mode: multiply;isolation: isolate"/>
              <path id="Trazado_199631" data-name="Trazado 199631" d="M1250.8,669.369l-5.09,4.078s-17.163,10.686-18.954,17.815c-2.2,8.768,4.135,21.893,4.135,21.893s1.438-17.7,5.572-24.71S1250.8,669.369,1250.8,669.369Z" fill-rule="evenodd" opacity="0.5" fill="url(#linear-gradient-14)" style="mix-blend-mode: multiply;isolation: isolate"/>
              <path id="Trazado_199632" data-name="Trazado 199632" d="M1302.24,673.447l-14.905,15.185s-11.756-21.376-12.64-46.161v-.043l5.242-10.591.021-.064,2.7.539c5.047,29.443,17.968,38.978,17.968,38.978,2.135-5.609,1.725-12.9,1.639-14.259C1303.427,663.524,1302.24,673.447,1302.24,673.447Z" fill-rule="evenodd" fill="url(#radial-gradient-9)"/>
              <path id="Trazado_199633" data-name="Trazado 199633" d="M1106.424,991.847h-3.688c-4.573-17.774-8.067-34.233-10.72-49.181,0-.065-.022-.129-.022-.173a496.786,496.786,0,0,1-7.873-74.957,222,222,0,0,1,.388-22.411l2.934,16.717.043.324,1.078,6.1,9.772,55.8.065.323.043.237.086.626Z" fill-rule="evenodd" opacity="0.5" fill="url(#linear-gradient-14)" style="mix-blend-mode: multiply;isolation: isolate"/>
              <path id="Trazado_199634" data-name="Trazado 199634" d="M1054.543,855.374l5.4,51.291-20.484,4.314-7.81-7.5,7.81,9.922,25.315-4.314.831-54.735Z" fill-rule="evenodd" opacity="0.5" fill="url(#linear-gradient)" style="mix-blend-mode: multiply;isolation: isolate"/>
              <path id="Trazado_199635" data-name="Trazado 199635" d="M1129.325,847.706s26.2-14.65,31.727-16.941,21.031-4.719,21.031-4.719-4.853,17.165-9.437,18.964S1129.325,847.706,1129.325,847.706Z" fill-rule="evenodd" opacity="0.3" fill="url(#linear-gradient-25)" style="mix-blend-mode: multiply;isolation: isolate"/>
              <path id="Trazado_199636" data-name="Trazado 199636" d="M1129.325,847.706l4.8,14.185s35.018-2.68,42.567-5.107,9.976-14.906,9.976-14.906l-4.583-15.832s-6.2,15.216-8.359,15.832S1129.325,847.706,1129.325,847.706Z" fill-rule="evenodd" fill="url(#radial-gradient-10)"/>
              <path id="Trazado_199637" data-name="Trazado 199637" d="M1096.61,704.758s1.824-8.722,3.165-8.721c3.854.107,55.794,3.553,55.794,3.553s-33.456,8.326-40.9,7.938A135.576,135.576,0,0,1,1096.61,704.758Z" fill-rule="evenodd" opacity="0.5" fill="url(#linear-gradient-25)" style="mix-blend-mode: multiply;isolation: isolate"/>
              <path id="Trazado_199638" data-name="Trazado 199638" d="M1150.687,576.1c-2.718,3.236-13.223,7.679-13.223,7.679-7.83,12.145-5.133,36.454-5.133,36.454l-15.6,14.819,10.2-14.819s1.489-23.468,5.436-32.442a25.986,25.986,0,0,1,8.153-10.159,21.594,21.594,0,0,1,3.818-2.395,1.1,1.1,0,0,1,.13-.086Z" fill-rule="evenodd" opacity="0.5" fill="url(#linear-gradient-14)" style="mix-blend-mode: multiply;isolation: isolate"/>
              <path id="Trazado_199639" data-name="Trazado 199639" d="M1101.117,610.792l-9,1.576s9.887,10.737,11.505,16.174c0,0-13.662,8.853-20.133,19.818,0,0,6.354,27.438,20.613,37.9V646.484l7.761-39.179Z" fill-rule="evenodd" opacity="0.5" fill="url(#linear-gradient)" style="mix-blend-mode: multiply;isolation: isolate"/>
              <path id="Trazado_199640" data-name="Trazado 199640" d="M1195.115,586.885l14.74,12.762s-18.874,13.122-32.715,15.459c0,0,7.729,17.975,8.628,24.626,0,0-43.955,22.346-56.4,28.85a128.913,128.913,0,0,0-20.716,13.392l43.5-53.432Z" fill-rule="evenodd" opacity="0.5" fill="url(#linear-gradient)" style="mix-blend-mode: multiply;isolation: isolate"/>
              <path id="Trazado_199641" data-name="Trazado 199641" d="M1105.122,688.445S1090.6,662.31,1089.6,633.261c0,0,11.324-9.617,18.065-13.032,0,0-4.718-8.467-14.56-10.7,0,0,17.907-14.628,23.918-20.391s11.4-10.211,11.4-10.211l5.7,2.619-13.965,8.75s-13.9,51.137-14.171,60.574,5.211,20.4,5.211,20.4Z" fill="#ffedb6" fill-rule="evenodd"/>
              <path id="Trazado_199642" data-name="Trazado 199642" d="M1102.017,691.262s9.333-26.365,22.994-43.98,61.87-65.244,63.762-68.351,2.294-8.766,2.294-8.766l-1.2-1.218,3.634-1.206s9.707,18.784,18.515,27.053a298.546,298.546,0,0,1-35.771,14.38s10.683,13.976,12.532,24.514c0,0-33.743,15.815-52.258,27.83s-25.157,17.734-26.235,19.172S1102.017,691.262,1102.017,691.262Z" fill="#ffedb6" fill-rule="evenodd"/>
              <path id="Trazado_199643" data-name="Trazado 199643" d="M1160.854,654.494l17.724-33.756s2.561,8.344,1.887,13.871-14.695,33.973-14.695,33.973l-2.426-1.078,3.441-12.123S1163.127,654.924,1160.854,654.494Z" fill-rule="evenodd" fill="url(#radial-gradient-11)"/>
              <path id="Trazado_199644" data-name="Trazado 199644" d="M1317.167,552.727s-1.843,9.428-3.595,15.463l4.77-11.989-1.175-.189Z" fill="#dd6668" fill-rule="evenodd"/>
              <path id="Trazado_199645" data-name="Trazado 199645" d="M1327.548,559.787a168.8,168.8,0,0,1-7.01,17.795,153.153,153.153,0,0,0,8.553-14.959l-1.543-.41Z" fill="#dd6668" fill-rule="evenodd"/>
              <path id="Trazado_199646" data-name="Trazado 199646" d="M969.929,854.2s6.831-9.819,8.314-17.571c0,0-1.238,9.968-5.944,18.061Z" fill="#dd6668" fill-rule="evenodd"/>
              <path id="Trazado_199647" data-name="Trazado 199647" d="M989.657,832.135s-2.966,13.01-8.943,23.143c0,0,8.229-11.749,10.193-22.782Z" fill="#dd6668" fill-rule="evenodd"/>
              <path id="Trazado_199648" data-name="Trazado 199648" d="M990.466,852.447l-3.955,6.112s5.667-1.932,7.26-10.381Z" fill="#dd6668" fill-rule="evenodd"/>
              <path id="Trazado_199649" data-name="Trazado 199649" d="M1290.853,607.281s14.375-.354,20.884,8.364l-3.341,12.323s-7.873-14.964-16.537-17.958Z" opacity="0.6" fill="url(#linear-gradient-21)" style="mix-blend-mode: multiply;isolation: isolate"/>
              <path id="Trazado_199650" data-name="Trazado 199650" d="M1203.384,655.371l-10.635-8.887s-16.03,35.5-18.336,56.7c6.712-18.041,13.184-30.984,22.133-43.87Z" fill-rule="evenodd" opacity="0.5" fill="url(#linear-gradient-38)" style="mix-blend-mode: multiply;isolation: isolate"/>
            </g>
          </g>
        </g>
      </g>
    </g>
  </g>
</svg>
