<svg xmlns="http://www.w3.org/2000/svg" width="167.41" height="138.87" viewBox="0 0 167.41 138.87">
  <g id="Grupo_153192" data-name="Grupo 153192" transform="translate(-728.948 -37.499)">
    <g id="Grupo_153166" data-name="Grupo 153166">
      <g id="Grupo_153165" data-name="Grupo 153165">
        <path id="Trazado_204615" data-name="Trazado 204615" d="M812.983,74.144l-24.07-35.8-24.07,35.8h13.55v70.922h21.039V74.144Z" fill="#feca2e"/>
        <path id="Trazado_204616" data-name="Trazado 204616" d="M799.433,145.935h-21.04a.871.871,0,0,1-.87-.87V75.013h-12.68a.87.87,0,0,1-.722-1.355l24.07-35.8a.9.9,0,0,1,1.444,0l24.07,35.8a.87.87,0,0,1-.722,1.355H800.3v70.052A.871.871,0,0,1,799.433,145.935Zm-20.17-1.74h19.3V74.143a.87.87,0,0,1,.87-.87H811.35L788.913,39.9,766.476,73.273h11.917a.87.87,0,0,1,.87.87Z"/>
      </g>
    </g>
    <g id="Grupo_153168" data-name="Grupo 153168">
      <g id="Grupo_153167" data-name="Grupo 153167">
        <path id="Trazado_204617" data-name="Trazado 204617" d="M766.228,98.321l-13.92-18.766-13.92,18.766h7.836V135.5h12.167V98.321Z" fill="#fff"/>
        <path id="Trazado_204618" data-name="Trazado 204618" d="M758.392,136.369H746.224a.871.871,0,0,1-.87-.87V99.19h-6.966a.869.869,0,0,1-.7-1.388l13.92-18.766a.9.9,0,0,1,1.4,0L766.927,97.8a.87.87,0,0,1-.7,1.388h-6.966V135.5A.871.871,0,0,1,758.392,136.369Zm-11.3-1.74h10.428V98.32a.87.87,0,0,1,.87-.87H764.5L752.308,81.014,740.117,97.45h6.107a.87.87,0,0,1,.87.87Z"/>
      </g>
    </g>
    <g id="Grupo_153171" data-name="Grupo 153171">
      <g id="Grupo_153169" data-name="Grupo 153169">
        <path id="Trazado_204619" data-name="Trazado 204619" d="M751.76,173.372l70.961.789c6.49.072,13.059.136,19.371-1.38s12.441-4.8,16.08-10.174,4.242-13.042.374-18.255c-3.114-4.2-8.629-6.2-13.844-5.865s-7.221,1.617-11.307,4.876c.931-2.972,1.567-4.58,1.316-8.142a16.8,16.8,0,0,0-4.362-9.58,24.7,24.7,0,0,0-43.073,12.348c-2.379-9.167-13.908-14.327-22.677-10.749s-13.477,14.424-10.961,23.555c-2.065-3.954-7.077-5.818-11.453-4.956s-8.048,4.029-10.375,7.834a11.162,11.162,0,0,0-1.943,6.936c.464,4.01,4.061,6.9,7.66,8.727A39.38,39.38,0,0,0,751.76,173.372Z" fill="#fff"/>
        <path id="Trazado_204620" data-name="Trazado 204620" d="M826.842,175.061c-1.384,0-2.762-.015-4.131-.031l-70.96-.788h0a40.043,40.043,0,0,1-14.618-4.13c-3.413-1.735-7.595-4.774-8.13-9.4a11.865,11.865,0,0,1,2.064-7.49c2.685-4.391,6.676-7.392,10.95-8.234a12.081,12.081,0,0,1,10.149,2.59c-.846-8.868,4.1-17.877,12.1-21.141a18.38,18.38,0,0,1,14.948.862,17.333,17.333,0,0,1,7.84,7.647,25.561,25.561,0,0,1,43.949-9.871,17.785,17.785,0,0,1,4.571,10.088,15.769,15.769,0,0,1-.547,5.844,15.74,15.74,0,0,1,9.615-3.385c5.874-.383,11.47,2,14.6,6.215,3.844,5.18,3.7,13.28-.353,19.261-3.413,5.042-9.307,8.782-16.6,10.532A65.93,65.93,0,0,1,826.842,175.061ZM751.77,172.5l70.96.789c6.35.071,12.913.144,19.159-1.356,6.866-1.648,12.393-5.134,15.562-9.816,3.648-5.389,3.815-12.643.4-17.248-2.781-3.747-7.792-5.86-13.089-5.516-4.942.321-6.793,1.475-10.821,4.688a.87.87,0,0,1-1.373-.94l.227-.718a15.114,15.114,0,0,0-3.1-16.174,23.829,23.829,0,0,0-41.555,11.913.87.87,0,0,1-1.7.084,14.931,14.931,0,0,0-8-9.357,16.625,16.625,0,0,0-13.511-.806c-8.115,3.311-12.9,13.623-10.451,22.518a.87.87,0,0,1-1.61.634c-1.775-3.4-6.3-5.337-10.513-4.5-3.8.748-7.369,3.457-9.8,7.434a10.2,10.2,0,0,0-1.821,6.382c.447,3.862,4.157,6.51,7.19,8.052A38.712,38.712,0,0,0,751.77,172.5Z"/>
      </g>
      <g id="Grupo_153170" data-name="Grupo 153170" opacity="0.129">
        <path id="Trazado_204621" data-name="Trazado 204621" d="M850.942,166.448l-.09.042a38.682,38.682,0,0,1-4.97,1.224c-4.135.884-11.353.711-17.107.849-2.667.011-5.331.3-8,.118-3.878-.336-7.769-.212-11.656-.264-7.316-.137-14.633-.253-21.95-.185-4.625.041-9.244.382-13.866.075-4.709-.176-9.419-.125-14.128-.18-3.048-.256-6.1-.242-9.155-.394a75.01,75.01,0,0,1-7.415-1.435c-1.35-.3-2.717-.513-4.064-.825a2.937,2.937,0,0,0-2.378.031,2.1,2.1,0,0,0,.5,3.8c4,.819,7.909,1.948,11.785,2.711a44.141,44.141,0,0,0,6.285.359c2.056.111,4.1.361,6.165.357,5.538-.015,11.075.156,16.609.348,3.566-.024,7.128-.226,10.693-.283a1.556,1.556,0,0,0,1.505,1.9c7.947-.169,15.895-.357,23.843-.5a169.768,169.768,0,0,0,17.137.008,71.776,71.776,0,0,0,9.972-.8,16.869,16.869,0,0,0,2.721-.8,2.021,2.021,0,0,0,1.362-1c3.723-.533,8.07-1.571,9.014-3.578C854.1,166.274,852.318,165.485,850.942,166.448Z"/>
      </g>
    </g>
    <g id="Grupo_153190" data-name="Grupo 153190">
      <g id="Grupo_153186" data-name="Grupo 153186">
        <g id="Grupo_153172" data-name="Grupo 153172">
          <path id="Trazado_204622" data-name="Trazado 204622" d="M856.353,145.64l18.223,17.928a119.86,119.86,0,0,0,9.921,9.057c1.885,1.477,3.983,2.873,6.277,2.874a4.75,4.75,0,0,0,4.714-4.526c-.013-2.022-1.41-3.647-2.718-5.027q-14.508-15.3-30.279-28.971C860.567,139.795,858.643,142.614,856.353,145.64Z" fill="#fff"/>
          <path id="Trazado_204623" data-name="Trazado 204623" d="M890.777,176.369h0c-2.558,0-4.786-1.471-6.813-3.059a121.164,121.164,0,0,1-9.995-9.122L855.743,146.26a.87.87,0,0,1-.084-1.145c2.27-3,4.215-5.85,6.1-8.605a.905.905,0,0,1,.616-.385.873.873,0,0,1,.69.193c10.478,9.08,20.686,18.847,30.34,29.029,1.423,1.5,2.942,3.295,2.957,5.621a5.152,5.152,0,0,1-1.549,3.67A5.834,5.834,0,0,1,890.777,176.369Zm-33.271-30.815,17.68,17.393a119.844,119.844,0,0,0,9.847,8.994c1.782,1.4,3.711,2.687,5.742,2.688h0a4.053,4.053,0,0,0,2.8-1.218,3.419,3.419,0,0,0,1.044-2.432c-.011-1.691-1.231-3.118-2.479-4.434-9.389-9.9-19.3-19.411-29.48-28.272C861.051,140.626,859.39,143.034,857.506,145.554Z"/>
        </g>
        <g id="Grupo_153174" data-name="Grupo 153174">
          <g id="Grupo_153173" data-name="Grupo 153173">
            <path id="Trazado_204624" data-name="Trazado 204624" d="M832.648,79.555a37.883,37.883,0,1,0,37.883,37.882A37.882,37.882,0,0,0,832.648,79.555Zm0,66.654a28.772,28.772,0,1,1,28.772-28.772A28.772,28.772,0,0,1,832.648,146.209Zm0,0a28.772,28.772,0,1,1,28.772-28.772A28.772,28.772,0,0,1,832.648,146.209Z" fill="#fff"/>
            <path id="Trazado_204625" data-name="Trazado 204625" d="M832.648,156.19A38.753,38.753,0,1,1,871.4,117.437,38.8,38.8,0,0,1,832.648,156.19Zm0-75.766a37.013,37.013,0,1,0,37.013,37.013A37.055,37.055,0,0,0,832.648,80.424Zm0,66.655a29.642,29.642,0,1,1,29.642-29.642A29.675,29.675,0,0,1,832.648,147.079Zm-27.9-29.642a27.9,27.9,0,1,0,27.9-27.9A27.935,27.935,0,0,0,804.746,117.437Z"/>
          </g>
        </g>
        <g id="Grupo_153175" data-name="Grupo 153175">
          <path id="Trazado_204626" data-name="Trazado 204626" d="M861.238,146.726a.277.277,0,0,1-.08-.012.289.289,0,0,1-.2-.358l.667-2.333a.29.29,0,0,1,.558.16l-.667,2.332A.291.291,0,0,1,861.238,146.726Z"/>
        </g>
        <g id="Grupo_153176" data-name="Grupo 153176">
          <path id="Trazado_204627" data-name="Trazado 204627" d="M864.425,150.81a.248.248,0,0,1-.038,0,.291.291,0,0,1-.25-.325c.356-2.723.786-5.477,1.278-8.185a.29.29,0,0,1,.571.1c-.491,2.7-.919,5.442-1.274,8.156A.289.289,0,0,1,864.425,150.81Z"/>
        </g>
        <g id="Grupo_153177" data-name="Grupo 153177">
          <path id="Trazado_204628" data-name="Trazado 204628" d="M868.563,154.775a.29.29,0,0,1-.29-.29c0-1.365.21-3.653.4-5.672.113-1.231.21-2.294.244-2.963a.277.277,0,0,1,.3-.274.29.29,0,0,1,.275.3c-.034.68-.132,1.748-.245,2.985-.184,2.007-.393,4.282-.393,5.62A.29.29,0,0,1,868.563,154.775Z"/>
        </g>
        <g id="Grupo_153178" data-name="Grupo 153178">
          <path id="Trazado_204629" data-name="Trazado 204629" d="M872.8,158.681a.29.29,0,0,1-.29-.284l-.219-9.675a.292.292,0,0,1,.284-.3h.006a.289.289,0,0,1,.29.283l.219,9.676a.292.292,0,0,1-.284.3Z"/>
        </g>
        <g id="Grupo_153179" data-name="Grupo 153179">
          <path id="Trazado_204630" data-name="Trazado 204630" d="M876.832,162.96a.291.291,0,0,1-.29-.279l-.379-10.132a.29.29,0,0,1,.279-.3.284.284,0,0,1,.3.279l.379,10.133a.29.29,0,0,1-.279.3Z"/>
        </g>
        <g id="Grupo_153180" data-name="Grupo 153180">
          <path id="Trazado_204631" data-name="Trazado 204631" d="M880.935,166.567a.29.29,0,0,1-.29-.274l-.512-9.465a.29.29,0,0,1,.274-.305.287.287,0,0,1,.3.274l.513,9.464a.291.291,0,0,1-.274.306Z"/>
        </g>
        <g id="Grupo_153181" data-name="Grupo 153181">
          <path id="Trazado_204632" data-name="Trazado 204632" d="M885,169.9a.291.291,0,0,1-.289-.268L884,160.419a.289.289,0,0,1,.267-.311.28.28,0,0,1,.312.267l.71,9.215a.288.288,0,0,1-.266.31Z"/>
        </g>
        <g id="Grupo_153182" data-name="Grupo 153182">
          <path id="Trazado_204633" data-name="Trazado 204633" d="M888.844,172.9a.289.289,0,0,1-.288-.26l-.831-8.082a.29.29,0,0,1,.577-.058l.831,8.081a.291.291,0,0,1-.259.318Z"/>
        </g>
        <g id="Grupo_153183" data-name="Grupo 153183">
          <path id="Trazado_204634" data-name="Trazado 204634" d="M892.61,172.467a.29.29,0,0,1-.286-.243l-.584-3.611a.29.29,0,0,1,.573-.093l.583,3.611a.288.288,0,0,1-.24.332A.238.238,0,0,1,892.61,172.467Z"/>
        </g>
        <g id="Grupo_153184" data-name="Grupo 153184" opacity="0.129">
          <path id="Trazado_204635" data-name="Trazado 204635" d="M859.449,126.6c-.952.8-1.392,2.1-2.2,3.051a39.062,39.062,0,0,1-3.191,3.506c-.951.849-1.862,1.6-2.791,2.3a1.442,1.442,0,0,0-.486.192c-4.736,3.427-8.295,4.678-14.285,5.781A23.062,23.062,0,0,1,825.9,141.3c-3.137-.73-4.651-1.589-7.927-3.8a41.843,41.843,0,0,1-6.6-6.255l0,0a25.216,25.216,0,0,1-3.509-7.044c-.471-1.268-.825-2.57-1.2-3.869a10.793,10.793,0,0,1-.717-3.926c-.345-.967-.664-1.944-.949-2.931a1.853,1.853,0,0,0-.9-.167,45.984,45.984,0,0,0,.061,11.739c.851,3.369,1.9,7.024,5.13,10.652a33.694,33.694,0,0,0,5.508,4.782,31.163,31.163,0,0,0,8.463,4.6,31.723,31.723,0,0,0,5.165.9l.029.006a19.634,19.634,0,0,0,5.712.138,24.75,24.75,0,0,0,4.365-.947,37.742,37.742,0,0,0,8.7-3.089,22.663,22.663,0,0,0,2.01-1.34,42.823,42.823,0,0,0,8.581-7.013c.461-.953.906-1.911,1.324-2.879.522-1.449,1.047-2.9,1.561-4.348A1.438,1.438,0,0,0,859.449,126.6Z"/>
        </g>
        <g id="Grupo_153185" data-name="Grupo 153185" opacity="0.129">
          <path id="Trazado_204636" data-name="Trazado 204636" d="M865.626,138.964c-1.442-.415-2.406.588-3.117,1.688l-.1.115c-1.259,1.469-1.615,1.345-3.69,3.223l-.026.021a3.361,3.361,0,0,0-1.159.937,2.342,2.342,0,0,0-.378,2.425,2.166,2.166,0,0,0-1.686.782,9.953,9.953,0,0,1-1.65,1.215,37.2,37.2,0,0,1-8.228,3.784,60.173,60.173,0,0,1-8.484,1.815c-3.2.469-3.666.761-6.925.441a52.928,52.928,0,0,1-5.81-1.2c-1.479-.4-2.872-1.044-4.3-1.576-3.336-1.148-7.569-2.942-9.459-4.513a46.617,46.617,0,0,1-9.03-9.368,16.521,16.521,0,0,1-1.249-2.25,1.658,1.658,0,0,0-2.905,1.447,17.118,17.118,0,0,0,3.085,4.9,50.606,50.606,0,0,0,5.4,6.219,35.933,35.933,0,0,0,4.891,3.89,68.67,68.67,0,0,0,7.995,3.505c2.837,1.332,9.354,3.352,14.272,3.193a94.964,94.964,0,0,0,11.874-1.8,46.356,46.356,0,0,0,7.068-2.943,35.7,35.7,0,0,0,5.513-3.475c.5-.4,1.135-.733,1.341-1.371a1.7,1.7,0,0,0,.137-1.087,2.411,2.411,0,0,0,1.819-.288,13.445,13.445,0,0,0,4.207-3.7,16.738,16.738,0,0,0,2-2.563A2.382,2.382,0,0,0,865.626,138.964Z"/>
        </g>
      </g>
      <g id="Grupo_153187" data-name="Grupo 153187">
        <path id="Trazado_204637" data-name="Trazado 204637" d="M822.389,132.527a.871.871,0,0,1-.87-.87v-19.1a.87.87,0,1,1,1.74,0v19.1A.87.87,0,0,1,822.389,132.527Z"/>
      </g>
      <g id="Grupo_153188" data-name="Grupo 153188">
        <path id="Trazado_204638" data-name="Trazado 204638" d="M841.529,132.527a.871.871,0,0,1-.87-.87v-19.1a.87.87,0,1,1,1.74,0v19.1A.87.87,0,0,1,841.529,132.527Z"/>
      </g>
      <g id="Grupo_153189" data-name="Grupo 153189">
        <path id="Trazado_204639" data-name="Trazado 204639" d="M831.959,132.527a.871.871,0,0,1-.87-.87v-30.74a.87.87,0,1,1,1.74,0v30.74A.87.87,0,0,1,831.959,132.527Z"/>
      </g>
    </g>
    <g id="Grupo_153191" data-name="Grupo 153191" opacity="0.129">
      <path id="Trazado_204640" data-name="Trazado 204640" d="M794.955,121.183c-1.955-1.743-3.758,1.174-5.205,2.268a19.556,19.556,0,0,0-3.591,4.468,11.089,11.089,0,0,0-3.366-2.079,7.485,7.485,0,0,0-3.292-.86,1.781,1.781,0,0,0-.237,3.472c2.7.482,5.049,2.48,5.574,3.814a1.9,1.9,0,0,0,.73,1.258,2.975,2.975,0,0,0-.027,1.825,1.69,1.69,0,0,0,3,.2c.446-1.116.081-.375.393-1.747a1.711,1.711,0,0,0-.171-1.307c-.018-.034-.041-.062-.062-.094.191-.583.266-1.221.515-1.785.05-.111.1-.222.154-.331a10.48,10.48,0,0,1,1.448-2.215,26.472,26.472,0,0,1,2.7-2.919c.562-.671,1.475-1.1,1.818-1.919A1.826,1.826,0,0,0,794.955,121.183Z"/>
    </g>
  </g>
</svg>
