<svg xmlns="http://www.w3.org/2000/svg" width="190" height="115" viewBox="0 0 190 115">
  <g id="Grupo_205148" data-name="Grupo 205148" transform="translate(-180 -1723)">
    <rect id="Rectángulo_43992" data-name="Rectángulo 43992" width="190" height="115" transform="translate(180 1723)" fill="none"/>
    <rect id="Rectángulo_41430" data-name="Rectángulo 41430" width="85" height="28" rx="14" transform="translate(285 1731)" fill="#feca2e" opacity="0.2"/>
    <rect id="Rectángulo_41431" data-name="Rectángulo 41431" width="85" height="28" rx="14" transform="translate(180 1792)" fill="#4dd0e1" opacity="0.2"/>
    <g id="Grupo_205147" data-name="Grupo 205147" transform="translate(5133 11550)">
      <path id="Trazado_222105" data-name="Trazado 222105" d="M99.027,41.179H86.4a1.973,1.973,0,0,0-1.973,1.973v9.962a1.973,1.973,0,0,0,3.945,0V45.125h8.68v51.93h-8.68V67.909a1.973,1.973,0,0,0-3.945,0V97.055H80.484V56.221a1.973,1.973,0,0,0-1.973-1.973H65.887a1.973,1.973,0,0,0-1.973,1.973V97.055H59.969V70.029A1.973,1.973,0,0,0,58,68.057H45.371A1.973,1.973,0,0,0,43.4,70.029V97.055H39.453V81.347a1.973,1.973,0,0,0-1.973-1.973H24.855a1.973,1.973,0,0,0-1.973,1.973V97.055H5.918a1.974,1.974,0,0,1-1.973-1.973V5.918A1.974,1.974,0,0,1,5.918,3.945h50.89v13.02a5.924,5.924,0,0,0,5.918,5.918h13.02V47.146a1.973,1.973,0,0,0,3.945,0V20.911a1.973,1.973,0,0,0-.578-1.395L60.175.578A1.973,1.973,0,0,0,58.781,0H5.918A5.924,5.924,0,0,0,0,5.918V95.082A5.924,5.924,0,0,0,5.918,101H99.027A1.973,1.973,0,0,0,101,99.027V43.152A1.973,1.973,0,0,0,99.027,41.179ZM60.753,16.966V6.736l12.2,12.2H62.726A1.975,1.975,0,0,1,60.753,16.966ZM26.828,97.055V83.32h8.68V97.055Zm20.516,0V72h8.68V97.055Zm20.516,0V58.193h8.68V97.055Zm0,0" transform="translate(-4908 -9821)" fill="#0f2771"/>
      <path id="Trazado_222106" data-name="Trazado 222106" d="M429.973,298.836a1.973,1.973,0,1,0-1.395-.578A1.988,1.988,0,0,0,429.973,298.836Zm0,0" transform="translate(-5251.57 -10057.72)" fill="#0f2771"/>
      <path id="Trazado_222107" data-name="Trazado 222107" d="M71.745,54.73A1.973,1.973,0,0,0,69.773,56.7v3.548A18.144,18.144,0,1,0,89.782,80.261H93.33A1.973,1.973,0,0,0,95.3,78.288,23.584,23.584,0,0,0,71.745,54.73Zm0,37.756a14.2,14.2,0,0,1-1.973-28.26V78.288a1.973,1.973,0,0,0,1.973,1.973H85.807A14.221,14.221,0,0,1,71.745,92.487Zm1.973-16.171V58.774A19.65,19.65,0,0,1,91.259,76.315Zm0,0" transform="translate(-4951.028 -9864.934)" fill="#0f2771"/>
      <path id="Trazado_222108" data-name="Trazado 222108" d="M95.623,296.223a1.972,1.972,0,0,0-1.973-1.973H55.973a1.973,1.973,0,0,0,0,3.945H93.65A1.973,1.973,0,0,0,95.623,296.223Zm0,0" transform="translate(-4951.348 -10057.205)" fill="#0f2771"/>
      <path id="Trazado_222109" data-name="Trazado 222109" d="M55.973,342.5a1.973,1.973,0,0,0,0,3.945H68.6a1.973,1.973,0,0,0,0-3.945Zm0,0" transform="translate(-4951.348 -10095.937)" fill="#0f2771"/>
      <path id="Trazado_222110" data-name="Trazado 222110" d="M168.657,343.078a1.971,1.971,0,1,0,1.394-.578A1.979,1.979,0,0,0,168.657,343.078Zm0,0" transform="translate(-5042.922 -10095.937)" fill="#0f2771"/>
    </g>
  </g>
</svg>
