<svg xmlns="http://www.w3.org/2000/svg" width="172.685" height="134.948" viewBox="0 0 172.685 134.948">
  <g id="Grupo_152797" data-name="Grupo 152797" transform="translate(-534.153 -57.204)">
    <g id="Grupo_152788" data-name="Grupo 152788" transform="translate(542.563 57.204)">
      <g id="Grupo_152774" data-name="Grupo 152774" transform="translate(85.08 79.348)">
        <path id="Trazado_199652" data-name="Trazado 199652" d="M602.7,127.465l25.174,24.767a165.337,165.337,0,0,0,13.7,12.512c2.605,2.04,5.5,3.969,8.673,3.97s6.536-2.67,6.512-6.252c-.019-2.793-1.948-5.038-3.755-6.945q-20.042-21.138-41.829-40.022C608.519,119.391,605.861,123.285,602.7,127.465Z" transform="translate(-601.496 -114.316)" fill="#fff"/>
        <path id="Trazado_199653" data-name="Trazado 199653" d="M650.585,170.242h0c-3.531,0-6.61-2.032-9.412-4.226a166.984,166.984,0,0,1-13.806-12.6l-25.176-24.767a1.2,1.2,0,0,1-.116-1.582c3.133-4.139,5.817-8.07,8.413-11.872a1.269,1.269,0,0,1,.855-.54,1.229,1.229,0,0,1,.959.26c14.475,12.544,28.577,26.036,41.914,40.1,1.964,2.074,4.063,4.553,4.085,7.764a7.113,7.113,0,0,1-2.141,5.071A8.057,8.057,0,0,1,650.585,170.242Zm-45.963-42.57L629.048,151.7a165.409,165.409,0,0,0,13.6,12.422c2.462,1.929,5.127,3.713,7.931,3.715h0a5.606,5.606,0,0,0,3.865-1.683,4.728,4.728,0,0,0,1.442-3.36c-.017-2.335-1.7-4.306-3.426-6.125C639.5,142.99,625.8,129.856,611.741,117.614,609.516,120.871,607.224,124.195,604.623,127.672Z" transform="translate(-601.828 -114.642)"/>
      </g>
      <g id="Grupo_152776" data-name="Grupo 152776">
        <g id="Grupo_152775" data-name="Grupo 152775">
          <path id="Trazado_199654" data-name="Trazado 199654" d="M593.445,58.074a52.334,52.334,0,1,0,52.332,52.334A52.334,52.334,0,0,0,593.445,58.074Zm0,92.083a39.748,39.748,0,1,1,39.747-39.749A39.749,39.749,0,0,1,593.445,150.157Zm0,0a39.748,39.748,0,1,1,39.747-39.749A39.749,39.749,0,0,1,593.445,150.157Z" transform="translate(-539.909 -56.872)" fill="#fff"/>
          <path id="Trazado_199655" data-name="Trazado 199655" d="M593.777,164.275a53.536,53.536,0,1,1,53.536-53.536A53.6,53.6,0,0,1,593.777,164.275Zm0-104.668a51.132,51.132,0,1,0,51.132,51.132A51.191,51.191,0,0,0,593.777,59.608Zm0,92.083a40.95,40.95,0,1,1,40.949-40.951A41,41,0,0,1,593.777,151.69ZM555.23,110.74a38.546,38.546,0,1,0,38.547-38.546A38.59,38.59,0,0,0,555.23,110.74Z" transform="translate(-540.241 -57.204)"/>
        </g>
      </g>
      <g id="Grupo_152777" data-name="Grupo 152777" transform="translate(92.629 89.972)">
        <path id="Trazado_199656" data-name="Trazado 199656" d="M607.694,126.356a.388.388,0,0,1-.111-.015.4.4,0,0,1-.275-.5l.921-3.222a.4.4,0,0,1,.5-.274.4.4,0,0,1,.275.495l-.921,3.222A.4.4,0,0,1,607.694,126.356Z" transform="translate(-607.293 -122.332)"/>
      </g>
      <g id="Grupo_152778" data-name="Grupo 152778" transform="translate(97.032 87.553)">
        <path id="Trazado_199657" data-name="Trazado 199657" d="M610.882,132.667l-.052,0a.4.4,0,0,1-.347-.449c.493-3.769,1.087-7.572,1.766-11.307a.4.4,0,0,1,.789.144c-.676,3.722-1.268,7.512-1.759,11.266A.4.4,0,0,1,610.882,132.667Z" transform="translate(-610.48 -120.581)"/>
      </g>
      <g id="Grupo_152779" data-name="Grupo 152779" transform="translate(102.75 92.406)">
        <path id="Trazado_199658" data-name="Trazado 199658" d="M615.02,136.8a.4.4,0,0,1-.4-.4c0-1.886.289-5.046.546-7.836.156-1.7.29-3.169.337-4.092a.375.375,0,0,1,.42-.38.4.4,0,0,1,.38.42c-.047.939-.182,2.416-.34,4.125-.254,2.773-.542,5.914-.542,7.762A.4.4,0,0,1,615.02,136.8Z" transform="translate(-614.619 -124.094)"/>
      </g>
      <g id="Grupo_152780" data-name="Grupo 152780" transform="translate(108.301 96.344)">
        <path id="Trazado_199659" data-name="Trazado 199659" d="M619.34,141.113a.4.4,0,0,1-.4-.391l-.3-13.367a.4.4,0,0,1,.391-.41h.01a.4.4,0,0,1,.4.392l.3,13.366a.4.4,0,0,1-.392.41Z" transform="translate(-618.637 -126.945)"/>
      </g>
      <g id="Grupo_152781" data-name="Grupo 152781" transform="translate(113.648 101.626)">
        <path id="Trazado_199660" data-name="Trazado 199660" d="M623.434,145.566a.4.4,0,0,1-.4-.385l-.525-14a.4.4,0,0,1,.8-.03l.525,14a.4.4,0,0,1-.385.416Z" transform="translate(-622.508 -130.768)"/>
      </g>
      <g id="Grupo_152782" data-name="Grupo 152782" transform="translate(119.134 107.529)">
        <path id="Trazado_199661" data-name="Trazado 199661" d="M627.587,148.919a.4.4,0,0,1-.4-.379l-.707-13.074a.4.4,0,0,1,.378-.423.377.377,0,0,1,.421.379l.707,13.076a.4.4,0,0,1-.377.421Z" transform="translate(-626.479 -135.041)"/>
      </g>
      <g id="Grupo_152783" data-name="Grupo 152783" transform="translate(124.472 112.48)">
        <path id="Trazado_199662" data-name="Trazado 199662" d="M631.724,152.158a.4.4,0,0,1-.4-.37l-.982-12.729a.4.4,0,1,1,.8-.061l.982,12.729a.4.4,0,0,1-.369.43Z" transform="translate(-630.343 -138.625)"/>
      </g>
      <g id="Grupo_152784" data-name="Grupo 152784" transform="translate(129.619 118.187)">
        <path id="Trazado_199663" data-name="Trazado 199663" d="M635.616,154.722a.4.4,0,0,1-.4-.361L634.07,143.2a.4.4,0,0,1,.358-.439.405.405,0,0,1,.439.358l1.148,11.164a.4.4,0,0,1-.358.439Z" transform="translate(-634.068 -142.756)"/>
      </g>
      <g id="Grupo_152785" data-name="Grupo 152785" transform="translate(135.164 123.768)">
        <path id="Trazado_199664" data-name="Trazado 199664" d="M639.288,152.587a.4.4,0,0,1-.394-.337l-.807-4.988a.4.4,0,0,1,.79-.128l.807,4.988a.4.4,0,0,1-.332.46A.351.351,0,0,1,639.288,152.587Z" transform="translate(-638.082 -146.796)"/>
      </g>
      <g id="Grupo_152786" data-name="Grupo 152786" transform="translate(13.629 47.832)" opacity="0.129">
        <path id="Trazado_199665" data-name="Trazado 199665" d="M627.036,110.192c-1.314,1.111-1.923,2.9-3.038,4.215a54.017,54.017,0,0,1-4.409,4.843c-1.312,1.173-2.572,2.2-3.854,3.183a2.047,2.047,0,0,0-.673.265c-6.543,4.734-11.459,6.462-19.734,7.986a31.853,31.853,0,0,1-14.635-.182c-4.334-1.008-6.427-2.2-10.951-5.243a57.761,57.761,0,0,1-9.115-8.642v0a34.792,34.792,0,0,1-4.849-9.731c-.649-1.752-1.14-3.55-1.654-5.345a14.934,14.934,0,0,1-.989-5.424q-.717-2-1.311-4.049a2.565,2.565,0,0,0-1.238-.231,63.648,63.648,0,0,0,.084,16.217c1.177,4.654,2.628,9.7,7.087,14.715a46.719,46.719,0,0,0,7.609,6.608,43.094,43.094,0,0,0,11.693,6.359,43.786,43.786,0,0,0,7.134,1.238l.04.008a27.122,27.122,0,0,0,7.891.191,34.208,34.208,0,0,0,6.032-1.308,52.128,52.128,0,0,0,12.013-4.267,31.32,31.32,0,0,0,2.777-1.851,59.177,59.177,0,0,0,11.856-9.688c.635-1.315,1.252-2.64,1.828-3.977.722-2,1.446-4,2.156-6.007A1.991,1.991,0,0,0,627.036,110.192Z" transform="translate(-550.106 -91.828)"/>
      </g>
      <g id="Grupo_152787" data-name="Grupo 152787" transform="translate(87.141 83.142)" opacity="0.129">
        <path id="Trazado_199666" data-name="Trazado 199666" d="M615.272,117.521c-1.992-.573-3.325.812-4.307,2.332l-.134.159c-1.738,2.029-2.23,1.858-5.1,4.452l-.036.029a4.624,4.624,0,0,0-1.6,1.294c-2.415,2.97,1.267,7.11,4.548,5.18a18.568,18.568,0,0,0,5.81-5.11,23.033,23.033,0,0,0,2.767-3.541A3.29,3.29,0,0,0,615.272,117.521Z" transform="translate(-603.32 -117.388)"/>
      </g>
    </g>
    <g id="Grupo_152789" data-name="Grupo 152789" transform="translate(595.995 95.245)">
      <circle id="Elipse_5081" data-name="Elipse 5081" cx="11.256" cy="11.256" r="11.256" transform="translate(1.203 1.202)" fill="#feca2e"/>
      <path id="Trazado_199667" data-name="Trazado 199667" d="M591.378,109.658A12.459,12.459,0,1,1,603.836,97.2,12.474,12.474,0,0,1,591.378,109.658Zm0-22.514A10.055,10.055,0,1,0,601.433,97.2,10.066,10.066,0,0,0,591.378,87.145Z" transform="translate(-578.919 -84.741)"/>
    </g>
    <g id="Grupo_152790" data-name="Grupo 152790" transform="translate(543.868 150.09)">
      <path id="Trazado_199668" data-name="Trazado 199668" d="M542.387,147.182a1.2,1.2,0,0,1-.9-2c5.837-6.576,11.572-13.4,17.049-20.289a1.2,1.2,0,0,1,1.882,1.5c-5.5,6.921-11.267,13.78-17.133,20.389A1.2,1.2,0,0,1,542.387,147.182Z" transform="translate(-541.186 -124.442)"/>
    </g>
    <g id="Grupo_152791" data-name="Grupo 152791" transform="translate(646.921 95.245)">
      <path id="Trazado_199669" data-name="Trazado 199669" d="M643.056,127.437a1.2,1.2,0,0,1-.6-.163L616.38,112.086a1.2,1.2,0,1,1,1.21-2.076l24.984,14.554,20.448-39.177a1.2,1.2,0,1,1,2.132,1.113l-21.031,40.292a1.2,1.2,0,0,1-1.066.645Z" transform="translate(-615.783 -84.741)"/>
    </g>
    <g id="Grupo_152792" data-name="Grupo 152792" transform="translate(534.153 166.719)">
      <circle id="Elipse_5082" data-name="Elipse 5082" cx="7.208" cy="7.208" r="7.208" transform="translate(1.202 1.202)" fill="#fff"/>
      <path id="Trazado_199670" data-name="Trazado 199670" d="M542.563,153.3a8.41,8.41,0,1,1,8.41-8.41A8.421,8.421,0,0,1,542.563,153.3Zm0-14.417a6.007,6.007,0,1,0,6.007,6.007A6.013,6.013,0,0,0,542.563,138.883Z" transform="translate(-534.153 -136.479)"/>
    </g>
    <g id="Grupo_152793" data-name="Grupo 152793" transform="translate(690.018 80.828)">
      <path id="Trazado_199671" data-name="Trazado 199671" d="M647.849,82.383a7.208,7.208,0,1,1,7.208,7.208A7.208,7.208,0,0,1,647.849,82.383Z" transform="translate(-646.647 -73.973)" fill="#fff"/>
      <path id="Trazado_199672" data-name="Trazado 199672" d="M655.389,91.126a8.41,8.41,0,1,1,8.41-8.41A8.421,8.421,0,0,1,655.389,91.126Zm0-14.417a6.007,6.007,0,1,0,6.007,6.007A6.013,6.013,0,0,0,655.389,76.709Z" transform="translate(-646.979 -74.305)"/>
    </g>
    <g id="Grupo_152794" data-name="Grupo 152794" transform="translate(665.785 128.33)">
      <circle id="Elipse_5083" data-name="Elipse 5083" cx="7.208" cy="7.208" r="7.208" transform="translate(1.201 1.201)" fill="#fff"/>
      <path id="Trazado_199673" data-name="Trazado 199673" d="M637.847,125.509a8.41,8.41,0,1,1,8.41-8.41A8.419,8.419,0,0,1,637.847,125.509Zm0-14.416a6.006,6.006,0,1,0,6.006,6.005A6.012,6.012,0,0,0,637.847,111.094Z" transform="translate(-629.438 -108.69)"/>
    </g>
    <g id="Grupo_152795" data-name="Grupo 152795" transform="translate(576.996 115.232)">
      <path id="Trazado_199674" data-name="Trazado 199674" d="M566.367,129.727a1.2,1.2,0,0,1-.942-1.946l22.153-28.114a1.2,1.2,0,1,1,1.887,1.488L567.311,129.27A1.2,1.2,0,0,1,566.367,129.727Z" transform="translate(-565.166 -99.209)"/>
    </g>
    <g id="Grupo_152796" data-name="Grupo 152796" transform="translate(616.815 112.633)">
      <path id="Trazado_199675" data-name="Trazado 199675" d="M610.374,109.061a1.2,1.2,0,0,1-.629-.177l-15.182-9.332a1.2,1.2,0,1,1,1.258-2.047L611,106.835a1.2,1.2,0,0,1-.63,2.226Z" transform="translate(-593.99 -97.327)"/>
    </g>
  </g>
</svg>
