<svg xmlns="http://www.w3.org/2000/svg" width="160.832" height="125.685" viewBox="0 0 160.832 125.685">
  <g id="Grupo_153255" data-name="Grupo 153255" transform="translate(-534.153 -57.204)">
    <g id="Grupo_153246" data-name="Grupo 153246" transform="translate(541.986 57.204)">
      <g id="Grupo_153232" data-name="Grupo 153232" transform="translate(79.24 73.901)">
        <path id="Trazado_204679" data-name="Trazado 204679" d="M602.7,126.644l23.446,23.067a154,154,0,0,0,12.763,11.653c2.427,1.9,5.126,3.7,8.078,3.7s6.087-2.487,6.065-5.823c-.018-2.6-1.814-4.692-3.5-6.468Q630.888,133.083,610.6,115.5C608.12,119.123,605.644,122.75,602.7,126.644Z" transform="translate(-601.578 -114.397)" fill="#fff"/>
        <path id="Trazado_204680" data-name="Trazado 204680" d="M647.239,166.425h0c-3.289,0-6.157-1.893-8.766-3.936a155.533,155.533,0,0,1-12.859-11.737l-23.448-23.067a1.12,1.12,0,0,1-.108-1.473c2.918-3.855,5.418-7.517,7.836-11.057a1.182,1.182,0,0,1,.8-.5,1.144,1.144,0,0,1,.893.242c13.481,11.683,26.615,24.249,39.036,37.35,1.83,1.931,3.784,4.241,3.8,7.231a6.625,6.625,0,0,1-1.994,4.723A7.5,7.5,0,0,1,647.239,166.425Zm-42.808-39.648,22.749,22.38a154.055,154.055,0,0,0,12.67,11.569c2.293,1.8,4.775,3.458,7.387,3.46h0a5.22,5.22,0,0,0,3.6-1.567,4.4,4.4,0,0,0,1.343-3.129c-.015-2.174-1.584-4.01-3.191-5.7-12.079-12.742-24.836-24.974-37.93-36.376C608.988,120.443,606.854,123.539,604.431,126.778Z" transform="translate(-601.828 -114.642)"/>
      </g>
      <g id="Grupo_153234" data-name="Grupo 153234">
        <g id="Grupo_153233" data-name="Grupo 153233">
          <path id="Trazado_204681" data-name="Trazado 204681" d="M589.853,58.074a48.742,48.742,0,1,0,48.74,48.742A48.742,48.742,0,0,0,589.853,58.074Zm0,85.762a37.02,37.02,0,1,1,37.019-37.02A37.02,37.02,0,0,1,589.853,143.836Zm0,0a37.02,37.02,0,1,1,37.019-37.02A37.02,37.02,0,0,1,589.853,143.836Z" transform="translate(-539.992 -56.955)" fill="#fff"/>
          <path id="Trazado_204682" data-name="Trazado 204682" d="M590.1,156.926a49.861,49.861,0,1,1,49.861-49.861A49.917,49.917,0,0,1,590.1,156.926Zm0-97.483a47.622,47.622,0,1,0,47.622,47.622A47.677,47.677,0,0,0,590.1,59.443Zm0,85.762a38.139,38.139,0,1,1,38.138-38.14A38.183,38.183,0,0,1,590.1,145.2Zm-35.9-38.14a35.9,35.9,0,1,0,35.9-35.9A35.941,35.941,0,0,0,554.2,107.065Z" transform="translate(-540.241 -57.204)"/>
        </g>
      </g>
      <g id="Grupo_153235" data-name="Grupo 153235" transform="translate(86.271 83.796)">
        <path id="Trazado_204683" data-name="Trazado 204683" d="M607.666,126.08a.362.362,0,0,1-.1-.014.374.374,0,0,1-.256-.462l.858-3a.368.368,0,0,1,.462-.255.372.372,0,0,1,.256.461l-.858,3A.375.375,0,0,1,607.666,126.08Z" transform="translate(-607.293 -122.332)"/>
      </g>
      <g id="Grupo_153236" data-name="Grupo 153236" transform="translate(90.371 81.543)">
        <path id="Trazado_204684" data-name="Trazado 204684" d="M610.854,131.838l-.049,0a.375.375,0,0,1-.323-.418c.459-3.51,1.013-7.052,1.644-10.531a.373.373,0,0,1,.735.134c-.629,3.466-1.181,7-1.638,10.492A.373.373,0,0,1,610.854,131.838Z" transform="translate(-610.48 -120.581)"/>
      </g>
      <g id="Grupo_153237" data-name="Grupo 153237" transform="translate(95.697 86.063)">
        <path id="Trazado_204685" data-name="Trazado 204685" d="M614.992,135.932a.373.373,0,0,1-.373-.373c0-1.756.269-4.7.508-7.3.145-1.583.27-2.952.314-3.811a.35.35,0,0,1,.391-.354.373.373,0,0,1,.354.391c-.044.875-.17,2.25-.316,3.842-.237,2.582-.5,5.508-.5,7.23A.373.373,0,0,1,614.992,135.932Z" transform="translate(-614.619 -124.094)"/>
      </g>
      <g id="Grupo_153238" data-name="Grupo 153238" transform="translate(100.867 89.731)">
        <path id="Trazado_204686" data-name="Trazado 204686" d="M619.292,140.141a.372.372,0,0,1-.373-.364l-.282-12.449a.374.374,0,0,1,.364-.382h.009a.373.373,0,0,1,.373.365l.282,12.448a.375.375,0,0,1-.365.382Z" transform="translate(-618.637 -126.945)"/>
      </g>
      <g id="Grupo_153239" data-name="Grupo 153239" transform="translate(105.847 94.65)">
        <path id="Trazado_204687" data-name="Trazado 204687" d="M623.37,144.55a.374.374,0,0,1-.373-.359l-.489-13.036a.373.373,0,0,1,.746-.028l.489,13.036a.375.375,0,0,1-.359.387Z" transform="translate(-622.508 -130.768)"/>
      </g>
      <g id="Grupo_153240" data-name="Grupo 153240" transform="translate(110.956 100.148)">
        <path id="Trazado_204688" data-name="Trazado 204688" d="M627.511,147.966a.373.373,0,0,1-.373-.353l-.659-12.177a.373.373,0,0,1,.352-.394.351.351,0,0,1,.392.353l.659,12.178a.373.373,0,0,1-.351.392Z" transform="translate(-626.479 -135.041)"/>
      </g>
      <g id="Grupo_153241" data-name="Grupo 153241" transform="translate(115.928 104.759)">
        <path id="Trazado_204689" data-name="Trazado 204689" d="M631.63,151.229a.372.372,0,0,1-.371-.345l-.915-11.855a.373.373,0,0,1,.744-.057L632,150.827a.373.373,0,0,1-.344.4Z" transform="translate(-630.343 -138.625)"/>
      </g>
      <g id="Grupo_153242" data-name="Grupo 153242" transform="translate(120.722 110.074)">
        <path id="Trazado_204690" data-name="Trazado 204690" d="M635.51,153.9a.373.373,0,0,1-.371-.336l-1.069-10.4a.372.372,0,0,1,.333-.409.377.377,0,0,1,.409.333l1.069,10.4a.373.373,0,0,1-.333.409Z" transform="translate(-634.069 -142.756)"/>
      </g>
      <g id="Grupo_153243" data-name="Grupo 153243" transform="translate(125.886 115.273)">
        <path id="Trazado_204691" data-name="Trazado 204691" d="M639.205,152.189a.373.373,0,0,1-.367-.314l-.751-4.646a.373.373,0,0,1,.736-.12l.751,4.646a.373.373,0,0,1-.309.428A.329.329,0,0,1,639.205,152.189Z" transform="translate(-638.082 -146.796)"/>
      </g>
      <g id="Grupo_153244" data-name="Grupo 153244" transform="translate(12.693 44.549)" opacity="0.129">
        <path id="Trazado_204692" data-name="Trazado 204692" d="M621.756,108.931c-1.224,1.034-1.791,2.7-2.829,3.926a50.312,50.312,0,0,1-4.107,4.511c-1.222,1.092-2.4,2.053-3.59,2.964a1.907,1.907,0,0,0-.627.247c-6.093,4.409-10.673,6.019-18.38,7.438a29.667,29.667,0,0,1-13.631-.17c-4.036-.939-5.985-2.044-10.2-4.883a53.794,53.794,0,0,1-8.489-8.049v0a32.4,32.4,0,0,1-4.516-9.063c-.6-1.631-1.061-3.307-1.54-4.978a13.908,13.908,0,0,1-.921-5.051q-.668-1.866-1.221-3.771a2.389,2.389,0,0,0-1.153-.215,59.284,59.284,0,0,0,.078,15.1c1.1,4.335,2.447,9.037,6.6,13.705a43.511,43.511,0,0,0,7.087,6.154,40.134,40.134,0,0,0,10.89,5.922,40.776,40.776,0,0,0,6.644,1.153l.037.008a25.261,25.261,0,0,0,7.349.178,31.86,31.86,0,0,0,5.617-1.218,48.551,48.551,0,0,0,11.189-3.974,29.162,29.162,0,0,0,2.586-1.724,55.114,55.114,0,0,0,11.042-9.023c.592-1.225,1.166-2.459,1.7-3.7.673-1.864,1.347-3.727,2.008-5.594A1.854,1.854,0,0,0,621.756,108.931Z" transform="translate(-550.107 -91.828)"/>
      </g>
      <g id="Grupo_153245" data-name="Grupo 153245" transform="translate(81.159 77.435)" opacity="0.129">
        <path id="Trazado_204693" data-name="Trazado 204693" d="M614.452,117.511c-1.855-.534-3.1.757-4.012,2.172l-.125.148c-1.619,1.89-2.077,1.731-4.748,4.147l-.033.027a4.307,4.307,0,0,0-1.49,1.206c-2.249,2.766,1.18,6.622,4.236,4.825a17.294,17.294,0,0,0,5.412-4.759,21.456,21.456,0,0,0,2.577-3.3A3.065,3.065,0,0,0,614.452,117.511Z" transform="translate(-603.32 -117.388)"/>
      </g>
    </g>
    <g id="Grupo_153247" data-name="Grupo 153247" transform="translate(591.75 92.634)">
      <circle id="Elipse_5098" data-name="Elipse 5098" cx="10.484" cy="10.484" r="10.484" transform="translate(1.12 1.119)" fill="#feca2e"/>
      <path id="Trazado_204694" data-name="Trazado 204694" d="M590.523,107.948a11.6,11.6,0,1,1,11.6-11.6A11.617,11.617,0,0,1,590.523,107.948Zm0-20.968a9.365,9.365,0,1,0,9.364,9.364A9.375,9.375,0,0,0,590.523,86.98Z" transform="translate(-578.919 -84.741)"/>
    </g>
    <g id="Grupo_153248" data-name="Grupo 153248" transform="translate(543.202 143.714)">
      <path id="Trazado_204695" data-name="Trazado 204695" d="M542.3,145.621a1.119,1.119,0,0,1-.836-1.862c5.436-6.124,10.778-12.483,15.878-18.9a1.119,1.119,0,0,1,1.752,1.393c-5.125,6.446-10.494,12.834-15.957,18.989A1.115,1.115,0,0,1,542.3,145.621Z" transform="translate(-541.186 -124.442)"/>
    </g>
    <g id="Grupo_153249" data-name="Grupo 153249" transform="translate(639.181 92.634)">
      <path id="Trazado_204696" data-name="Trazado 204696" d="M641.184,124.506a1.118,1.118,0,0,1-.562-.152l-24.283-14.145a1.119,1.119,0,1,1,1.127-1.934l23.269,13.555L659.78,85.342a1.12,1.12,0,1,1,1.985,1.037L642.177,123.9a1.119,1.119,0,0,1-.993.6Z" transform="translate(-615.783 -84.741)"/>
    </g>
    <g id="Grupo_153250" data-name="Grupo 153250" transform="translate(534.153 159.202)">
      <circle id="Elipse_5099" data-name="Elipse 5099" cx="6.713" cy="6.713" r="6.713" transform="translate(1.119 1.12)" fill="#fff"/>
      <path id="Trazado_204697" data-name="Trazado 204697" d="M541.986,152.145a7.833,7.833,0,1,1,7.833-7.833A7.843,7.843,0,0,1,541.986,152.145Zm0-13.427a5.594,5.594,0,1,0,5.594,5.594A5.6,5.6,0,0,0,541.986,138.718Z" transform="translate(-534.153 -136.479)"/>
    </g>
    <g id="Grupo_153251" data-name="Grupo 153251" transform="translate(679.319 79.207)">
      <path id="Trazado_204698" data-name="Trazado 204698" d="M647.849,81.889a6.714,6.714,0,1,1,6.714,6.714A6.713,6.713,0,0,1,647.849,81.889Z" transform="translate(-646.73 -74.056)" fill="#fff"/>
      <path id="Trazado_204699" data-name="Trazado 204699" d="M654.812,89.971a7.833,7.833,0,1,1,7.833-7.833A7.843,7.843,0,0,1,654.812,89.971Zm0-13.427a5.594,5.594,0,1,0,5.594,5.594A5.6,5.6,0,0,0,654.812,76.544Z" transform="translate(-646.979 -74.305)"/>
    </g>
    <g id="Grupo_153252" data-name="Grupo 153252" transform="translate(656.75 123.448)">
      <circle id="Elipse_5100" data-name="Elipse 5100" cx="6.713" cy="6.713" r="6.713" transform="translate(1.119 1.119)" fill="#fff"/>
      <path id="Trazado_204700" data-name="Trazado 204700" d="M637.27,124.355a7.832,7.832,0,1,1,7.833-7.833A7.842,7.842,0,0,1,637.27,124.355Zm0-13.426a5.594,5.594,0,1,0,5.594,5.593A5.6,5.6,0,0,0,637.27,110.929Z" transform="translate(-629.438 -108.69)"/>
    </g>
    <g id="Grupo_153253" data-name="Grupo 153253" transform="translate(574.055 111.249)">
      <path id="Trazado_204701" data-name="Trazado 204701" d="M566.284,127.632a1.119,1.119,0,0,1-.877-1.813l20.632-26.184a1.119,1.119,0,1,1,1.758,1.386l-20.633,26.186A1.121,1.121,0,0,1,566.284,127.632Z" transform="translate(-565.166 -99.209)"/>
    </g>
    <g id="Grupo_153254" data-name="Grupo 153254" transform="translate(611.141 108.828)">
      <path id="Trazado_204702" data-name="Trazado 204702" d="M609.25,108.256a1.122,1.122,0,0,1-.585-.165L594.524,99.4a1.119,1.119,0,1,1,1.172-1.907l14.14,8.69a1.119,1.119,0,0,1-.587,2.073Z" transform="translate(-593.99 -97.327)"/>
    </g>
  </g>
</svg>
