<svg xmlns="http://www.w3.org/2000/svg" width="167.41" height="129.408" viewBox="0 0 167.41 129.408">
  <g id="Grupo_153231" data-name="Grupo 153231" transform="translate(-1137.837 -232.573)">
    <g id="Grupo_153193" data-name="Grupo 153193" transform="translate(1137.837 360.133)">
      <path id="Trazado_204641" data-name="Trazado 204641" d="M1266.139,354.568H1138.761a.924.924,0,1,1,0-1.847h127.379a.924.924,0,1,1,0,1.847Z" transform="translate(-1137.837 -352.721)"/>
    </g>
    <g id="Grupo_153194" data-name="Grupo 153194" transform="translate(1232.167 232.573)">
      <rect id="Rectángulo_293897" data-name="Rectángulo 293897" width="26.889" height="114.227" transform="translate(0.924 0.923)" fill="#fff"/>
      <path id="Trazado_204642" data-name="Trazado 204642" d="M1254.5,348.647h-26.889a.924.924,0,0,1-.924-.924V233.5a.923.923,0,0,1,.924-.923H1254.5a.923.923,0,0,1,.924.923V347.723A.924.924,0,0,1,1254.5,348.647Zm-25.966-1.847h25.042V234.42h-25.042Z" transform="translate(-1226.685 -232.573)"/>
    </g>
    <g id="Grupo_153195" data-name="Grupo 153195" transform="translate(1188.083 268.969)">
      <rect id="Rectángulo_293898" data-name="Rectángulo 293898" width="26.889" height="77.831" transform="translate(0.923 0.923)" fill="#feca2e"/>
      <path id="Trazado_204643" data-name="Trazado 204643" d="M1212.975,346.532h-26.889a.924.924,0,0,1-.924-.924V267.778a.924.924,0,0,1,.924-.924h26.889a.923.923,0,0,1,.924.924v77.831A.924.924,0,0,1,1212.975,346.532Zm-25.965-1.847h25.041V268.7H1187.01Z" transform="translate(-1185.163 -266.854)"/>
    </g>
    <g id="Grupo_153210" data-name="Grupo 153210" transform="translate(1196.462 247.353)">
      <g id="Grupo_153196" data-name="Grupo 153196" transform="translate(65.388 60.966)">
        <path id="Trazado_204644" data-name="Trazado 204644" d="M1255.513,313.984l19.348,19.034a127.08,127.08,0,0,0,10.532,9.616c2,1.568,4.229,3.05,6.664,3.051a5.042,5.042,0,0,0,5-4.805c-.014-2.147-1.5-3.872-2.885-5.337q-15.4-16.246-32.147-30.758C1259.987,307.778,1257.944,310.771,1255.513,313.984Z" transform="translate(-1254.59 -303.864)" fill="#fff"/>
        <path id="Trazado_204645" data-name="Trazado 204645" d="M1292.113,346.662h0c-2.715,0-5.081-1.562-7.233-3.248a128.057,128.057,0,0,1-10.612-9.685L1254.919,314.7a.925.925,0,0,1-.089-1.216c2.415-3.193,4.485-6.224,6.486-9.156a.931.931,0,0,1,1.373-.184c11.124,9.64,21.963,20.01,32.213,30.82,1.51,1.594,3.122,3.5,3.14,5.967a5.463,5.463,0,0,1-1.646,3.9A6.189,6.189,0,0,1,1292.113,346.662Zm-35.322-32.717,18.77,18.467a127.222,127.222,0,0,0,10.454,9.549c1.893,1.481,3.941,2.853,6.1,2.854h0a4.308,4.308,0,0,0,2.971-1.293,3.637,3.637,0,0,0,1.108-2.582c-.013-1.794-1.308-3.31-2.633-4.709-9.968-10.513-20.494-20.606-31.3-30.015C1260.561,308.705,1258.8,311.265,1256.792,313.945Z" transform="translate(-1254.643 -303.917)"/>
      </g>
      <g id="Grupo_153198" data-name="Grupo 153198">
        <g id="Grupo_153197" data-name="Grupo 153197">
          <path id="Trazado_204646" data-name="Trazado 204646" d="M1234.145,247.364a40.22,40.22,0,1,0,40.22,40.219A40.219,40.219,0,0,0,1234.145,247.364Zm0,70.767a30.548,30.548,0,1,1,30.547-30.548A30.548,30.548,0,0,1,1234.145,318.131Zm0,0a30.548,30.548,0,1,1,30.547-30.548A30.548,30.548,0,0,1,1234.145,318.131Z" transform="translate(-1193.001 -246.44)" fill="#fff"/>
          <path id="Trazado_204647" data-name="Trazado 204647" d="M1234.2,328.781a41.143,41.143,0,1,1,41.144-41.143A41.19,41.19,0,0,1,1234.2,328.781Zm0-80.439a39.3,39.3,0,1,0,39.3,39.3A39.341,39.341,0,0,0,1234.2,248.341Zm0,70.766a31.471,31.471,0,1,1,31.471-31.47A31.506,31.506,0,0,1,1234.2,319.108Zm-29.623-31.47a29.623,29.623,0,1,0,29.623-29.624A29.656,29.656,0,0,0,1204.575,287.638Z" transform="translate(-1193.055 -246.494)"/>
        </g>
      </g>
      <g id="Grupo_153199" data-name="Grupo 153199" transform="translate(71.19 69.145)">
        <path id="Trazado_204648" data-name="Trazado 204648" d="M1260.416,314.714a.3.3,0,0,1-.085-.012.308.308,0,0,1-.211-.381l.708-2.475a.307.307,0,1,1,.591.169l-.707,2.476A.308.308,0,0,1,1260.416,314.714Z" transform="translate(-1260.108 -311.621)"/>
      </g>
      <g id="Grupo_153200" data-name="Grupo 153200" transform="translate(74.574 67.286)">
        <path id="Trazado_204649" data-name="Trazado 204649" d="M1263.6,319.159a.255.255,0,0,1-.041,0,.308.308,0,0,1-.265-.345c.377-2.89.833-5.814,1.356-8.69a.308.308,0,0,1,.606.11c-.521,2.866-.976,5.779-1.351,8.659A.308.308,0,0,1,1263.6,319.159Z" transform="translate(-1263.295 -309.87)"/>
      </g>
      <g id="Grupo_153201" data-name="Grupo 153201" transform="translate(78.967 71.016)">
        <path id="Trazado_204650" data-name="Trazado 204650" d="M1267.741,323.152a.308.308,0,0,1-.308-.309c0-1.448.223-3.877.419-6.021.121-1.306.224-2.434.259-3.145a.29.29,0,0,1,.324-.292.307.307,0,0,1,.291.323c-.036.723-.14,1.857-.26,3.17-.2,2.131-.417,4.545-.417,5.965A.308.308,0,0,1,1267.741,323.152Z" transform="translate(-1267.433 -313.383)"/>
      </g>
      <g id="Grupo_153202" data-name="Grupo 153202" transform="translate(83.233 74.043)">
        <path id="Trazado_204651" data-name="Trazado 204651" d="M1271.991,327.122a.308.308,0,0,1-.308-.3l-.232-10.272a.31.31,0,0,1,.3-.315h.007a.309.309,0,0,1,.308.3l.231,10.273a.307.307,0,0,1-.3.314Z" transform="translate(-1271.451 -316.234)"/>
      </g>
      <g id="Grupo_153203" data-name="Grupo 153203" transform="translate(87.343 78.101)">
        <path id="Trazado_204652" data-name="Trazado 204652" d="M1276.033,331.43a.309.309,0,0,1-.308-.3l-.4-10.757a.308.308,0,0,1,.3-.32.315.315,0,0,1,.319.3l.4,10.758a.308.308,0,0,1-.3.319Z" transform="translate(-1275.323 -320.057)"/>
      </g>
      <g id="Grupo_153204" data-name="Grupo 153204" transform="translate(91.559 82.641)">
        <path id="Trazado_204653" data-name="Trazado 204653" d="M1280.144,335a.308.308,0,0,1-.307-.291l-.544-10.049a.307.307,0,0,1,.291-.324.3.3,0,0,1,.324.29l.544,10.049a.307.307,0,0,1-.291.324Z" transform="translate(-1279.293 -324.333)"/>
      </g>
      <g id="Grupo_153205" data-name="Grupo 153205" transform="translate(95.661 86.444)">
        <path id="Trazado_204654" data-name="Trazado 204654" d="M1284.22,338.314a.308.308,0,0,1-.307-.283l-.755-9.784a.308.308,0,1,1,.614-.047l.755,9.782a.306.306,0,0,1-.283.33Z" transform="translate(-1283.157 -327.915)"/>
      </g>
      <g id="Grupo_153206" data-name="Grupo 153206" transform="translate(99.617 90.829)">
        <path id="Trazado_204655" data-name="Trazado 204655" d="M1288.073,341.24a.307.307,0,0,1-.306-.276l-.882-8.581a.307.307,0,0,1,.275-.337.311.311,0,0,1,.337.274l.882,8.581a.306.306,0,0,1-.274.337Z" transform="translate(-1286.883 -332.045)"/>
      </g>
      <g id="Grupo_153207" data-name="Grupo 153207" transform="translate(103.878 95.118)">
        <path id="Trazado_204656" data-name="Trazado 204656" d="M1291.824,340.536a.309.309,0,0,1-.3-.259l-.619-3.834a.305.305,0,0,1,.254-.352.3.3,0,0,1,.354.254l.619,3.835a.307.307,0,0,1-.254.352A.274.274,0,0,1,1291.824,340.536Z" transform="translate(-1290.897 -336.085)"/>
      </g>
      <g id="Grupo_153208" data-name="Grupo 153208" transform="translate(10.474 36.759)" opacity="0.129">
        <path id="Trazado_204657" data-name="Trazado 204657" d="M1262.045,295.23c-1.011.854-1.478,2.228-2.336,3.24a41.757,41.757,0,0,1-3.388,3.722c-1.009.9-1.977,1.693-2.963,2.445a1.576,1.576,0,0,0-.516.2c-5.028,3.638-8.807,4.967-15.166,6.138a24.485,24.485,0,0,1-11.249-.14c-3.329-.775-4.938-1.687-8.416-4.029a44.443,44.443,0,0,1-7-6.642v0a26.756,26.756,0,0,1-3.727-7.479c-.5-1.346-.876-2.729-1.271-4.108a11.453,11.453,0,0,1-.76-4.168q-.551-1.54-1.009-3.112a1.964,1.964,0,0,0-.95-.177,48.823,48.823,0,0,0,.065,12.463c.9,3.577,2.018,7.457,5.446,11.309a35.9,35.9,0,0,0,5.848,5.078,33.1,33.1,0,0,0,8.986,4.887,33.648,33.648,0,0,0,5.483.951l.031.006a20.843,20.843,0,0,0,6.064.147,26.278,26.278,0,0,0,4.634-1.005,40.07,40.07,0,0,0,9.234-3.28,24.062,24.062,0,0,0,2.134-1.423,45.471,45.471,0,0,0,9.11-7.446c.489-1.011.962-2.029,1.406-3.057.554-1.538,1.112-3.076,1.657-4.616A1.526,1.526,0,0,0,1262.045,295.23Z" transform="translate(-1202.921 -281.117)"/>
      </g>
      <g id="Grupo_153209" data-name="Grupo 153209" transform="translate(66.971 63.896)" opacity="0.129">
        <path id="Trazado_204658" data-name="Trazado 204658" d="M1265.321,306.779c-1.532-.441-2.556.624-3.31,1.792l-.1.122c-1.337,1.56-1.714,1.428-3.918,3.422l-.028.022a3.568,3.568,0,0,0-1.23.995,2.7,2.7,0,0,0,3.5,3.981,14.277,14.277,0,0,0,4.467-3.927,17.722,17.722,0,0,0,2.126-2.721A2.529,2.529,0,0,0,1265.321,306.779Z" transform="translate(-1256.134 -306.677)"/>
      </g>
    </g>
    <g id="Grupo_153211" data-name="Grupo 153211" transform="translate(1226.122 265.619)">
      <path id="Trazado_204659" data-name="Trazado 204659" d="M1226.953,278.611a5.986,5.986,0,0,1-5.072-5.452,7.814,7.814,0,0,1,3.541-6.855,11.4,11.4,0,0,1,7.745-1.633,12.179,12.179,0,0,1,8.682,5.039,8.947,8.947,0,0,1,.2,9.758c-1.744,2.544-5.039,4.112-5.725,7.119-.485,2.128.4,4.76-1.162,6.28-1.231,1.194-3.428.814-4.6-.44a6.682,6.682,0,0,1-1.447-4.8,8.549,8.549,0,0,1,.537-2.921c1.517-3.807,6.641-5.9,6.721-9.995a4.675,4.675,0,0,0-3.2-4.427c-1.494-.461-3.487.188-3.777,1.724-.2,1.039.432,2.046.572,3.095C1230.155,276.512,1229.343,278,1226.953,278.611Z" transform="translate(-1220.938 -263.645)" fill="#feca2e"/>
      <path id="Trazado_204660" data-name="Trazado 204660" d="M1233.308,294.568h-.106a4.7,4.7,0,0,1-3.26-1.456,7.5,7.5,0,0,1-1.695-5.459,9.364,9.364,0,0,1,.6-3.236,14.223,14.223,0,0,1,3.476-4.567c1.615-1.616,3.141-3.141,3.178-5.1a3.728,3.728,0,0,0-2.549-3.526,2.6,2.6,0,0,0-1.992.222,1.184,1.184,0,0,0-.605.792,3.27,3.27,0,0,0,.251,1.478,7.82,7.82,0,0,1,.329,1.322c.223,1.673-.632,3.741-3.7,4.527a.877.877,0,0,1-.315.024,6.881,6.881,0,0,1-5.905-6.3,8.715,8.715,0,0,1,3.943-7.7,12.262,12.262,0,0,1,8.375-1.785,13.126,13.126,0,0,1,9.34,5.445,9.871,9.871,0,0,1,.19,10.791,17.217,17.217,0,0,1-2.6,2.8c-1.351,1.252-2.629,2.434-2.987,4.006a10.1,10.1,0,0,0-.145,2.2c.005,1.54.012,3.287-1.273,4.534A3.62,3.62,0,0,1,1233.308,294.568Zm-1.081-25.3a4.309,4.309,0,0,1,1.271.187,5.56,5.56,0,0,1,3.852,5.328c-.052,2.706-1.915,4.571-3.718,6.373a12.676,12.676,0,0,0-3.066,3.945,7.559,7.559,0,0,0-.473,2.606,5.9,5.9,0,0,0,1.2,4.145,2.854,2.854,0,0,0,1.956.868,1.852,1.852,0,0,0,1.324-.463c.722-.7.718-1.86.712-3.2a11.59,11.59,0,0,1,.191-2.619c.486-2.129,2.035-3.564,3.533-4.952a15.582,15.582,0,0,0,2.33-2.485,7.983,7.983,0,0,0-.2-8.724,11.261,11.261,0,0,0-8.025-4.633,10.407,10.407,0,0,0-7.114,1.481,6.848,6.848,0,0,0-3.137,6.017,5.09,5.09,0,0,0,4.08,4.589c1.53-.436,2.319-1.323,2.168-2.45a6.256,6.256,0,0,0-.26-1.014,4.791,4.791,0,0,1-.3-2.374,3.028,3.028,0,0,1,1.467-2.03A4.336,4.336,0,0,1,1232.227,269.267Z" transform="translate(-1220.992 -263.699)"/>
    </g>
    <g id="Grupo_153212" data-name="Grupo 153212" transform="translate(1232.92 298.537)">
      <path id="Trazado_204661" data-name="Trazado 204661" d="M1233.79,295.8a4.277,4.277,0,0,0-3.873.579,3.916,3.916,0,1,0,3.873-.579Z" transform="translate(-1227.341 -294.65)" fill="#feca2e"/>
      <path id="Trazado_204662" data-name="Trazado 204662" d="M1232.25,304.582a4.49,4.49,0,0,1-.462-.023,5.014,5.014,0,0,1-4.382-4.515,5.075,5.075,0,0,1,2.015-4.351,5.187,5.187,0,0,1,4.725-.709h0c2.49.863,3.485,3.823,2.852,6.047A5.03,5.03,0,0,1,1232.25,304.582Zm.228-8.027a3.32,3.32,0,0,0-1.959.623,2.993,2.993,0,1,0,3.021-.449A3.274,3.274,0,0,0,1232.478,296.555Z" transform="translate(-1227.395 -294.704)"/>
    </g>
    <g id="Grupo_153224" data-name="Grupo 153224" transform="translate(1143.942 294.294)">
      <g id="Grupo_153213" data-name="Grupo 153213">
        <rect id="Rectángulo_293899" data-name="Rectángulo 293899" width="26.889" height="52.506" transform="translate(0.924 0.924)" fill="#fff"/>
        <path id="Trazado_204663" data-name="Trazado 204663" d="M1171.4,345.06h-26.889a.925.925,0,0,1-.925-.924V291.631a.925.925,0,0,1,.925-.924H1171.4a.924.924,0,0,1,.924.924v52.506A.924.924,0,0,1,1171.4,345.06Zm-25.966-1.847h25.042V292.554h-25.042Z" transform="translate(-1143.587 -290.707)"/>
      </g>
      <g id="Grupo_153214" data-name="Grupo 153214" transform="translate(2.787 46.499)">
        <path id="Trazado_204664" data-name="Trazado 204664" d="M1150.9,339.481a.307.307,0,0,1-.206-.079,60.175,60.175,0,0,1-4.405-4.385.308.308,0,1,1,.458-.413,59.188,59.188,0,0,0,4.359,4.339.309.309,0,0,1,.023.435A.305.305,0,0,1,1150.9,339.481Z" transform="translate(-1146.212 -334.504)"/>
      </g>
      <g id="Grupo_153215" data-name="Grupo 153215" transform="translate(3.273 40.667)">
        <path id="Trazado_204665" data-name="Trazado 204665" d="M1157.4,339.825a.3.3,0,0,1-.214-.087l-10.427-10.2a.308.308,0,1,1,.43-.441l10.427,10.2a.307.307,0,0,1-.216.528Z" transform="translate(-1146.67 -329.011)"/>
      </g>
      <g id="Grupo_153216" data-name="Grupo 153216" transform="translate(3.115 33.602)">
        <path id="Trazado_204666" data-name="Trazado 204666" d="M1163.279,339.9a.306.306,0,0,1-.221-.093l-16.449-16.926a.307.307,0,1,1,.441-.429l16.45,16.926a.308.308,0,0,1-.006.435A.3.3,0,0,1,1163.279,339.9Z" transform="translate(-1146.521 -322.357)"/>
      </g>
      <g id="Grupo_153217" data-name="Grupo 153217" transform="translate(3.386 26.756)">
        <path id="Trazado_204667" data-name="Trazado 204667" d="M1168.647,338.241a.306.306,0,0,1-.215-.088c-7.252-7.09-14.509-14.4-21.569-21.723a.308.308,0,1,1,.444-.427c7.056,7.319,14.307,14.624,21.556,21.711a.307.307,0,0,1-.214.528Z" transform="translate(-1146.776 -315.908)"/>
      </g>
      <g id="Grupo_153218" data-name="Grupo 153218" transform="translate(3.443 19.843)">
        <path id="Trazado_204668" data-name="Trazado 204668" d="M1168.582,330.653a.3.3,0,0,1-.2-.078c-7.377-6.541-14.6-13.492-21.463-20.658a.308.308,0,1,1,.445-.426c6.853,7.155,14.063,14.093,21.427,20.623a.309.309,0,0,1,.026.435A.305.305,0,0,1,1168.582,330.653Z" transform="translate(-1146.83 -309.397)"/>
      </g>
      <g id="Grupo_153219" data-name="Grupo 153219" transform="translate(3.205 12.791)">
        <path id="Trazado_204669" data-name="Trazado 204669" d="M1168.456,324.569a.311.311,0,0,1-.213-.085c-7.232-6.929-14.483-14.062-21.547-21.2a.308.308,0,0,1,.438-.433c7.061,7.138,14.306,14.268,21.535,21.192a.307.307,0,0,1-.212.53Z" transform="translate(-1146.606 -302.755)"/>
      </g>
      <g id="Grupo_153220" data-name="Grupo 153220" transform="translate(3.347 6.34)">
        <path id="Trazado_204670" data-name="Trazado 204670" d="M1168.515,317.755a.309.309,0,0,1-.212-.085l-21.468-20.46a.308.308,0,1,1,.424-.447l21.469,20.461a.308.308,0,0,1-.212.531Z" transform="translate(-1146.739 -296.678)"/>
      </g>
      <g id="Grupo_153221" data-name="Grupo 153221" transform="translate(8.487 3.351)">
        <path id="Trazado_204671" data-name="Trazado 204671" d="M1168.388,310.671a.305.305,0,0,1-.206-.079c-5.706-5.123-11.262-10.577-16.518-16.212a.308.308,0,0,1,.45-.42c5.244,5.622,10.788,11.064,16.479,16.175a.307.307,0,0,1-.2.536Z" transform="translate(-1151.581 -293.863)"/>
      </g>
      <g id="Grupo_153222" data-name="Grupo 153222" transform="translate(16.02 3.35)">
        <path id="Trazado_204672" data-name="Trazado 204672" d="M1167.743,303.117a.3.3,0,0,1-.213-.086c-2.954-2.836-5.9-5.745-8.765-8.644a.308.308,0,0,1,.438-.433c2.858,2.9,5.8,5.8,8.754,8.634a.308.308,0,0,1-.214.53Z" transform="translate(-1158.676 -293.862)"/>
      </g>
      <g id="Grupo_153223" data-name="Grupo 153223" transform="translate(22.061 3.35)">
        <path id="Trazado_204673" data-name="Trazado 204673" d="M1167.5,297.076a.312.312,0,0,1-.2-.071c-.982-.821-1.94-1.7-2.848-2.618a.308.308,0,0,1,.438-.433c.894.9,1.838,1.771,2.8,2.579a.307.307,0,0,1-.2.544Z" transform="translate(-1164.366 -293.862)"/>
      </g>
    </g>
    <g id="Grupo_153225" data-name="Grupo 153225" transform="translate(1202.451 310.451)" opacity="0.129">
      <path id="Trazado_204674" data-name="Trazado 204674" d="M1212.088,318.877a5.016,5.016,0,0,1,.3-1.6,63.215,63.215,0,0,1-6.067-4.667c-1.2-1.029-2-2.376-3.127-3.463a11.263,11.263,0,0,1-2.565-3.224c-1.562.488-2.533,2.032-1.526,3.262,2.508,3.389,4.848,6.9,8.157,9.887.333.307.656.621.979.934a7.693,7.693,0,0,0,1.575,1.474,3.542,3.542,0,0,0,2.605.467A13.344,13.344,0,0,1,1212.088,318.877Z" transform="translate(-1198.696 -305.926)"/>
    </g>
    <g id="Grupo_153230" data-name="Grupo 153230" transform="translate(1232.695 323.62)">
      <g id="Grupo_153226" data-name="Grupo 153226" transform="translate(26.09 3.85)" opacity="0.129">
        <path id="Trazado_204675" data-name="Trazado 204675" d="M1252.016,321.956c-.024.019-.051.036-.075.056-.063.048-.125.1-.184.144A2.883,2.883,0,0,0,1252.016,321.956Z" transform="translate(-1251.757 -321.956)"/>
      </g>
      <g id="Grupo_153227" data-name="Grupo 153227" transform="translate(26.067 4.051)" opacity="0.129">
        <path id="Trazado_204676" data-name="Trazado 204676" d="M1251.755,322.147l0,0-.023.017Z" transform="translate(-1251.735 -322.145)"/>
      </g>
      <g id="Grupo_153228" data-name="Grupo 153228" transform="translate(26.017 4.068)" opacity="0.129">
        <path id="Trazado_204677" data-name="Trazado 204677" d="M1251.738,322.161Z" transform="translate(-1251.688 -322.161)"/>
      </g>
      <g id="Grupo_153229" data-name="Grupo 153229" opacity="0.129">
        <path id="Trazado_204678" data-name="Trazado 204678" d="M1252.9,318.392c-1.242.582-.7.534-1.428.946a19.264,19.264,0,0,1-4.079,1.965,30.584,30.584,0,0,1-14.082,1.778,17.659,17.659,0,0,1-2.889-.575,21.1,21.1,0,0,1-2.643,0c-.208-.02-.4-.049-.6-.075.017,1.1.085,2.189.154,3.282a32.814,32.814,0,0,0,7.547,1.458,38.141,38.141,0,0,0,10.862-1.417,27.306,27.306,0,0,0,6.929-2.932c.268-.185.528-.381.783-.583.734-.574,1.655-1.153,1.639-2.174A1.749,1.749,0,0,0,1252.9,318.392Z" transform="translate(-1227.183 -318.33)"/>
      </g>
    </g>
  </g>
</svg>
