<svg xmlns="http://www.w3.org/2000/svg" width="172.685" height="142.414" viewBox="0 0 172.685 142.414">
  <g id="Grupo_152940" data-name="Grupo 152940" transform="translate(-83.055 -226.268)">
    <g id="Grupo_152802" data-name="Grupo 152802" transform="translate(83.055 257.02)">
      <rect id="Rectángulo_293862" data-name="Rectángulo 293862" width="136.196" height="109.758" transform="translate(0.952 0.952)" fill="#fff"/>
      <path id="Trazado_199676" data-name="Trazado 199676" d="M220.2,366.043H84.007a.952.952,0,0,1-.952-.952V255.333a.952.952,0,0,1,.952-.952H220.2a.952.952,0,0,1,.952.952V365.091A.952.952,0,0,1,220.2,366.043Zm-135.244-1.9H219.251V256.284H84.958Z" transform="translate(-83.055 -254.381)"/>
    </g>
    <g id="Grupo_152803" data-name="Grupo 152803" transform="translate(83.055 245.606)">
      <rect id="Rectángulo_293863" data-name="Rectángulo 293863" width="136.196" height="18.399" transform="translate(0.952 0.951)" fill="#feca2e"/>
      <path id="Trazado_199677" data-name="Trazado 199677" d="M220.2,264.248H84.007a.951.951,0,0,1-.952-.951V244.9a.952.952,0,0,1,.952-.952H220.2a.952.952,0,0,1,.952.952v18.4A.951.951,0,0,1,220.2,264.248Zm-135.244-1.9H219.251v-16.5H84.958Z" transform="translate(-83.055 -243.947)"/>
    </g>
    <g id="Grupo_152819" data-name="Grupo 152819" transform="translate(99.68 292.156)">
      <g id="Grupo_152804" data-name="Grupo 152804" transform="translate(28.092)">
        <rect id="Rectángulo_293864" data-name="Rectángulo 293864" width="17.288" height="59.151" transform="translate(0.952 0.952)" fill="#fff"/>
        <path id="Trazado_199678" data-name="Trazado 199678" d="M142.174,347.557H124.886a.952.952,0,0,1-.952-.952V287.454a.952.952,0,0,1,.952-.952h17.289a.952.952,0,0,1,.952.952v59.152A.952.952,0,0,1,142.174,347.557Zm-16.337-1.9h15.385V288.405H125.837Z" transform="translate(-123.934 -286.502)"/>
      </g>
      <g id="Grupo_152805" data-name="Grupo 152805" transform="translate(56.181 20.483)">
        <rect id="Rectángulo_293865" data-name="Rectángulo 293865" width="17.288" height="38.67" transform="translate(0.952 0.951)" fill="#feca2e"/>
        <path id="Trazado_199679" data-name="Trazado 199679" d="M167.853,345.8H150.565a.952.952,0,0,1-.952-.952V306.179a.952.952,0,0,1,.952-.952h17.289a.952.952,0,0,1,.952.952v38.669A.952.952,0,0,1,167.853,345.8Zm-16.337-1.9H166.9V307.13H151.516Z" transform="translate(-149.613 -305.227)"/>
      </g>
      <g id="Grupo_152818" data-name="Grupo 152818" transform="translate(0 13.995)">
        <g id="Grupo_152806" data-name="Grupo 152806">
          <rect id="Rectángulo_293866" data-name="Rectángulo 293866" width="17.288" height="45.156" transform="translate(0.952 0.952)" fill="#fff"/>
          <path id="Trazado_199680" data-name="Trazado 199680" d="M116.493,346.356H99.2a.952.952,0,0,1-.952-.952V300.248a.952.952,0,0,1,.952-.952h17.289a.952.952,0,0,1,.952.952V345.4A.952.952,0,0,1,116.493,346.356Zm-16.337-1.9h15.385V301.2H100.156Z" transform="translate(-98.253 -299.296)"/>
        </g>
        <g id="Grupo_152807" data-name="Grupo 152807" transform="translate(2.906 41.423)">
          <path id="Trazado_199681" data-name="Trazado 199681" d="M104.384,339.916a.31.31,0,0,1-.162-.045,35.145,35.145,0,0,1-3.186-2.136.318.318,0,0,1,.382-.508,34.414,34.414,0,0,0,3.128,2.1.317.317,0,0,1-.162.59Z" transform="translate(-100.91 -337.164)"/>
        </g>
        <g id="Grupo_152808" data-name="Grupo 152808" transform="translate(3.025 37.482)">
          <path id="Trazado_199682" data-name="Trazado 199682" d="M110.076,340.162a.316.316,0,0,1-.178-.055l-8.741-5.967a.318.318,0,1,1,.359-.524l8.74,5.967a.317.317,0,0,1-.179.579Z" transform="translate(-101.019 -333.562)"/>
        </g>
        <g id="Grupo_152809" data-name="Grupo 152809" transform="translate(3.031 33.153)">
          <path id="Trazado_199683" data-name="Trazado 199683" d="M113.677,337.922a.322.322,0,0,1-.167-.048l-12.336-7.684a.317.317,0,1,1,.336-.538l12.336,7.683a.318.318,0,0,1-.168.587Z" transform="translate(-101.024 -329.604)"/>
        </g>
        <g id="Grupo_152810" data-name="Grupo 152810" transform="translate(3.036 28.869)">
          <path id="Trazado_199684" data-name="Trazado 199684" d="M113.835,333.682a.325.325,0,0,1-.151-.038c-4.276-2.3-8.485-4.785-12.509-7.372a.317.317,0,1,1,.342-.534c4.011,2.579,8.206,5.05,12.468,7.346a.318.318,0,0,1-.15.6Z" transform="translate(-101.028 -325.688)"/>
        </g>
        <g id="Grupo_152811" data-name="Grupo 152811" transform="translate(3.051 24.162)">
          <path id="Trazado_199685" data-name="Trazado 199685" d="M113.668,329.319a.324.324,0,0,1-.156-.04c-4.156-2.346-8.3-4.8-12.32-7.307a.318.318,0,1,1,.336-.539c4.011,2.5,8.149,4.952,12.3,7.293a.317.317,0,0,1-.156.594Z" transform="translate(-101.042 -321.385)"/>
        </g>
        <g id="Grupo_152812" data-name="Grupo 152812" transform="translate(2.863 19.535)">
          <path id="Trazado_199686" data-name="Trazado 199686" d="M113.615,324.923a.316.316,0,0,1-.158-.043l-12.427-7.132a.317.317,0,1,1,.316-.55l12.427,7.132a.318.318,0,0,1-.159.593Z" transform="translate(-100.87 -317.155)"/>
        </g>
        <g id="Grupo_152813" data-name="Grupo 152813" transform="translate(2.912 15.052)">
          <path id="Trazado_199687" data-name="Trazado 199687" d="M113.663,320.866a.313.313,0,0,1-.151-.038c-4.219-2.283-8.406-4.7-12.446-7.183a.317.317,0,0,1,.331-.54c4.03,2.478,8.207,4.888,12.416,7.166a.317.317,0,0,1-.151.6Z" transform="translate(-100.915 -313.056)"/>
        </g>
        <g id="Grupo_152814" data-name="Grupo 152814" transform="translate(3.164 10.094)">
          <path id="Trazado_199688" data-name="Trazado 199688" d="M113.266,316.091a.306.306,0,0,1-.161-.045l-11.8-6.932a.317.317,0,1,1,.32-.547l11.8,6.933a.317.317,0,0,1-.161.591Z" transform="translate(-101.145 -308.524)"/>
        </g>
        <g id="Grupo_152815" data-name="Grupo 152815" transform="translate(3.215 5.406)">
          <path id="Trazado_199689" data-name="Trazado 199689" d="M113.21,311.841a.317.317,0,0,1-.158-.042c-3.93-2.253-7.87-4.6-11.711-6.974a.317.317,0,1,1,.334-.539c3.835,2.37,7.769,4.715,11.693,6.964a.317.317,0,0,1-.159.592Z" transform="translate(-101.192 -304.238)"/>
        </g>
        <g id="Grupo_152816" data-name="Grupo 152816" transform="translate(7.396 3.146)">
          <path id="Trazado_199690" data-name="Trazado 199690" d="M113.278,307.735a.312.312,0,0,1-.167-.048l-7.947-4.929a.317.317,0,0,1,.335-.539l7.947,4.929a.318.318,0,0,1-.167.587Z" transform="translate(-105.014 -302.172)"/>
        </g>
        <g id="Grupo_152817" data-name="Grupo 152817" transform="translate(13.295 2.618)">
          <path id="Trazado_199691" data-name="Trazado 199691" d="M112.761,303.654a.315.315,0,0,1-.173-.051l-2.038-1.33a.318.318,0,0,1,.348-.532l2.037,1.33a.317.317,0,0,1-.174.583Z" transform="translate(-110.407 -301.689)"/>
        </g>
      </g>
    </g>
    <g id="Grupo_152838" data-name="Grupo 152838" transform="translate(143.659 226.268)">
      <g id="Grupo_152836" data-name="Grupo 152836" transform="translate(0)">
        <g id="Grupo_152820" data-name="Grupo 152820" transform="translate(67.369 62.814)">
          <path id="Trazado_199692" data-name="Trazado 199692" d="M200.917,294.036l19.933,19.611a130.766,130.766,0,0,0,10.852,9.908c2.062,1.616,4.357,3.143,6.866,3.144a5.2,5.2,0,0,0,5.156-4.951c-.014-2.212-1.542-3.989-2.973-5.5q-15.87-16.738-33.121-31.69C205.527,287.643,203.422,290.727,200.917,294.036Z" transform="translate(-199.966 -283.611)" fill="#fff"/>
          <path id="Trazado_199693" data-name="Trazado 199693" d="M238.653,327.732h0c-2.8,0-5.236-1.609-7.454-3.346a132.437,132.437,0,0,1-10.932-9.979L200.331,294.8a.955.955,0,0,1-.092-1.254c2.489-3.288,4.62-6.412,6.682-9.432a.96.96,0,0,1,1.414-.19c11.462,9.932,22.628,20.616,33.189,31.755,1.555,1.641,3.217,3.6,3.233,6.148a5.634,5.634,0,0,1-1.694,4.014A6.379,6.379,0,0,1,238.653,327.732ZM202.26,294.024,221.6,313.05a130.971,130.971,0,0,0,10.771,9.837c1.95,1.527,4.059,2.939,6.281,2.941h0a4.436,4.436,0,0,0,3.061-1.332,3.738,3.738,0,0,0,1.142-2.66c-.012-1.851-1.347-3.412-2.712-4.851-10.27-10.831-21.115-21.232-32.248-30.925C206.144,288.624,204.325,291.263,202.26,294.024Z" transform="translate(-200.047 -283.692)"/>
        </g>
        <g id="Grupo_152822" data-name="Grupo 152822">
          <g id="Grupo_152821" data-name="Grupo 152821">
            <path id="Trazado_199694" data-name="Trazado 199694" d="M180.768,227.138a41.439,41.439,0,1,0,41.439,41.439A41.439,41.439,0,0,0,180.768,227.138Zm0,72.912a31.473,31.473,0,1,1,31.473-31.473A31.473,31.473,0,0,1,180.768,300.05Zm0,0a31.473,31.473,0,1,1,31.473-31.473A31.473,31.473,0,0,1,180.768,300.05Z" transform="translate(-138.377 -226.186)" fill="#fff"/>
            <path id="Trazado_199695" data-name="Trazado 199695" d="M180.85,311.049a42.391,42.391,0,1,1,42.391-42.391A42.439,42.439,0,0,1,180.85,311.049Zm0-82.878a40.487,40.487,0,1,0,40.487,40.487A40.533,40.533,0,0,0,180.85,228.171Zm0,72.912a32.424,32.424,0,1,1,32.424-32.424A32.461,32.461,0,0,1,180.85,301.083Zm-30.521-32.424a30.521,30.521,0,1,0,30.521-30.521A30.556,30.556,0,0,0,150.329,268.659Z" transform="translate(-138.459 -226.268)"/>
          </g>
        </g>
        <g id="Grupo_152823" data-name="Grupo 152823" transform="translate(73.347 71.241)">
          <path id="Trazado_199696" data-name="Trazado 199696" d="M205.829,294.582a.305.305,0,0,1-.088-.012.318.318,0,0,1-.218-.393l.73-2.551a.317.317,0,0,1,.609.174l-.73,2.552A.316.316,0,0,1,205.829,294.582Z" transform="translate(-205.512 -291.396)"/>
        </g>
        <g id="Grupo_152824" data-name="Grupo 152824" transform="translate(76.833 69.325)">
          <path id="Trazado_199697" data-name="Trazado 199697" d="M209.017,299.215a.257.257,0,0,1-.042,0,.318.318,0,0,1-.275-.356c.389-2.979.859-5.99,1.4-8.953a.32.32,0,0,1,.37-.255.316.316,0,0,1,.255.369c-.536,2.952-1,5.954-1.391,8.92A.318.318,0,0,1,209.017,299.215Z" transform="translate(-208.699 -289.645)"/>
        </g>
        <g id="Grupo_152825" data-name="Grupo 152825" transform="translate(81.359 73.169)">
          <path id="Trazado_199698" data-name="Trazado 199698" d="M213.154,303.222a.317.317,0,0,1-.317-.317c0-1.492.23-4,.432-6.2.124-1.347.231-2.509.267-3.241a.307.307,0,0,1,.333-.3.317.317,0,0,1,.3.333c-.037.745-.144,1.913-.268,3.267-.2,2.194-.43,4.682-.43,6.145A.317.317,0,0,1,213.154,303.222Z" transform="translate(-212.837 -293.158)"/>
        </g>
        <g id="Grupo_152826" data-name="Grupo 152826" transform="translate(85.755 76.287)">
          <path id="Trazado_199699" data-name="Trazado 199699" d="M217.412,307.227a.316.316,0,0,1-.317-.31l-.24-10.583a.318.318,0,0,1,.31-.325.308.308,0,0,1,.325.31l.24,10.583a.318.318,0,0,1-.31.325Z" transform="translate(-216.855 -296.009)"/>
        </g>
        <g id="Grupo_152827" data-name="Grupo 152827" transform="translate(89.99 80.469)">
          <path id="Trazado_199700" data-name="Trazado 199700" d="M221.459,311.549a.318.318,0,0,1-.317-.305l-.415-11.084a.317.317,0,0,1,.634-.023l.415,11.083a.318.318,0,0,1-.305.329Z" transform="translate(-220.727 -299.832)"/>
        </g>
        <g id="Grupo_152828" data-name="Grupo 152828" transform="translate(94.333 85.144)">
          <path id="Trazado_199701" data-name="Trazado 199701" d="M225.574,315.094a.316.316,0,0,1-.316-.3l-.56-10.353a.316.316,0,0,1,.3-.334.3.3,0,0,1,.335.3l.56,10.355a.317.317,0,0,1-.3.334Z" transform="translate(-224.698 -304.105)"/>
        </g>
        <g id="Grupo_152829" data-name="Grupo 152829" transform="translate(98.56 89.064)">
          <path id="Trazado_199702" data-name="Trazado 199702" d="M229.655,318.4a.316.316,0,0,1-.315-.293l-.778-10.079a.317.317,0,1,1,.632-.048l.778,10.079a.317.317,0,0,1-.292.34Z" transform="translate(-228.561 -307.69)"/>
        </g>
        <g id="Grupo_152830" data-name="Grupo 152830" transform="translate(102.636 93.582)">
          <path id="Trazado_199703" data-name="Trazado 199703" d="M233.512,321.294a.316.316,0,0,1-.314-.285l-.909-8.84a.317.317,0,0,1,.283-.348.322.322,0,0,1,.347.283l.909,8.841a.315.315,0,0,1-.283.347Z" transform="translate(-232.287 -311.819)"/>
        </g>
        <g id="Grupo_152831" data-name="Grupo 152831" transform="translate(107.025 98.001)">
          <path id="Trazado_199704" data-name="Trazado 199704" d="M237.255,320.444a.317.317,0,0,1-.312-.266l-.639-3.95a.317.317,0,0,1,.263-.364.314.314,0,0,1,.364.263l.638,3.95a.316.316,0,0,1-.263.363A.273.273,0,0,1,237.255,320.444Z" transform="translate(-236.3 -315.859)"/>
        </g>
        <g id="Grupo_152832" data-name="Grupo 152832" transform="translate(10.792 37.874)" opacity="0.129">
          <path id="Trazado_199705" data-name="Trazado 199705" d="M209.239,275.433c-1.04.879-1.522,2.3-2.405,3.337a42.9,42.9,0,0,1-3.491,3.835c-1.04.929-2.038,1.746-3.053,2.52a1.578,1.578,0,0,0-.532.21c-5.181,3.749-9.074,5.117-15.626,6.324a25.256,25.256,0,0,1-11.589-.144c-3.431-.8-5.088-1.738-8.671-4.152a45.725,45.725,0,0,1-7.216-6.842l0,0a27.553,27.553,0,0,1-3.838-7.705c-.515-1.387-.9-2.811-1.31-4.232a11.826,11.826,0,0,1-.783-4.294c-.377-1.058-.726-2.128-1.038-3.207a2.039,2.039,0,0,0-.979-.182,50.291,50.291,0,0,0,.067,12.84c.931,3.686,2.079,7.684,5.61,11.653a36.956,36.956,0,0,0,6.026,5.231,34.089,34.089,0,0,0,9.257,5.036,34.713,34.713,0,0,0,5.649.98l.032.007a21.522,21.522,0,0,0,6.249.151,27.19,27.19,0,0,0,4.775-1.036,41.353,41.353,0,0,0,9.513-3.379,24.568,24.568,0,0,0,2.2-1.466,46.864,46.864,0,0,0,9.388-7.671c.5-1.042.991-2.09,1.448-3.15.571-1.584,1.145-3.168,1.706-4.756A1.577,1.577,0,0,0,209.239,275.433Z" transform="translate(-148.325 -260.892)"/>
        </g>
        <g id="Grupo_152835" data-name="Grupo 152835" transform="translate(0.732 57.537)">
          <g id="Grupo_152833" data-name="Grupo 152833" transform="translate(47.028 27.205)" opacity="0.129">
            <path id="Trazado_199706" data-name="Trazado 199706" d="M182.407,303.739c.015,0-.078.007-.286.037l.1-.011Z" transform="translate(-182.121 -303.738)"/>
          </g>
          <g id="Grupo_152834" data-name="Grupo 152834" opacity="0.129">
            <path id="Trazado_199707" data-name="Trazado 199707" d="M216.86,287.268c-1.577-.453-2.633.644-3.41,1.848l-.106.126c-1.377,1.607-1.767,1.471-4.036,3.526l-.028.022a3.691,3.691,0,0,0-1.268,1.026,2.573,2.573,0,0,0-.289,2.914c-.934-.324-1.733.375-2.444.984-.475.334-1.764,1.244-2.013,1.363a83.129,83.129,0,0,1-9.03,4.844,30.324,30.324,0,0,1-7.576,2.122c.194-.019.406-.06.545-.073-.255.033-.509.069-.764.105-.011,0-.078.013-.187.026l-.244.034.145-.023c-.061.008-.131.014-.211.022a36.361,36.361,0,0,1-10.51-.269c-1.537-.224-2.831-.3-5.442-.881a36.9,36.9,0,0,1-4.268-1.42l-.049-.021-.054-.023-.27-.119c-3.364-1.538-4.253-2.78-7.423-5.277-2.484-2.11-3.944-2.8-6.667-5.408-3.792-3.513-5.442-7.233-8.3-12.32-1.04-2.772-4.813-1.425-3.6,1.283,2.625,4.718,4.921,9.721,8.879,13.515a71.951,71.951,0,0,0,6.693,5.734c2.37,1.873,4.54,4.063,7.22,5.5,4.482,2.431,9.522,3.236,14.524,3.8a33.9,33.9,0,0,0,22.806-4.654c2.131-1.277,4.2-2.661,6.291-4,.992-.788,2.364-1.437,2.981-2.554a1.515,1.515,0,0,0,.082-1.1,2.65,2.65,0,0,0,2.771,0,14.733,14.733,0,0,0,4.6-4.046,18.268,18.268,0,0,0,2.191-2.8A2.607,2.607,0,0,0,216.86,287.268Z" transform="translate(-139.128 -278.868)"/>
          </g>
        </g>
      </g>
      <g id="Grupo_152837" data-name="Grupo 152837" transform="translate(26.787 27.647)">
        <path id="Trazado_199708" data-name="Trazado 199708" d="M168.749,258.885l-4.932,4.6,13.442,14.938,14.861-21.635-5.505-4.377-10.377,14.625Z" transform="translate(-162.865 -251.461)" fill="#feca2e"/>
        <path id="Trazado_199709" data-name="Trazado 199709" d="M177.34,279.456a.953.953,0,0,1-.708-.315L163.191,264.2a.953.953,0,0,1,.058-1.332l4.932-4.6a.937.937,0,0,1,.686-.256.95.95,0,0,1,.664.307l6.692,7.285,9.7-13.666a.951.951,0,0,1,1.368-.194l5.505,4.377a.95.95,0,0,1,.193,1.283l-14.861,21.636a.951.951,0,0,1-.722.411Zm-12.109-15.83,12.008,13.345,13.675-19.908-4.024-3.2-9.8,13.806a.957.957,0,0,1-.716.4.944.944,0,0,1-.76-.306l-6.84-7.445Z" transform="translate(-162.947 -251.542)"/>
      </g>
    </g>
    <g id="Grupo_152841" data-name="Grupo 152841" transform="translate(99.834 351.802)">
      <g id="Grupo_152839" data-name="Grupo 152839" transform="translate(17.124 0.278)" opacity="0.129">
        <path id="Trazado_199710" data-name="Trazado 199710" d="M114.048,341.317l.235-.033Z" transform="translate(-114.048 -341.284)"/>
      </g>
      <g id="Grupo_152840" data-name="Grupo 152840" transform="translate(0 0)" opacity="0.129">
        <path id="Trazado_199711" data-name="Trazado 199711" d="M116.337,341.247c-.068,0-.175.011-.328.027l-.1.013-.069.009-.088.012.113-.014-.353.047h.005l-.063.009a2.311,2.311,0,0,0-1.6-.282c-3.1.023-6.187.231-9.28.345-1.66.1-3.425-.159-5.032.26a1.9,1.9,0,0,0,.733,3.643q5.979-.115,11.952-.38c.6,0,1.2-.009,1.792-.03.129,0,.256-.01.383-.019a17.771,17.771,0,0,0,1.881-.177l-.462.062.319-.04-.051.007c.11-.01.222-.019.333-.02a1.748,1.748,0,1,0-.084-3.472Z" transform="translate(-98.394 -341.03)"/>
      </g>
    </g>
    <g id="Grupo_152842" data-name="Grupo 152842" transform="translate(127.445 351.814)" opacity="0.129">
      <path id="Trazado_199712" data-name="Trazado 199712" d="M141.177,341.119a28.453,28.453,0,0,1-3.495-.078c-2.345.09-4.69.06-7.037.1-1.915.2-3.941-.178-5.8.31a2,2,0,0,0,.77,3.825c5.179-.337,10.375.023,15.561-.194A1.982,1.982,0,0,0,141.177,341.119Z" transform="translate(-123.636 -341.041)"/>
    </g>
    <g id="Grupo_152843" data-name="Grupo 152843" transform="translate(155.317 351.471)" opacity="0.129">
      <path id="Trazado_199713" data-name="Trazado 199713" d="M168.513,341.337c-1.228-1.079-3.273-.384-4.787-.448-3.173.094-6.349.346-9.523.2-.792-.023-1.588-.016-2.378-.093a2.835,2.835,0,0,0-1.211-.01,2.113,2.113,0,0,0-1.217.936,2.054,2.054,0,0,0,1.76,3.067c3.6.119,7.218-.112,10.824-.156,1.4-.028,2.8-.075,4.2-.164a4.665,4.665,0,0,0,1.708-.194A1.933,1.933,0,0,0,168.513,341.337Z" transform="translate(-149.116 -340.728)"/>
    </g>
  </g>
</svg>
