<svg xmlns="http://www.w3.org/2000/svg" width="172.685" height="133.485" viewBox="0 0 172.685 133.485">
  <g id="Grupo_205171" data-name="Grupo 205171" transform="translate(6344.342 13065.177)">
    <g id="Grupo_152935" data-name="Grupo 152935" transform="translate(-7482.179 -13297.75)">
      <g id="Grupo_152897" data-name="Grupo 152897" transform="translate(1137.837 364.153)">
        <path id="Trazado_199754" data-name="Trazado 199754" d="M1270.182,354.627H1138.79a.953.953,0,0,1,0-1.906h131.392a.953.953,0,0,1,0,1.906Z" transform="translate(-1137.837 -352.721)"/>
      </g>
      <g id="Grupo_152898" data-name="Grupo 152898" transform="translate(1235.139 232.573)">
        <rect id="Rectángulo_293869" data-name="Rectángulo 293869" width="27.736" height="117.826" transform="translate(0.953 0.952)" fill="#fff"/>
        <path id="Trazado_199755" data-name="Trazado 199755" d="M1255.375,352.3h-27.737a.953.953,0,0,1-.953-.953V233.525a.952.952,0,0,1,.953-.952h27.737a.952.952,0,0,1,.953.952V351.351A.953.953,0,0,1,1255.375,352.3Zm-26.784-1.906h25.831V234.479h-25.831Z" transform="translate(-1226.685 -232.573)"/>
      </g>
      <g id="Grupo_152899" data-name="Grupo 152899" transform="translate(1189.666 270.116)">
        <rect id="Rectángulo_293870" data-name="Rectángulo 293870" width="27.736" height="80.284" transform="translate(0.952 0.952)" fill="#feca2e"/>
        <path id="Trazado_199756" data-name="Trazado 199756" d="M1213.851,349.043h-27.736a.953.953,0,0,1-.953-.953V267.807a.953.953,0,0,1,.953-.953h27.736a.952.952,0,0,1,.953.953V348.09A.953.953,0,0,1,1213.851,349.043Zm-26.783-1.906h25.83V268.76h-25.83Z" transform="translate(-1185.163 -266.854)"/>
      </g>
      <g id="Grupo_152914" data-name="Grupo 152914" transform="translate(1198.309 247.819)">
        <g id="Grupo_152900" data-name="Grupo 152900" transform="translate(67.448 62.887)">
          <path id="Trazado_199757" data-name="Trazado 199757" d="M1255.513,314.273l19.958,19.634a131.048,131.048,0,0,0,10.864,9.919c2.064,1.618,4.362,3.146,6.874,3.148a5.2,5.2,0,0,0,5.163-4.957c-.014-2.214-1.543-3.994-2.977-5.505q-15.888-16.757-33.16-31.727C1260.128,307.872,1258.021,310.96,1255.513,314.273Z" transform="translate(-1254.561 -303.835)" fill="#fff"/>
          <path id="Trazado_199758" data-name="Trazado 199758" d="M1293.294,348.009h0c-2.8,0-5.241-1.611-7.461-3.35a132.106,132.106,0,0,1-10.946-9.99l-19.957-19.634a.955.955,0,0,1-.092-1.254c2.491-3.293,4.626-6.42,6.69-9.445a.96.96,0,0,1,1.416-.189c11.475,9.944,22.655,20.64,33.228,31.791,1.557,1.644,3.221,3.61,3.238,6.155a5.635,5.635,0,0,1-1.7,4.019A6.384,6.384,0,0,1,1293.294,348.009Zm-36.434-33.748,19.361,19.049a131.191,131.191,0,0,0,10.784,9.85c1.953,1.528,4.065,2.943,6.288,2.944h0a4.443,4.443,0,0,0,3.064-1.334,3.752,3.752,0,0,0,1.143-2.663c-.013-1.851-1.349-3.415-2.716-4.857-10.282-10.844-21.14-21.256-32.285-30.961C1260.747,308.856,1258.926,311.5,1256.86,314.261Z" transform="translate(-1254.644 -303.918)"/>
        </g>
        <g id="Grupo_152902" data-name="Grupo 152902">
          <g id="Grupo_152901" data-name="Grupo 152901">
            <path id="Trazado_199759" data-name="Trazado 199759" d="M1235.412,247.364A41.487,41.487,0,1,0,1276.9,288.85,41.487,41.487,0,0,0,1235.412,247.364Zm0,73a31.51,31.51,0,1,1,31.51-31.511A31.51,31.51,0,0,1,1235.412,320.361Zm0,0a31.51,31.51,0,1,1,31.51-31.511A31.51,31.51,0,0,1,1235.412,320.361Z" transform="translate(-1192.972 -246.411)" fill="#fff"/>
            <path id="Trazado_199760" data-name="Trazado 199760" d="M1235.5,331.373a42.44,42.44,0,1,1,42.44-42.439A42.488,42.488,0,0,1,1235.5,331.373Zm0-82.974a40.534,40.534,0,1,0,40.535,40.535A40.581,40.581,0,0,0,1235.5,248.4Zm0,73a32.462,32.462,0,1,1,32.462-32.461A32.5,32.5,0,0,1,1235.5,321.4Zm-30.557-32.461a30.557,30.557,0,1,0,30.557-30.558A30.591,30.591,0,0,0,1204.938,288.934Z" transform="translate(-1193.055 -246.494)"/>
          </g>
        </g>
        <g id="Grupo_152903" data-name="Grupo 152903" transform="translate(73.433 71.324)">
          <path id="Trazado_199761" data-name="Trazado 199761" d="M1260.426,314.811a.307.307,0,0,1-.088-.012.318.318,0,0,1-.218-.393l.73-2.553a.317.317,0,1,1,.61.174l-.729,2.554A.318.318,0,0,1,1260.426,314.811Z" transform="translate(-1260.108 -311.621)"/>
        </g>
        <g id="Grupo_152904" data-name="Grupo 152904" transform="translate(76.923 69.406)">
          <path id="Trazado_199762" data-name="Trazado 199762" d="M1263.614,319.451a.263.263,0,0,1-.042,0,.318.318,0,0,1-.274-.356c.389-2.981.86-6,1.4-8.964a.318.318,0,0,1,.625.114c-.538,2.956-1.006,5.961-1.394,8.932A.318.318,0,0,1,1263.614,319.451Z" transform="translate(-1263.295 -309.87)"/>
        </g>
        <g id="Grupo_152905" data-name="Grupo 152905" transform="translate(81.455 73.253)">
          <path id="Trazado_199763" data-name="Trazado 199763" d="M1267.751,323.459a.318.318,0,0,1-.318-.319c0-1.494.23-4,.433-6.211.125-1.347.231-2.511.267-3.244a.3.3,0,0,1,.334-.3.317.317,0,0,1,.3.333c-.037.746-.145,1.915-.268,3.27-.2,2.2-.431,4.688-.431,6.153A.317.317,0,0,1,1267.751,323.459Z" transform="translate(-1267.433 -313.383)"/>
        </g>
        <g id="Grupo_152906" data-name="Grupo 152906" transform="translate(85.855 76.375)">
          <path id="Trazado_199764" data-name="Trazado 199764" d="M1272.008,327.465a.318.318,0,0,1-.318-.31l-.24-10.6a.319.319,0,0,1,.311-.325h.008a.318.318,0,0,1,.318.31l.239,10.6a.316.316,0,0,1-.31.324Z" transform="translate(-1271.451 -316.234)"/>
        </g>
        <g id="Grupo_152907" data-name="Grupo 152907" transform="translate(90.095 80.562)">
          <path id="Trazado_199765" data-name="Trazado 199765" d="M1276.056,331.788a.319.319,0,0,1-.317-.306l-.415-11.1a.318.318,0,0,1,.306-.33.324.324,0,0,1,.329.306l.415,11.1a.318.318,0,0,1-.306.329Z" transform="translate(-1275.323 -320.057)"/>
        </g>
        <g id="Grupo_152908" data-name="Grupo 152908" transform="translate(94.444 85.245)">
          <path id="Trazado_199766" data-name="Trazado 199766" d="M1280.171,335.333a.318.318,0,0,1-.317-.3l-.561-10.366a.317.317,0,0,1,.3-.334.306.306,0,0,1,.334.3l.561,10.366a.317.317,0,0,1-.3.334Z" transform="translate(-1279.294 -324.333)"/>
        </g>
        <g id="Grupo_152909" data-name="Grupo 152909" transform="translate(98.675 89.168)">
          <path id="Trazado_199767" data-name="Trazado 199767" d="M1284.253,338.642a.317.317,0,0,1-.316-.292l-.779-10.092a.317.317,0,1,1,.633-.048l.779,10.091a.316.316,0,0,1-.292.341Z" transform="translate(-1283.157 -327.915)"/>
        </g>
        <g id="Grupo_152910" data-name="Grupo 152910" transform="translate(102.756 93.69)">
          <path id="Trazado_199768" data-name="Trazado 199768" d="M1288.111,341.53a.317.317,0,0,1-.315-.285l-.91-8.851a.316.316,0,0,1,.284-.347.321.321,0,0,1,.347.283l.91,8.851a.316.316,0,0,1-.282.347Z" transform="translate(-1286.884 -332.045)"/>
        </g>
        <g id="Grupo_152911" data-name="Grupo 152911" transform="translate(107.151 98.115)">
          <path id="Trazado_199769" data-name="Trazado 199769" d="M1291.853,340.676a.318.318,0,0,1-.313-.267l-.639-3.955a.315.315,0,0,1,.262-.364.312.312,0,0,1,.365.262l.638,3.956a.316.316,0,0,1-.262.364A.281.281,0,0,1,1291.853,340.676Z" transform="translate(-1290.897 -336.085)"/>
        </g>
        <g id="Grupo_152912" data-name="Grupo 152912" transform="translate(10.804 37.918)" opacity="0.129">
          <path id="Trazado_199770" data-name="Trazado 199770" d="M1263.908,295.675c-1.043.88-1.524,2.3-2.409,3.342a43.106,43.106,0,0,1-3.495,3.84c-1.041.929-2.039,1.747-3.057,2.522a1.626,1.626,0,0,0-.532.21c-5.187,3.753-9.084,5.123-15.644,6.331a25.256,25.256,0,0,1-11.6-.145c-3.434-.8-5.094-1.74-8.681-4.156a45.838,45.838,0,0,1-7.225-6.851v0a27.6,27.6,0,0,1-3.844-7.714c-.516-1.389-.9-2.815-1.311-4.237a11.811,11.811,0,0,1-.784-4.3q-.569-1.589-1.041-3.21a2.026,2.026,0,0,0-.98-.183,50.366,50.366,0,0,0,.067,12.856c.932,3.69,2.082,7.692,5.618,11.665a37.025,37.025,0,0,0,6.032,5.238,34.143,34.143,0,0,0,9.269,5.041,34.709,34.709,0,0,0,5.655.981l.032.007a21.5,21.5,0,0,0,6.255.151,27.105,27.105,0,0,0,4.78-1.037,41.335,41.335,0,0,0,9.524-3.383,24.811,24.811,0,0,0,2.2-1.468,46.9,46.9,0,0,0,9.4-7.68c.5-1.043.992-2.093,1.45-3.153.572-1.587,1.147-3.173,1.71-4.762A1.575,1.575,0,0,0,1263.908,295.675Z" transform="translate(-1202.921 -281.117)"/>
        </g>
        <g id="Grupo_152913" data-name="Grupo 152913" transform="translate(69.081 65.909)" opacity="0.129">
          <path id="Trazado_199771" data-name="Trazado 199771" d="M1265.61,306.782c-1.58-.454-2.636.644-3.415,1.849l-.106.126c-1.379,1.609-1.768,1.473-4.041,3.53l-.028.023a3.68,3.68,0,0,0-1.269,1.026,2.788,2.788,0,0,0,3.605,4.107,14.725,14.725,0,0,0,4.607-4.051,18.275,18.275,0,0,0,2.193-2.807A2.608,2.608,0,0,0,1265.61,306.782Z" transform="translate(-1256.134 -306.677)"/>
        </g>
      </g>
      <g id="Grupo_152915" data-name="Grupo 152915" transform="translate(1228.904 266.66)">
        <path id="Trazado_199772" data-name="Trazado 199772" d="M1227.113,279.053a6.174,6.174,0,0,1-5.231-5.624,8.061,8.061,0,0,1,3.652-7.071,11.761,11.761,0,0,1,7.989-1.684,12.562,12.562,0,0,1,8.956,5.2,9.229,9.229,0,0,1,.2,10.065c-1.8,2.624-5.2,4.242-5.9,7.343-.5,2.195.416,4.91-1.2,6.478-1.27,1.232-3.536.84-4.743-.453a6.892,6.892,0,0,1-1.493-4.953,8.818,8.818,0,0,1,.554-3.013c1.565-3.927,6.85-6.082,6.932-10.31a4.823,4.823,0,0,0-3.3-4.567c-1.541-.475-3.6.194-3.9,1.779-.2,1.072.446,2.11.59,3.192C1230.416,276.888,1229.579,278.423,1227.113,279.053Z" transform="translate(-1220.91 -263.616)" fill="#feca2e"/>
        <path id="Trazado_199773" data-name="Trazado 199773" d="M1233.7,295.54h-.11a4.848,4.848,0,0,1-3.363-1.5,7.733,7.733,0,0,1-1.748-5.631,9.662,9.662,0,0,1,.621-3.338,14.672,14.672,0,0,1,3.586-4.711c1.666-1.667,3.24-3.239,3.278-5.264a3.845,3.845,0,0,0-2.629-3.637,2.686,2.686,0,0,0-2.055.229,1.222,1.222,0,0,0-.624.817,3.374,3.374,0,0,0,.258,1.524,8.062,8.062,0,0,1,.34,1.363c.23,1.726-.652,3.859-3.817,4.67a.9.9,0,0,1-.325.025,7.1,7.1,0,0,1-6.091-6.5,8.989,8.989,0,0,1,4.067-7.938,12.648,12.648,0,0,1,8.638-1.841,13.539,13.539,0,0,1,9.634,5.617,10.182,10.182,0,0,1,.2,11.131,17.757,17.757,0,0,1-2.682,2.884c-1.394,1.291-2.712,2.511-3.081,4.132a10.4,10.4,0,0,0-.15,2.272c.005,1.589.012,3.391-1.313,4.677A3.734,3.734,0,0,1,1233.7,295.54Zm-1.115-26.1a4.445,4.445,0,0,1,1.311.193,5.735,5.735,0,0,1,3.973,5.5c-.054,2.792-1.976,4.715-3.835,6.574a13.075,13.075,0,0,0-3.163,4.07,7.8,7.8,0,0,0-.487,2.689,6.089,6.089,0,0,0,1.236,4.275,2.944,2.944,0,0,0,2.017.9,1.911,1.911,0,0,0,1.366-.478c.745-.723.74-1.919.735-3.3a11.959,11.959,0,0,1,.2-2.7c.5-2.2,2.1-3.676,3.645-5.108a16.073,16.073,0,0,0,2.4-2.564,8.235,8.235,0,0,0-.211-9,11.616,11.616,0,0,0-8.278-4.779,10.736,10.736,0,0,0-7.339,1.528,7.064,7.064,0,0,0-3.236,6.206,5.25,5.25,0,0,0,4.209,4.733c1.578-.45,2.392-1.365,2.236-2.528a6.446,6.446,0,0,0-.268-1.046,4.944,4.944,0,0,1-.313-2.449,3.124,3.124,0,0,1,1.514-2.094A4.472,4.472,0,0,1,1232.581,269.442Z" transform="translate(-1220.992 -263.699)"/>
      </g>
      <g id="Grupo_152916" data-name="Grupo 152916" transform="translate(1235.916 300.616)">
        <path id="Trazado_199774" data-name="Trazado 199774" d="M1233.964,295.809a4.412,4.412,0,0,0-4,.6,4.108,4.108,0,1,0,6.332,4.479C1236.824,299.052,1236.042,296.529,1233.964,295.809Z" transform="translate(-1227.312 -294.621)" fill="#feca2e"/>
        <path id="Trazado_199775" data-name="Trazado 199775" d="M1232.4,304.893a4.635,4.635,0,0,1-.476-.024,5.172,5.172,0,0,1-4.52-4.658,5.235,5.235,0,0,1,2.078-4.488,5.35,5.35,0,0,1,4.874-.732h0c2.568.89,3.6,3.944,2.941,6.238A5.189,5.189,0,0,1,1232.4,304.893Zm.235-8.28a3.425,3.425,0,0,0-2.021.643,3.087,3.087,0,1,0,3.117-.463A3.377,3.377,0,0,0,1232.639,296.613Z" transform="translate(-1227.395 -294.704)"/>
      </g>
      <g id="Grupo_152928" data-name="Grupo 152928" transform="translate(1144.134 296.238)">
        <g id="Grupo_152917" data-name="Grupo 152917">
          <rect id="Rectángulo_293871" data-name="Rectángulo 293871" width="27.736" height="54.16" transform="translate(0.953 0.953)" fill="#fff"/>
          <path id="Trazado_199776" data-name="Trazado 199776" d="M1172.277,346.773h-27.736a.954.954,0,0,1-.954-.953V291.66a.954.954,0,0,1,.954-.953h27.736a.953.953,0,0,1,.953.953v54.16A.953.953,0,0,1,1172.277,346.773Zm-26.784-1.906h25.831V292.613h-25.831Z" transform="translate(-1143.587 -290.707)"/>
        </g>
        <g id="Grupo_152918" data-name="Grupo 152918" transform="translate(2.875 47.964)">
          <path id="Trazado_199777" data-name="Trazado 199777" d="M1151.05,339.638a.317.317,0,0,1-.212-.081,62.075,62.075,0,0,1-4.544-4.523.318.318,0,1,1,.472-.426,61.049,61.049,0,0,0,4.5,4.476.318.318,0,0,1,.024.449A.314.314,0,0,1,1151.05,339.638Z" transform="translate(-1146.212 -334.504)"/>
        </g>
        <g id="Grupo_152919" data-name="Grupo 152919" transform="translate(3.377 41.948)">
          <path id="Trazado_199778" data-name="Trazado 199778" d="M1157.743,340.166a.314.314,0,0,1-.221-.09l-10.755-10.521a.318.318,0,0,1,.443-.454l10.755,10.521a.317.317,0,0,1-.222.544Z" transform="translate(-1146.67 -329.011)"/>
        </g>
        <g id="Grupo_152920" data-name="Grupo 152920" transform="translate(3.214 34.661)">
          <path id="Trazado_199779" data-name="Trazado 199779" d="M1163.807,340.451a.316.316,0,0,1-.228-.1L1146.612,322.9a.317.317,0,1,1,.454-.442l16.968,17.459a.318.318,0,0,1-.007.449A.314.314,0,0,1,1163.807,340.451Z" transform="translate(-1146.521 -322.357)"/>
        </g>
        <g id="Grupo_152921" data-name="Grupo 152921" transform="translate(3.493 27.599)">
          <path id="Trazado_199780" data-name="Trazado 199780" d="M1169.336,338.944a.316.316,0,0,1-.222-.091c-7.481-7.313-14.966-14.852-22.249-22.408a.318.318,0,1,1,.458-.44c7.278,7.55,14.758,15.085,22.235,22.395a.317.317,0,0,1-.221.544Z" transform="translate(-1146.776 -315.908)"/>
        </g>
        <g id="Grupo_152922" data-name="Grupo 152922" transform="translate(3.552 20.468)">
          <path id="Trazado_199781" data-name="Trazado 199781" d="M1169.267,331.323a.311.311,0,0,1-.21-.08c-7.609-6.747-15.057-13.917-22.139-21.309a.318.318,0,1,1,.459-.439c7.069,7.38,14.506,14.537,22.1,21.273a.319.319,0,0,1,.026.449A.314.314,0,0,1,1169.267,331.323Z" transform="translate(-1146.83 -309.397)"/>
        </g>
        <g id="Grupo_152923" data-name="Grupo 152923" transform="translate(3.306 13.194)">
          <path id="Trazado_199782" data-name="Trazado 199782" d="M1169.144,325.256a.321.321,0,0,1-.22-.088c-7.46-7.147-14.939-14.505-22.226-21.872a.318.318,0,0,1,.451-.447c7.284,7.363,14.757,14.718,22.214,21.86a.317.317,0,0,1-.219.546Z" transform="translate(-1146.606 -302.755)"/>
        </g>
        <g id="Grupo_152924" data-name="Grupo 152924" transform="translate(3.452 6.539)">
          <path id="Trazado_199783" data-name="Trazado 199783" d="M1169.2,318.419a.318.318,0,0,1-.219-.088l-22.144-21.1a.318.318,0,1,1,.437-.461l22.145,21.106a.318.318,0,0,1-.219.548Z" transform="translate(-1146.739 -296.678)"/>
        </g>
        <g id="Grupo_152925" data-name="Grupo 152925" transform="translate(8.755 3.456)">
          <path id="Trazado_199784" data-name="Trazado 199784" d="M1168.917,311.2a.315.315,0,0,1-.213-.081c-5.885-5.284-11.617-10.91-17.038-16.723a.318.318,0,0,1,.464-.434c5.409,5.8,11.128,11.413,17,16.685a.317.317,0,0,1-.211.553Z" transform="translate(-1151.581 -293.863)"/>
        </g>
        <g id="Grupo_152926" data-name="Grupo 152926" transform="translate(16.524 3.455)">
          <path id="Trazado_199785" data-name="Trazado 199785" d="M1168.029,303.408a.314.314,0,0,1-.22-.089c-3.047-2.925-6.089-5.926-9.042-8.917a.318.318,0,0,1,.452-.447c2.948,2.988,5.987,5.984,9.029,8.906a.318.318,0,0,1-.22.546Z" transform="translate(-1158.676 -293.862)"/>
        </g>
        <g id="Grupo_152927" data-name="Grupo 152927" transform="translate(22.756 3.455)">
          <path id="Trazado_199786" data-name="Trazado 199786" d="M1167.6,297.177a.322.322,0,0,1-.2-.073c-1.013-.847-2-1.754-2.937-2.7a.318.318,0,0,1,.451-.447c.922.932,1.9,1.827,2.893,2.66a.317.317,0,0,1-.2.561Z" transform="translate(-1164.366 -293.862)"/>
        </g>
      </g>
      <g id="Grupo_152929" data-name="Grupo 152929" transform="translate(1204.487 312.905)" opacity="0.129">
        <path id="Trazado_199787" data-name="Trazado 199787" d="M1212.51,319.285a5.177,5.177,0,0,1,.313-1.646,65.208,65.208,0,0,1-6.258-4.814c-1.234-1.061-2.063-2.451-3.225-3.572a11.621,11.621,0,0,1-2.646-3.326c-1.611.5-2.613,2.1-1.574,3.364,2.587,3.5,5,7.122,8.414,10.2.344.316.677.641,1.01.964a7.935,7.935,0,0,0,1.624,1.52,3.653,3.653,0,0,0,2.687.482A13.762,13.762,0,0,1,1212.51,319.285Z" transform="translate(-1198.697 -305.926)"/>
      </g>
      <g id="Grupo_152934" data-name="Grupo 152934" transform="translate(1235.684 326.489)">
        <g id="Grupo_152930" data-name="Grupo 152930" transform="translate(26.912 3.971)" opacity="0.129">
          <path id="Trazado_199788" data-name="Trazado 199788" d="M1252.024,321.956c-.025.02-.052.037-.078.058-.065.049-.129.1-.19.149A2.954,2.954,0,0,0,1252.024,321.956Z" transform="translate(-1251.757 -321.956)"/>
        </g>
        <g id="Grupo_152931" data-name="Grupo 152931" transform="translate(26.888 4.178)" opacity="0.129">
          <path id="Trazado_199789" data-name="Trazado 199789" d="M1251.756,322.147l0,0-.024.018Z" transform="translate(-1251.735 -322.145)"/>
        </g>
        <g id="Grupo_152932" data-name="Grupo 152932" transform="translate(26.836 4.196)" opacity="0.129">
          <path id="Trazado_199790" data-name="Trazado 199790" d="M1251.74,322.161Z" transform="translate(-1251.688 -322.161)"/>
        </g>
        <g id="Grupo_152933" data-name="Grupo 152933" opacity="0.129">
          <path id="Trazado_199791" data-name="Trazado 199791" d="M1253.714,318.394c-1.281.6-.724.551-1.473.976a19.869,19.869,0,0,1-4.207,2.027,31.547,31.547,0,0,1-14.526,1.834,18.217,18.217,0,0,1-2.98-.594,21.767,21.767,0,0,1-2.726,0c-.215-.021-.415-.05-.619-.078.018,1.13.088,2.258.159,3.385a33.848,33.848,0,0,0,7.784,1.5,39.344,39.344,0,0,0,11.2-1.462,28.165,28.165,0,0,0,7.147-3.025c.276-.191.544-.393.807-.6.757-.592,1.707-1.189,1.691-2.243A1.8,1.8,0,0,0,1253.714,318.394Z" transform="translate(-1227.183 -318.33)"/>
        </g>
      </g>
    </g>
  </g>
</svg>
