<svg xmlns="http://www.w3.org/2000/svg" width="190" height="115" viewBox="0 0 190 115">
  <g id="Grupo_153665" data-name="Grupo 153665" transform="translate(-180 -2140)">
    <rect id="Rectángulo_43992" data-name="Rectángulo 43992" width="190" height="115" transform="translate(180 2140)" fill="none"/>
    <rect id="Rectángulo_41430" data-name="Rectángulo 41430" width="85" height="28" rx="14" transform="translate(285 2148)" fill="#feca2e" opacity="0.2"/>
    <rect id="Rectángulo_41431" data-name="Rectángulo 41431" width="85" height="28" rx="14" transform="translate(180 2209)" fill="#4dd0e1" opacity="0.2"/>
    <g id="analisis" transform="translate(223 2139.371)">
      <path id="Trazado_222052" data-name="Trazado 222052" d="M142.211,93.232a5.091,5.091,0,1,0-4.063-2.031l-8.356,11.677a5.072,5.072,0,0,0-5.045,1.111l-5.569-3.16a5.086,5.086,0,1,0-9.943,0l-5.569,3.16a5.078,5.078,0,1,0,1.51,2.652l5.569-3.16a5.073,5.073,0,0,0,6.923,0l5.569,3.16a5.086,5.086,0,1,0,9.035-1.985l8.356-11.677A5.07,5.07,0,0,0,142.211,93.232Zm0-7.12a2.034,2.034,0,1,1-2.034,2.034A2.037,2.037,0,0,1,142.211,86.112ZM100.2,109.744a2.034,2.034,0,1,1,2.034-2.034A2.037,2.037,0,0,1,100.2,109.744Zm14-7.951a2.034,2.034,0,1,1,2.034-2.034A2.037,2.037,0,0,1,114.206,101.793Zm14,7.951a2.034,2.034,0,1,1,2.034-2.034A2.037,2.037,0,0,1,128.208,109.744Z" transform="translate(-75.769 -60.941)" fill="#0f2771"/>
      <path id="Trazado_222053" data-name="Trazado 222053" d="M85.192,108.638H4.316a1.266,1.266,0,0,1-1.264-1.264V44.432a1.266,1.266,0,0,1,1.264-1.264h7.192a1.526,1.526,0,0,0,0-3.051H4.316A4.32,4.32,0,0,0,0,44.432v62.942a4.32,4.32,0,0,0,4.316,4.316H14.835v3.358a3.473,3.473,0,0,0,3.469,3.469H33.576l-7.189,14.036a1.526,1.526,0,1,0,2.716,1.391L37,118.516H53.872l7.9,15.427a1.526,1.526,0,1,0,2.716-1.391L57.3,118.516H72.572a3.473,3.473,0,0,0,3.469-3.469v-3.358h9.151a1.526,1.526,0,1,0,0-3.051Zm-12.2,6.409a.418.418,0,0,1-.418.418H18.3a.418.418,0,0,1-.418-.418v-3.358h55.1Z" transform="translate(0 -26.732)" fill="#0f2771"/>
      <path id="Trazado_222054" data-name="Trazado 222054" d="M80.6,16.436h68.95a1.266,1.266,0,0,1,1.264,1.264V32.206a1.526,1.526,0,1,0,3.051,0V17.7a4.32,4.32,0,0,0-4.316-4.316H116.892v-3a3.832,3.832,0,0,0-3.828-3.828h-9.28a3.832,3.832,0,0,0-3.828,3.828v3H80.6a1.526,1.526,0,1,0,0,3.051Zm22.411-6.05a.777.777,0,0,1,.776-.776h9.28a.777.777,0,0,1,.776.776v3H103.008v-3Z" transform="translate(-62.986 0)" fill="#0f2771"/>
      <path id="Trazado_222055" data-name="Trazado 222055" d="M98.928,267.576A1.526,1.526,0,0,0,97.4,269.1v13.481a1.526,1.526,0,0,0,1.526,1.526h6.189a1.526,1.526,0,0,0,1.526-1.526V269.1a1.526,1.526,0,0,0-1.526-1.526Zm4.664,13.481h-3.138v-10.43h3.138Z" transform="translate(-77.588 -207.922)" fill="#0f2771"/>
      <path id="Trazado_222056" data-name="Trazado 222056" d="M167.763,229.248a1.526,1.526,0,0,0-1.526,1.526v21.278a1.526,1.526,0,0,0,1.526,1.526h6.189a1.526,1.526,0,0,0,1.526-1.526V230.774a1.526,1.526,0,0,0-1.526-1.526Zm4.664,21.278h-3.138V232.3h3.138Z" transform="translate(-132.421 -177.39)" fill="#0f2771"/>
      <path id="Trazado_222057" data-name="Trazado 222057" d="M236.6,267.576a1.526,1.526,0,0,0-1.526,1.526v13.481a1.526,1.526,0,0,0,1.526,1.526h6.189a1.526,1.526,0,0,0,1.526-1.526V269.1a1.526,1.526,0,0,0-1.526-1.526Zm4.664,13.481h-3.138v-10.43h3.138Z" transform="translate(-187.254 -207.922)" fill="#0f2771"/>
      <path id="Trazado_222058" data-name="Trazado 222058" d="M305.435,311.832a1.526,1.526,0,0,0-1.526,1.526v4.479a1.526,1.526,0,0,0,1.526,1.526h6.19a1.526,1.526,0,0,0,0-3.051H306.96v-2.953A1.526,1.526,0,0,0,305.435,311.832Z" transform="translate(-242.088 -243.175)" fill="#0f2771"/>
      <path id="Trazado_222059" data-name="Trazado 222059" d="M338.789,193.2l-8.753-15.16a19.951,19.951,0,1,0-19.728,5.63,20.049,20.049,0,0,0,5.193.688,19.691,19.691,0,0,0,4.491-.519L328.744,199a5.8,5.8,0,1,0,10.045-5.8ZM311.1,180.725a16.89,16.89,0,1,1,12.816-1.687A16.78,16.78,0,0,1,311.1,180.725Zm24.042,17.757a2.751,2.751,0,0,1-3.754-1.005l-8.419-14.586a20.025,20.025,0,0,0,4.757-2.75l8.422,14.587a2.746,2.746,0,0,1-1.005,3.754Z" transform="translate(-235.415 -109.861)" fill="#0f2771"/>
      <path id="Trazado_222060" data-name="Trazado 222060" d="M350.625,190.031a14.438,14.438,0,0,0-.722-10.459,1.526,1.526,0,1,0-2.76,1.3,11.427,11.427,0,1,1-3.445-4.257,1.526,1.526,0,1,0,1.841-2.433,14.488,14.488,0,1,0,5.087,15.849Z" transform="translate(-256.738 -131.184)" fill="#0f2771"/>
    </g>
  </g>
</svg>
