<svg xmlns="http://www.w3.org/2000/svg" width="172.686" height="132.96" viewBox="0 0 172.686 132.96">
  <g id="Grupo_152896" data-name="Grupo 152896" transform="translate(-1143.478 -60.647)">
    <g id="Grupo_152854" data-name="Grupo 152854" transform="translate(1163.459 104.446)">
      <g id="Grupo_152853" data-name="Grupo 152853">
        <path id="Trazado_199714" data-name="Trazado 199714" d="M1241.718,137.787a15.974,15.974,0,0,1,6.276-16.083,131.934,131.934,0,0,0-14.168-16.541c-2.419,2.911-9.95,9.6-21.213,3.92-4.94-2.492-8.6-8.621-8.089-10.434-7.7,2.284-15.505,4.288-19.667,6.255,1.727,3.927,3.136,11.105-2.153,17.312-3.737,4.386-12.575,4.2-16.1,2.962a90.374,90.374,0,0,0-5.32,18.613,30.944,30.944,0,0,1,8.606,2.606c2.384,1.132,4.758,2.784,5.564,5.265a8.792,8.792,0,0,1,.093,4.3,18.9,18.9,0,0,1-6.6,11.1,67.273,67.273,0,0,0,12.76,12.142c1.878-2.829,4.856-4.235,7.684-5.3a13.26,13.26,0,0,1,5.859-1.172,9.832,9.832,0,0,1,5.565,2.753,15.326,15.326,0,0,1,4.885,10.283,110.539,110.539,0,0,0,19.131-2.239c.453-3.683.667-7.172,1.893-10.382s3.625-6.148,6.918-7.264c4.215-1.426,8.785.341,12.877,2.081a77.47,77.47,0,0,0,7.815-17.691C1248.136,148.681,1243.025,143.729,1241.718,137.787Zm-27.847,17.306a14.172,14.172,0,0,1-15.366-4.788,10.61,10.61,0,0,1-2.048-4.545,12.194,12.194,0,0,1,.337-4.979,16.618,16.618,0,0,1,6.746-9.958,12.136,12.136,0,0,1,11.826-.934,14.516,14.516,0,0,1,7.619,12.165A13.582,13.582,0,0,1,1213.871,155.094Z" transform="translate(-1160.261 -97.623)" fill="#feca2e"/>
        <path id="Trazado_199715" data-name="Trazado 199715" d="M1205.861,186.941a1.026,1.026,0,0,1-1.024-.967,14.261,14.261,0,0,0-4.555-9.587,8.949,8.949,0,0,0-4.968-2.486,12.334,12.334,0,0,0-5.4,1.111c-2.726,1.03-5.484,2.339-7.192,4.91a1.025,1.025,0,0,1-1.472.252,68.115,68.115,0,0,1-12.952-12.33,1.027,1.027,0,0,1,.161-1.427,17.957,17.957,0,0,0,6.235-10.489,7.64,7.64,0,0,0-.06-3.792c-.577-1.778-2.268-3.345-5.027-4.656a29.911,29.911,0,0,0-8.322-2.518,1.024,1.024,0,0,1-.855-1.187,91.809,91.809,0,0,1,5.379-18.824,1.027,1.027,0,0,1,1.292-.585c3.322,1.167,11.615,1.286,14.977-2.659,5.59-6.562,2.94-14.084,1.994-16.233a1.027,1.027,0,0,1,.5-1.341c3.26-1.542,8.686-3.1,14.431-4.749,1.768-.507,3.579-1.027,5.383-1.563a1.026,1.026,0,0,1,1.28,1.262c-.309,1.1,2.87,6.871,7.564,9.241,11.058,5.579,18.074-1.391,19.96-3.66a1.03,1.03,0,0,1,.741-.369,1.042,1.042,0,0,1,.774.3,131.93,131.93,0,0,1,14.277,16.669,1.027,1.027,0,0,1-.242,1.434,14.955,14.955,0,0,0-5.866,15.026c1.209,5.5,5.98,10.2,11.873,11.7a1.027,1.027,0,0,1,.729,1.29,78.791,78.791,0,0,1-7.922,17.928,1.024,1.024,0,0,1-1.279.412c-4.252-1.809-8.381-3.327-12.146-2.052a10.96,10.96,0,0,0-6.288,6.657,33.555,33.555,0,0,0-1.614,8.244c-.071.626-.142,1.259-.221,1.9a1.028,1.028,0,0,1-.815.88,110.979,110.979,0,0,1-19.307,2.259ZM1194.7,171.819c.269,0,.539.012.81.038a10.784,10.784,0,0,1,6.162,3.02,16.364,16.364,0,0,1,5.126,9.982,108.987,108.987,0,0,0,17.263-2.045c.046-.381.088-.761.131-1.139a35.063,35.063,0,0,1,1.735-8.746,12.849,12.849,0,0,1,7.548-7.87c4.174-1.411,8.58.017,12.783,1.761a76.86,76.86,0,0,0,6.95-15.7c-6.145-1.956-11.036-7.045-12.335-12.953a17.088,17.088,0,0,1,5.859-16.515,129.7,129.7,0,0,0-12.712-14.836c-2.648,2.752-10.4,9.054-21.712,3.343-4.177-2.108-7.872-6.922-8.578-10-1.4.409-2.791.809-4.159,1.2a133.749,133.749,0,0,0-13.236,4.237c1.2,3.237,3.009,10.75-2.694,17.444-3.771,4.427-11.925,4.657-16.271,3.549a89.753,89.753,0,0,0-4.736,16.522,31.705,31.705,0,0,1,7.856,2.517c3.335,1.587,5.33,3.507,6.1,5.876a9.581,9.581,0,0,1,.125,4.8,20.049,20.049,0,0,1-6.187,11.042,66.22,66.22,0,0,0,11.134,10.563c2.008-2.473,4.789-3.78,7.528-4.816A15.845,15.845,0,0,1,1194.7,171.819Zm15.165-14.88a15.176,15.176,0,0,1-12.026-5.861,11.7,11.7,0,0,1-2.238-4.989,13.075,13.075,0,0,1,.354-5.4,17.71,17.71,0,0,1,7.182-10.568,13.122,13.122,0,0,1,12.851-.99,15.5,15.5,0,0,1,8.179,13.034,14.679,14.679,0,0,1-9.815,14.058A14.2,14.2,0,0,1,1209.865,156.939Zm.741-27a11.737,11.737,0,0,0-6.349,1.906,15.64,15.64,0,0,0-6.309,9.346,11.105,11.105,0,0,0-.321,4.559,9.627,9.627,0,0,0,1.857,4.1,13.224,13.224,0,0,0,14.221,4.428h0a12.56,12.56,0,0,0,8.414-12.021,13.412,13.412,0,0,0-7.058-11.294A9.811,9.811,0,0,0,1210.605,129.936Z" transform="translate(-1160.417 -97.78)"/>
      </g>
    </g>
    <g id="Grupo_152872" data-name="Grupo 152872" transform="translate(1195.304 60.647)">
      <g id="Grupo_152855" data-name="Grupo 152855" transform="translate(72.646 67.734)">
        <path id="Trazado_199716" data-name="Trazado 199716" d="M1249.873,129.158l21.495,21.147a141.424,141.424,0,0,0,11.7,10.684c2.224,1.742,4.7,3.389,7.4,3.39a5.6,5.6,0,0,0,5.561-5.339c-.015-2.385-1.663-4.3-3.206-5.931q-17.113-18.047-35.715-34.171C1254.844,122.263,1252.574,125.589,1249.873,129.158Z" transform="translate(-1248.847 -117.915)" fill="#fff"/>
        <path id="Trazado_199717" data-name="Trazado 199717" d="M1290.633,165.561h0c-3.017,0-5.646-1.736-8.037-3.608a142.937,142.937,0,0,1-11.788-10.761l-21.495-21.147a1.026,1.026,0,0,1-.1-1.351c2.683-3.546,4.982-6.915,7.206-10.171a1.035,1.035,0,0,1,1.525-.205c12.359,10.71,24.4,22.231,35.789,34.242,1.677,1.771,3.468,3.888,3.487,6.629a6.077,6.077,0,0,1-1.827,4.329A6.878,6.878,0,0,1,1290.633,165.561Zm-39.243-36.349,20.854,20.517a140.975,140.975,0,0,0,11.615,10.608c2.1,1.647,4.377,3.169,6.773,3.172h0a4.784,4.784,0,0,0,3.3-1.437,4.03,4.03,0,0,0,1.231-2.87c-.013-1.993-1.452-3.677-2.924-5.23-11.075-11.68-22.77-22.895-34.774-33.348C1255.577,123.39,1253.616,126.235,1251.389,129.212Z" transform="translate(-1249.003 -118.071)"/>
      </g>
      <g id="Grupo_152857" data-name="Grupo 152857">
        <g id="Grupo_152856" data-name="Grupo 152856">
          <path id="Trazado_199718" data-name="Trazado 199718" d="M1232.97,61.517a44.685,44.685,0,1,0,44.685,44.685A44.685,44.685,0,0,0,1232.97,61.517Zm0,78.623a33.938,33.938,0,1,1,33.938-33.938A33.938,33.938,0,0,1,1232.97,140.14Zm0,0a33.938,33.938,0,1,1,33.938-33.938A33.938,33.938,0,0,1,1232.97,140.14Z" transform="translate(-1187.259 -60.491)" fill="#fff"/>
          <path id="Trazado_199719" data-name="Trazado 199719" d="M1233.126,152.069a45.711,45.711,0,1,1,45.711-45.711A45.763,45.763,0,0,1,1233.126,152.069Zm0-89.369a43.658,43.658,0,1,0,43.659,43.658A43.708,43.708,0,0,0,1233.126,62.7Zm0,78.623a34.964,34.964,0,1,1,34.964-34.964A35,35,0,0,1,1233.126,141.322Zm-32.913-34.964a32.912,32.912,0,1,0,32.913-32.912A32.95,32.95,0,0,0,1200.213,106.358Z" transform="translate(-1187.415 -60.647)"/>
        </g>
      </g>
      <g id="Grupo_152858" data-name="Grupo 152858" transform="translate(23.745 40.717)">
        <circle id="Elipse_5084" data-name="Elipse 5084" cx="3.506" cy="3.506" r="3.506" transform="translate(1.026 1.026)" fill="#fff"/>
        <path id="Trazado_199720" data-name="Trazado 199720" d="M1212.078,104.231a4.532,4.532,0,1,1,4.532-4.533A4.537,4.537,0,0,1,1212.078,104.231Zm0-7.012a2.48,2.48,0,1,0,2.481,2.479A2.482,2.482,0,0,0,1212.078,97.218Z" transform="translate(-1207.546 -95.166)"/>
      </g>
      <g id="Grupo_152859" data-name="Grupo 152859" transform="translate(40.723 40.717)">
        <circle id="Elipse_5085" data-name="Elipse 5085" cx="3.506" cy="3.506" r="3.506" transform="translate(1.027 1.026)" fill="#fff"/>
        <path id="Trazado_199721" data-name="Trazado 199721" d="M1226.472,104.231A4.532,4.532,0,1,1,1231,99.7,4.538,4.538,0,0,1,1226.472,104.231Zm0-7.012a2.48,2.48,0,1,0,2.479,2.479A2.483,2.483,0,0,0,1226.472,97.218Z" transform="translate(-1221.939 -95.166)"/>
      </g>
      <g id="Grupo_152860" data-name="Grupo 152860" transform="translate(57.701 40.717)">
        <circle id="Elipse_5086" data-name="Elipse 5086" cx="3.506" cy="3.506" r="3.506" transform="translate(1.026 1.026)" fill="#fff"/>
        <path id="Trazado_199722" data-name="Trazado 199722" d="M1240.866,104.231A4.532,4.532,0,1,1,1245.4,99.7,4.538,4.538,0,0,1,1240.866,104.231Zm0-7.012a2.48,2.48,0,1,0,2.479,2.479A2.483,2.483,0,0,0,1240.866,97.218Z" transform="translate(-1236.333 -95.166)"/>
      </g>
      <g id="Grupo_152861" data-name="Grupo 152861" transform="translate(79.092 76.821)">
        <path id="Trazado_199723" data-name="Trazado 199723" d="M1254.81,129.211a.327.327,0,0,1-.094-.013.343.343,0,0,1-.235-.423l.787-2.751a.336.336,0,0,1,.422-.235.343.343,0,0,1,.235.423l-.787,2.751A.341.341,0,0,1,1254.81,129.211Z" transform="translate(-1254.468 -125.774)"/>
      </g>
      <g id="Grupo_152862" data-name="Grupo 152862" transform="translate(82.851 74.756)">
        <path id="Trazado_199724" data-name="Trazado 199724" d="M1258,134.344l-.045,0a.344.344,0,0,1-.295-.385c.42-3.211.926-6.458,1.506-9.653a.344.344,0,0,1,.4-.275.34.34,0,0,1,.275.4c-.578,3.184-1.083,6.42-1.5,9.619A.344.344,0,0,1,1258,134.344Z" transform="translate(-1257.655 -124.024)"/>
      </g>
      <g id="Grupo_152863" data-name="Grupo 152863" transform="translate(87.732 78.899)">
        <path id="Trazado_199725" data-name="Trazado 199725" d="M1262.135,138.389a.342.342,0,0,1-.342-.342c0-1.609.248-4.308.466-6.689.133-1.451.249-2.706.288-3.495a.318.318,0,0,1,.359-.323.342.342,0,0,1,.324.359c-.04.8-.156,2.063-.289,3.522-.217,2.366-.464,5.048-.464,6.627A.342.342,0,0,1,1262.135,138.389Z" transform="translate(-1261.793 -127.536)"/>
      </g>
      <g id="Grupo_152864" data-name="Grupo 152864" transform="translate(92.472 82.263)">
        <path id="Trazado_199726" data-name="Trazado 199726" d="M1266.411,142.484a.341.341,0,0,1-.342-.334l-.258-11.412a.343.343,0,0,1,.334-.35.348.348,0,0,1,.35.334l.258,11.412a.343.343,0,0,1-.334.35Z" transform="translate(-1265.811 -130.388)"/>
      </g>
      <g id="Grupo_152865" data-name="Grupo 152865" transform="translate(97.038 86.771)">
        <path id="Trazado_199727" data-name="Trazado 199727" d="M1270.472,146.846a.343.343,0,0,1-.342-.329l-.447-11.952a.343.343,0,0,1,.329-.355.359.359,0,0,1,.355.33l.447,11.951a.343.343,0,0,1-.329.355Z" transform="translate(-1269.683 -134.21)"/>
      </g>
      <g id="Grupo_152866" data-name="Grupo 152866" transform="translate(101.722 91.814)">
        <path id="Trazado_199728" data-name="Trazado 199728" d="M1274.6,150.333a.341.341,0,0,1-.341-.323l-.6-11.164a.341.341,0,0,1,.322-.36.331.331,0,0,1,.361.322l.6,11.164a.342.342,0,0,1-.323.361Z" transform="translate(-1273.654 -138.485)"/>
      </g>
      <g id="Grupo_152867" data-name="Grupo 152867" transform="translate(106.279 96.041)">
        <path id="Trazado_199729" data-name="Trazado 199729" d="M1278.7,153.623a.341.341,0,0,1-.34-.316l-.839-10.868a.342.342,0,0,1,.682-.052l.839,10.868a.341.341,0,0,1-.315.367Z" transform="translate(-1277.517 -142.069)"/>
      </g>
      <g id="Grupo_152868" data-name="Grupo 152868" transform="translate(110.675 100.912)">
        <path id="Trazado_199730" data-name="Trazado 199730" d="M1282.564,156.415a.341.341,0,0,1-.339-.308l-.98-9.532a.342.342,0,0,1,.3-.375.348.348,0,0,1,.375.306l.98,9.532a.341.341,0,0,1-.306.375Z" transform="translate(-1281.243 -146.198)"/>
      </g>
      <g id="Grupo_152869" data-name="Grupo 152869" transform="translate(115.408 105.677)">
        <path id="Trazado_199731" data-name="Trazado 199731" d="M1286.286,155.183a.341.341,0,0,1-.336-.288l-.689-4.258a.342.342,0,0,1,.676-.11l.688,4.258a.342.342,0,0,1-.283.393A.293.293,0,0,1,1286.286,155.183Z" transform="translate(-1285.256 -150.239)"/>
      </g>
      <g id="Grupo_152870" data-name="Grupo 152870" transform="translate(11.637 40.84)" opacity="0.129">
        <path id="Trazado_199732" data-name="Trazado 199732" d="M1262.966,110.951c-1.122.948-1.641,2.476-2.594,3.6a46.269,46.269,0,0,1-3.764,4.135c-1.122,1-2.2,1.883-3.292,2.718a1.716,1.716,0,0,0-.574.226c-5.585,4.041-9.784,5.518-16.849,6.819a27.235,27.235,0,0,1-12.5-.156c-3.7-.862-5.486-1.874-9.35-4.478a49.367,49.367,0,0,1-7.781-7.378l0,0a29.7,29.7,0,0,1-4.139-8.31c-.556-1.5-.974-3.03-1.413-4.562a12.752,12.752,0,0,1-.844-4.631c-.407-1.141-.783-2.294-1.12-3.458a2.2,2.2,0,0,0-1.056-.2,54.238,54.238,0,0,0,.072,13.847c1,3.975,2.242,8.285,6.05,12.566a39.911,39.911,0,0,0,6.5,5.641,36.79,36.79,0,0,0,9.983,5.431,37.425,37.425,0,0,0,6.091,1.057l.034.007a23.2,23.2,0,0,0,6.737.163,29.315,29.315,0,0,0,5.15-1.117,44.62,44.62,0,0,0,10.257-3.644,26.353,26.353,0,0,0,2.371-1.581,50.529,50.529,0,0,0,10.123-8.272c.544-1.124,1.069-2.254,1.562-3.4.616-1.708,1.235-3.416,1.841-5.129A1.7,1.7,0,0,0,1262.966,110.951Z" transform="translate(-1197.281 -95.271)"/>
      </g>
      <g id="Grupo_152871" data-name="Grupo 152871" transform="translate(74.405 70.989)" opacity="0.129">
        <path id="Trazado_199733" data-name="Trazado 199733" d="M1260.7,120.943c-1.7-.488-2.839.695-3.677,1.992l-.115.136c-1.485,1.733-1.905,1.586-4.353,3.8l-.031.024a3.982,3.982,0,0,0-1.367,1.106c-2.061,2.535,1.083,6.071,3.883,4.423a15.887,15.887,0,0,0,4.962-4.363,19.7,19.7,0,0,0,2.363-3.024A2.811,2.811,0,0,0,1260.7,120.943Z" transform="translate(-1250.494 -120.831)"/>
      </g>
    </g>
    <g id="Grupo_152879" data-name="Grupo 152879" transform="translate(1143.478 61.619)">
      <g id="Grupo_152873" data-name="Grupo 152873" transform="translate(0.992 1.309)">
        <path id="Trazado_199734" data-name="Trazado 199734" d="M1181.021,79.821l-1.71-5.768,3.6-5.195-8.868-6.278q-1.716,2.859-3.431,5.717a.836.836,0,0,1-.222.272.787.787,0,0,1-.458.087q-2.962-.041-5.925-.112c-.974-1.888-1.919-3.686-2.983-5.4a.464.464,0,0,0-.782-.19q-3.521,2.164-7.043,4.325a.488.488,0,0,0-.164.138c-.1.152-.014.356.074.515a25.565,25.565,0,0,0,3.145,4.469,58.257,58.257,0,0,1-3.4,5.634,2.319,2.319,0,0,1-1.117,1.026,2.251,2.251,0,0,1-1.255-.11q-2.481-.715-4.9-1.622a16.905,16.905,0,0,0-.736,10.61c.132.267,6.261-.628,6.261-.628l3.655,6.477-2.933,4.927,6.72,5,3.491-5.212,6.162.125,2.379,5.5,9.186-3.245-2.223-5.638,3.3-5.471,6.232-.511.194-7.761Zm-10.6,2.936a2.414,2.414,0,0,1-.276,1.058,3.948,3.948,0,0,1-.3.618,5.513,5.513,0,0,1-.847,1.012,6.557,6.557,0,0,1-2.229,1.392,5.669,5.669,0,0,1-1.058.272,3.205,3.205,0,0,1-.918.05c-.2-.021-.4-.085-.591-.086.547,0-.051.007-.265-.054a4.092,4.092,0,0,1-2.33-1.939,4.2,4.2,0,0,1-.552-1.73,3.96,3.96,0,0,1,.328-1.62,11.49,11.49,0,0,1,1.076-2.088,5.513,5.513,0,0,1,1.9-1.879,2.937,2.937,0,0,1,2.425-.17,1.3,1.3,0,0,1,.994-.08,3.277,3.277,0,0,1,1.459.987,5.327,5.327,0,0,1,.878,1.529,3.932,3.932,0,0,1,.175.553c.026.11.046.221.064.331q.036.26.068.52l-.008-.117c-.018-.151-.013-.157.011-.018q.039.264.071.527a2.561,2.561,0,0,1,.011.267A2.791,2.791,0,0,1,1170.425,82.757Z" transform="translate(-1144.319 -62.581)" fill="#fff"/>
      </g>
      <g id="Grupo_152874" data-name="Grupo 152874" transform="translate(16.608 21.847)" opacity="0.129">
        <path id="Trazado_199735" data-name="Trazado 199735" d="M1169.277,80.772a.892.892,0,0,0-1.746-.121c-.29.911-.175.753-1.137,1.694-.925.756-.589.531-2.031,1.069a3.434,3.434,0,0,1-1.938.323,3.519,3.519,0,0,1-.464-.119,6.24,6.24,0,0,1-1.437-.7c-.437-.226-.827-.632-1.333-.665a1.494,1.494,0,0,0-.928,2.757c2.405,1.682,4.823,2.44,7.57,1.052a6.507,6.507,0,0,0,2.965-3.684A3.493,3.493,0,0,0,1169.277,80.772Z" transform="translate(-1157.557 -79.992)"/>
      </g>
      <g id="Grupo_152875" data-name="Grupo 152875" transform="translate(27.291 37.762)" opacity="0.129">
        <path id="Trazado_199736" data-name="Trazado 199736" d="M1172.653,93.689a11.96,11.96,0,0,1-2.922.865c-.8.258-1.785.126-2.472.659a1.68,1.68,0,0,0,1.432,2.948c2.015-.427,4.331-.514,5.9-2.032A1.572,1.572,0,0,0,1172.653,93.689Z" transform="translate(-1166.615 -93.485)"/>
      </g>
      <g id="Grupo_152876" data-name="Grupo 152876" transform="translate(40.029 22.993)" opacity="0.129">
        <path id="Trazado_199737" data-name="Trazado 199737" d="M1181.869,82.836c0-.017,0-.033.006-.051l-.006.048a1.889,1.889,0,0,0-.238-.98,1.8,1.8,0,0,0-3.225.259c-.03.064-.065.137-.107.226a8.761,8.761,0,0,0-.329.835c-.091.211-.218.5-.294.669a1.994,1.994,0,0,0-.262.992,1.916,1.916,0,0,0,3.766.524,8.219,8.219,0,0,0,.649-2.187A1.9,1.9,0,0,0,1181.869,82.836Z" transform="translate(-1177.414 -80.964)"/>
      </g>
      <g id="Grupo_152877" data-name="Grupo 152877">
        <path id="Trazado_199738" data-name="Trazado 199738" d="M1170.657,105.29a1.027,1.027,0,0,1-.953-.649,31.984,31.984,0,0,0-2.21-4.791,26.706,26.706,0,0,1-5.343-.065c-.5.913-.991,1.847-1.5,2.827-.318.609-.646,1.234-.99,1.88a1.026,1.026,0,0,1-1.283.473,18.272,18.272,0,0,1-7.64-5.631,1.026,1.026,0,0,1-.031-1.23c.97-1.366,1.965-2.77,3.024-4.447a26.93,26.93,0,0,1-2.971-5.273l-1.033.218c-1.447.309-2.943.629-4.565.856a1.025,1.025,0,0,1-1.134-.75,19.88,19.88,0,0,1,.762-11.6,1.031,1.031,0,0,1,1.225-.665c1.963.5,3.926,1,5.986,1.5a52.211,52.211,0,0,1,2.862-5.019,38.7,38.7,0,0,1-2.989-4.581,1.027,1.027,0,0,1,.209-1.248,30.77,30.77,0,0,1,8.38-5.294,1.024,1.024,0,0,1,1.309.438,53.639,53.639,0,0,1,2.622,5.369,26.515,26.515,0,0,1,5.841-.2c.909-1.753,1.868-3.561,3.059-5.454a1.029,1.029,0,0,1,1.343-.363,37.353,37.353,0,0,1,6.825,4.591c.563.475,1.112.968,1.66,1.461a2.382,2.382,0,0,1,.826,1.171,1.029,1.029,0,0,1-.142.822c-.474.71-.961,1.412-1.461,2.134-.643.929-1.306,1.885-1.991,2.93.568,1.424,1.146,2.883,1.682,4.353a22.11,22.11,0,0,1,6.286,1.512,1.025,1.025,0,0,1,.632.887,21.274,21.274,0,0,1-1.279,8.908.983.983,0,0,1-1,.665l-.687-.027a41.8,41.8,0,0,0-4.634-.011,20.754,20.754,0,0,1-2.9,4.679,46.208,46.208,0,0,1,2.58,5.155,1.027,1.027,0,0,1-.456,1.293,26.361,26.361,0,0,1-9.806,3.174C1170.732,105.288,1170.694,105.29,1170.657,105.29Zm-2.639-7.567a1.027,1.027,0,0,1,.863.469,28.114,28.114,0,0,1,2.437,4.953,24.2,24.2,0,0,0,7.445-2.4c-.764-1.706-1.616-3.213-2.444-4.677a1.025,1.025,0,0,1,.1-1.157,18.77,18.77,0,0,0,3.254-5.258,1.026,1.026,0,0,1,.862-.659,39.139,39.139,0,0,1,5.458-.05,19.169,19.169,0,0,0,.935-6.719,21.486,21.486,0,0,0-5.73-1.189,1.026,1.026,0,0,1-.881-.679c-.642-1.812-1.37-3.631-2.074-5.391a1.029,1.029,0,0,1,.092-.938c.806-1.247,1.573-2.356,2.317-3.428.348-.5.691-1,1.026-1.491-.511-.46-1.023-.919-1.548-1.362a35.274,35.274,0,0,0-5.607-3.883c-1.053,1.75-1.933,3.449-2.787,5.1a1.041,1.041,0,0,1-1.016.55,24.4,24.4,0,0,0-6.79.255,1.033,1.033,0,0,1-1.132-.628,51.5,51.5,0,0,0-2.37-5.066,28.755,28.755,0,0,0-6.356,4,42.991,42.991,0,0,0,2.849,4.184,1.028,1.028,0,0,1,.048,1.161,49.509,49.509,0,0,0-3.457,6.137,1.024,1.024,0,0,1-1.182.582c-2.038-.5-3.971-.985-5.889-1.471a17.931,17.931,0,0,0-.644,8.618c1.21-.2,2.368-.447,3.5-.688.63-.134,1.254-.268,1.88-.392a1.025,1.025,0,0,1,1.148.616,24.943,24.943,0,0,0,3.454,6.135,1.023,1.023,0,0,1,.072,1.178c-1.065,1.732-2.057,3.161-3.016,4.515a16.222,16.222,0,0,0,5.452,4.048c.185-.352.366-.7.544-1.037.629-1.2,1.224-2.341,1.858-3.468a1.039,1.039,0,0,1,1-.518,24.893,24.893,0,0,0,6.181.059A.933.933,0,0,1,1168.019,97.723ZM1181.99,69.4Z" transform="translate(-1143.478 -61.471)"/>
      </g>
      <g id="Grupo_152878" data-name="Grupo 152878" transform="translate(16.825 14.827)">
        <path id="Trazado_199739" data-name="Trazado 199739" d="M1162.629,85.551a6.4,6.4,0,0,1-2.59-.546,3.745,3.745,0,0,1-1.617-1.25,4.218,4.218,0,0,1-.65-2.129,7.9,7.9,0,0,1,1.451-5.49,5.119,5.119,0,0,1,5.532-1.868,1.031,1.031,0,0,1,.368.221,5.5,5.5,0,0,1,3.539,4.833,5.981,5.981,0,0,1-2.767,5.31A6.141,6.141,0,0,1,1162.629,85.551Zm.729-9.459a3.312,3.312,0,0,0-2.518,1.307,5.878,5.878,0,0,0-1.022,4.071,2.392,2.392,0,0,0,.287,1.111,1.816,1.816,0,0,0,.769.55,4.23,4.23,0,0,0,3.927-.236,3.954,3.954,0,0,0,1.812-3.461,3.446,3.446,0,0,0-2.186-3.015l-.139-.042a1.908,1.908,0,0,1-.546-.254A2.437,2.437,0,0,0,1163.358,76.092Z" transform="translate(-1157.742 -74.041)"/>
      </g>
    </g>
    <g id="Grupo_152886" data-name="Grupo 152886" transform="translate(1143.478 61.619)">
      <g id="Grupo_152880" data-name="Grupo 152880" transform="translate(0.992 1.309)">
        <path id="Trazado_199740" data-name="Trazado 199740" d="M1181.021,79.821l-1.71-5.768,3.6-5.195-8.868-6.278q-1.716,2.859-3.431,5.717a.836.836,0,0,1-.222.272.787.787,0,0,1-.458.087q-2.962-.041-5.925-.112c-.974-1.888-1.919-3.686-2.983-5.4a.464.464,0,0,0-.782-.19q-3.521,2.164-7.043,4.325a.488.488,0,0,0-.164.138c-.1.152-.014.356.074.515a25.565,25.565,0,0,0,3.145,4.469,58.257,58.257,0,0,1-3.4,5.634,2.319,2.319,0,0,1-1.117,1.026,2.251,2.251,0,0,1-1.255-.11q-2.481-.715-4.9-1.622a16.905,16.905,0,0,0-.736,10.61c.132.267,6.261-.628,6.261-.628l3.655,6.477-2.933,4.927,6.72,5,3.491-5.212,6.162.125,2.379,5.5,9.186-3.245-2.223-5.638,3.3-5.471,6.232-.511.194-7.761Zm-10.6,2.936a2.414,2.414,0,0,1-.276,1.058,3.948,3.948,0,0,1-.3.618,5.513,5.513,0,0,1-.847,1.012,6.557,6.557,0,0,1-2.229,1.392,5.669,5.669,0,0,1-1.058.272,3.205,3.205,0,0,1-.918.05c-.2-.021-.4-.085-.591-.086.547,0-.051.007-.265-.054a4.092,4.092,0,0,1-2.33-1.939,4.2,4.2,0,0,1-.552-1.73,3.96,3.96,0,0,1,.328-1.62,11.49,11.49,0,0,1,1.076-2.088,5.513,5.513,0,0,1,1.9-1.879,2.937,2.937,0,0,1,2.425-.17,1.3,1.3,0,0,1,.994-.08,3.277,3.277,0,0,1,1.459.987,5.327,5.327,0,0,1,.878,1.529,3.932,3.932,0,0,1,.175.553c.026.11.046.221.064.331q.036.26.068.52l-.008-.117c-.018-.151-.013-.157.011-.018q.039.264.071.527a2.561,2.561,0,0,1,.011.267A2.791,2.791,0,0,1,1170.425,82.757Z" transform="translate(-1144.319 -62.581)" fill="#fff"/>
      </g>
      <g id="Grupo_152881" data-name="Grupo 152881" transform="translate(16.608 21.847)" opacity="0.129">
        <path id="Trazado_199741" data-name="Trazado 199741" d="M1169.277,80.772a.892.892,0,0,0-1.746-.121c-.29.911-.175.753-1.137,1.694-.925.756-.589.531-2.031,1.069a3.434,3.434,0,0,1-1.938.323,3.519,3.519,0,0,1-.464-.119,6.24,6.24,0,0,1-1.437-.7c-.437-.226-.827-.632-1.333-.665a1.494,1.494,0,0,0-.928,2.757c2.405,1.682,4.823,2.44,7.57,1.052a6.507,6.507,0,0,0,2.965-3.684A3.493,3.493,0,0,0,1169.277,80.772Z" transform="translate(-1157.557 -79.992)"/>
      </g>
      <g id="Grupo_152882" data-name="Grupo 152882" transform="translate(27.291 37.762)" opacity="0.129">
        <path id="Trazado_199742" data-name="Trazado 199742" d="M1172.653,93.689a11.96,11.96,0,0,1-2.922.865c-.8.258-1.785.126-2.472.659a1.68,1.68,0,0,0,1.432,2.948c2.015-.427,4.331-.514,5.9-2.032A1.572,1.572,0,0,0,1172.653,93.689Z" transform="translate(-1166.615 -93.485)"/>
      </g>
      <g id="Grupo_152883" data-name="Grupo 152883" transform="translate(40.029 22.993)" opacity="0.129">
        <path id="Trazado_199743" data-name="Trazado 199743" d="M1181.869,82.836c0-.017,0-.033.006-.051l-.006.048a1.889,1.889,0,0,0-.238-.98,1.8,1.8,0,0,0-3.225.259c-.03.064-.065.137-.107.226a8.761,8.761,0,0,0-.329.835c-.091.211-.218.5-.294.669a1.994,1.994,0,0,0-.262.992,1.916,1.916,0,0,0,3.766.524,8.219,8.219,0,0,0,.649-2.187A1.9,1.9,0,0,0,1181.869,82.836Z" transform="translate(-1177.414 -80.964)"/>
      </g>
      <g id="Grupo_152884" data-name="Grupo 152884">
        <path id="Trazado_199744" data-name="Trazado 199744" d="M1170.657,105.29a1.027,1.027,0,0,1-.953-.649,31.984,31.984,0,0,0-2.21-4.791,26.706,26.706,0,0,1-5.343-.065c-.5.913-.991,1.847-1.5,2.827-.318.609-.646,1.234-.99,1.88a1.026,1.026,0,0,1-1.283.473,18.272,18.272,0,0,1-7.64-5.631,1.026,1.026,0,0,1-.031-1.23c.97-1.366,1.965-2.77,3.024-4.447a26.93,26.93,0,0,1-2.971-5.273l-1.033.218c-1.447.309-2.943.629-4.565.856a1.025,1.025,0,0,1-1.134-.75,19.88,19.88,0,0,1,.762-11.6,1.031,1.031,0,0,1,1.225-.665c1.963.5,3.926,1,5.986,1.5a52.211,52.211,0,0,1,2.862-5.019,38.7,38.7,0,0,1-2.989-4.581,1.027,1.027,0,0,1,.209-1.248,30.77,30.77,0,0,1,8.38-5.294,1.024,1.024,0,0,1,1.309.438,53.639,53.639,0,0,1,2.622,5.369,26.515,26.515,0,0,1,5.841-.2c.909-1.753,1.868-3.561,3.059-5.454a1.029,1.029,0,0,1,1.343-.363,37.353,37.353,0,0,1,6.825,4.591c.563.475,1.112.968,1.66,1.461a2.382,2.382,0,0,1,.826,1.171,1.029,1.029,0,0,1-.142.822c-.474.71-.961,1.412-1.461,2.134-.643.929-1.306,1.885-1.991,2.93.568,1.424,1.146,2.883,1.682,4.353a22.11,22.11,0,0,1,6.286,1.512,1.025,1.025,0,0,1,.632.887,21.274,21.274,0,0,1-1.279,8.908.983.983,0,0,1-1,.665l-.687-.027a41.8,41.8,0,0,0-4.634-.011,20.754,20.754,0,0,1-2.9,4.679,46.208,46.208,0,0,1,2.58,5.155,1.027,1.027,0,0,1-.456,1.293,26.361,26.361,0,0,1-9.806,3.174C1170.732,105.288,1170.694,105.29,1170.657,105.29Zm-2.639-7.567a1.027,1.027,0,0,1,.863.469,28.114,28.114,0,0,1,2.437,4.953,24.2,24.2,0,0,0,7.445-2.4c-.764-1.706-1.616-3.213-2.444-4.677a1.025,1.025,0,0,1,.1-1.157,18.77,18.77,0,0,0,3.254-5.258,1.026,1.026,0,0,1,.862-.659,39.139,39.139,0,0,1,5.458-.05,19.169,19.169,0,0,0,.935-6.719,21.486,21.486,0,0,0-5.73-1.189,1.026,1.026,0,0,1-.881-.679c-.642-1.812-1.37-3.631-2.074-5.391a1.029,1.029,0,0,1,.092-.938c.806-1.247,1.573-2.356,2.317-3.428.348-.5.691-1,1.026-1.491-.511-.46-1.023-.919-1.548-1.362a35.274,35.274,0,0,0-5.607-3.883c-1.053,1.75-1.933,3.449-2.787,5.1a1.041,1.041,0,0,1-1.016.55,24.4,24.4,0,0,0-6.79.255,1.033,1.033,0,0,1-1.132-.628,51.5,51.5,0,0,0-2.37-5.066,28.755,28.755,0,0,0-6.356,4,42.991,42.991,0,0,0,2.849,4.184,1.028,1.028,0,0,1,.048,1.161,49.509,49.509,0,0,0-3.457,6.137,1.024,1.024,0,0,1-1.182.582c-2.038-.5-3.971-.985-5.889-1.471a17.931,17.931,0,0,0-.644,8.618c1.21-.2,2.368-.447,3.5-.688.63-.134,1.254-.268,1.88-.392a1.025,1.025,0,0,1,1.148.616,24.943,24.943,0,0,0,3.454,6.135,1.023,1.023,0,0,1,.072,1.178c-1.065,1.732-2.057,3.161-3.016,4.515a16.222,16.222,0,0,0,5.452,4.048c.185-.352.366-.7.544-1.037.629-1.2,1.224-2.341,1.858-3.468a1.039,1.039,0,0,1,1-.518,24.893,24.893,0,0,0,6.181.059A.933.933,0,0,1,1168.019,97.723ZM1181.99,69.4Z" transform="translate(-1143.478 -61.471)"/>
      </g>
      <g id="Grupo_152885" data-name="Grupo 152885" transform="translate(16.825 14.827)">
        <path id="Trazado_199745" data-name="Trazado 199745" d="M1162.629,85.551a6.4,6.4,0,0,1-2.59-.546,3.745,3.745,0,0,1-1.617-1.25,4.218,4.218,0,0,1-.65-2.129,7.9,7.9,0,0,1,1.451-5.49,5.119,5.119,0,0,1,5.532-1.868,1.031,1.031,0,0,1,.368.221,5.5,5.5,0,0,1,3.539,4.833,5.981,5.981,0,0,1-2.767,5.31A6.141,6.141,0,0,1,1162.629,85.551Zm.729-9.459a3.312,3.312,0,0,0-2.518,1.307,5.878,5.878,0,0,0-1.022,4.071,2.392,2.392,0,0,0,.287,1.111,1.816,1.816,0,0,0,.769.55,4.23,4.23,0,0,0,3.927-.236,3.954,3.954,0,0,0,1.812-3.461,3.446,3.446,0,0,0-2.186-3.015l-.139-.042a1.908,1.908,0,0,1-.546-.254A2.437,2.437,0,0,0,1163.358,76.092Z" transform="translate(-1157.742 -74.041)"/>
      </g>
    </g>
    <g id="Grupo_152893" data-name="Grupo 152893" transform="translate(1143.478 61.619)">
      <g id="Grupo_152887" data-name="Grupo 152887" transform="translate(0.992 1.309)">
        <path id="Trazado_199746" data-name="Trazado 199746" d="M1181.021,79.821l-1.71-5.768,3.6-5.195-8.868-6.278q-1.716,2.859-3.431,5.717a.836.836,0,0,1-.222.272.787.787,0,0,1-.458.087q-2.962-.041-5.925-.112c-.974-1.888-1.919-3.686-2.983-5.4a.464.464,0,0,0-.782-.19q-3.521,2.164-7.043,4.325a.488.488,0,0,0-.164.138c-.1.152-.014.356.074.515a25.565,25.565,0,0,0,3.145,4.469,58.257,58.257,0,0,1-3.4,5.634,2.319,2.319,0,0,1-1.117,1.026,2.251,2.251,0,0,1-1.255-.11q-2.481-.715-4.9-1.622a16.905,16.905,0,0,0-.736,10.61c.132.267,6.261-.628,6.261-.628l3.655,6.477-2.933,4.927,6.72,5,3.491-5.212,6.162.125,2.379,5.5,9.186-3.245-2.223-5.638,3.3-5.471,6.232-.511.194-7.761Zm-10.6,2.936a2.414,2.414,0,0,1-.276,1.058,3.948,3.948,0,0,1-.3.618,5.513,5.513,0,0,1-.847,1.012,6.557,6.557,0,0,1-2.229,1.392,5.669,5.669,0,0,1-1.058.272,3.205,3.205,0,0,1-.918.05c-.2-.021-.4-.085-.591-.086.547,0-.051.007-.265-.054a4.092,4.092,0,0,1-2.33-1.939,4.2,4.2,0,0,1-.552-1.73,3.96,3.96,0,0,1,.328-1.62,11.49,11.49,0,0,1,1.076-2.088,5.513,5.513,0,0,1,1.9-1.879,2.937,2.937,0,0,1,2.425-.17,1.3,1.3,0,0,1,.994-.08,3.277,3.277,0,0,1,1.459.987,5.327,5.327,0,0,1,.878,1.529,3.932,3.932,0,0,1,.175.553c.026.11.046.221.064.331q.036.26.068.52l-.008-.117c-.018-.151-.013-.157.011-.018q.039.264.071.527a2.561,2.561,0,0,1,.011.267A2.791,2.791,0,0,1,1170.425,82.757Z" transform="translate(-1144.319 -62.581)" fill="#fff"/>
      </g>
      <g id="Grupo_152888" data-name="Grupo 152888" transform="translate(16.608 21.847)" opacity="0.129">
        <path id="Trazado_199747" data-name="Trazado 199747" d="M1169.277,80.772a.892.892,0,0,0-1.746-.121c-.29.911-.175.753-1.137,1.694-.925.756-.589.531-2.031,1.069a3.434,3.434,0,0,1-1.938.323,3.519,3.519,0,0,1-.464-.119,6.24,6.24,0,0,1-1.437-.7c-.437-.226-.827-.632-1.333-.665a1.494,1.494,0,0,0-.928,2.757c2.405,1.682,4.823,2.44,7.57,1.052a6.507,6.507,0,0,0,2.965-3.684A3.493,3.493,0,0,0,1169.277,80.772Z" transform="translate(-1157.557 -79.992)"/>
      </g>
      <g id="Grupo_152889" data-name="Grupo 152889" transform="translate(27.291 37.762)" opacity="0.129">
        <path id="Trazado_199748" data-name="Trazado 199748" d="M1172.653,93.689a11.96,11.96,0,0,1-2.922.865c-.8.258-1.785.126-2.472.659a1.68,1.68,0,0,0,1.432,2.948c2.015-.427,4.331-.514,5.9-2.032A1.572,1.572,0,0,0,1172.653,93.689Z" transform="translate(-1166.615 -93.485)"/>
      </g>
      <g id="Grupo_152890" data-name="Grupo 152890" transform="translate(40.029 22.993)" opacity="0.129">
        <path id="Trazado_199749" data-name="Trazado 199749" d="M1181.869,82.836c0-.017,0-.033.006-.051l-.006.048a1.889,1.889,0,0,0-.238-.98,1.8,1.8,0,0,0-3.225.259c-.03.064-.065.137-.107.226a8.761,8.761,0,0,0-.329.835c-.091.211-.218.5-.294.669a1.994,1.994,0,0,0-.262.992,1.916,1.916,0,0,0,3.766.524,8.219,8.219,0,0,0,.649-2.187A1.9,1.9,0,0,0,1181.869,82.836Z" transform="translate(-1177.414 -80.964)"/>
      </g>
      <g id="Grupo_152891" data-name="Grupo 152891">
        <path id="Trazado_199750" data-name="Trazado 199750" d="M1170.657,105.29a1.027,1.027,0,0,1-.953-.649,31.984,31.984,0,0,0-2.21-4.791,26.706,26.706,0,0,1-5.343-.065c-.5.913-.991,1.847-1.5,2.827-.318.609-.646,1.234-.99,1.88a1.026,1.026,0,0,1-1.283.473,18.272,18.272,0,0,1-7.64-5.631,1.026,1.026,0,0,1-.031-1.23c.97-1.366,1.965-2.77,3.024-4.447a26.93,26.93,0,0,1-2.971-5.273l-1.033.218c-1.447.309-2.943.629-4.565.856a1.025,1.025,0,0,1-1.134-.75,19.88,19.88,0,0,1,.762-11.6,1.031,1.031,0,0,1,1.225-.665c1.963.5,3.926,1,5.986,1.5a52.211,52.211,0,0,1,2.862-5.019,38.7,38.7,0,0,1-2.989-4.581,1.027,1.027,0,0,1,.209-1.248,30.77,30.77,0,0,1,8.38-5.294,1.024,1.024,0,0,1,1.309.438,53.639,53.639,0,0,1,2.622,5.369,26.515,26.515,0,0,1,5.841-.2c.909-1.753,1.868-3.561,3.059-5.454a1.029,1.029,0,0,1,1.343-.363,37.353,37.353,0,0,1,6.825,4.591c.563.475,1.112.968,1.66,1.461a2.382,2.382,0,0,1,.826,1.171,1.029,1.029,0,0,1-.142.822c-.474.71-.961,1.412-1.461,2.134-.643.929-1.306,1.885-1.991,2.93.568,1.424,1.146,2.883,1.682,4.353a22.11,22.11,0,0,1,6.286,1.512,1.025,1.025,0,0,1,.632.887,21.274,21.274,0,0,1-1.279,8.908.983.983,0,0,1-1,.665l-.687-.027a41.8,41.8,0,0,0-4.634-.011,20.754,20.754,0,0,1-2.9,4.679,46.208,46.208,0,0,1,2.58,5.155,1.027,1.027,0,0,1-.456,1.293,26.361,26.361,0,0,1-9.806,3.174C1170.732,105.288,1170.694,105.29,1170.657,105.29Zm-2.639-7.567a1.027,1.027,0,0,1,.863.469,28.114,28.114,0,0,1,2.437,4.953,24.2,24.2,0,0,0,7.445-2.4c-.764-1.706-1.616-3.213-2.444-4.677a1.025,1.025,0,0,1,.1-1.157,18.77,18.77,0,0,0,3.254-5.258,1.026,1.026,0,0,1,.862-.659,39.139,39.139,0,0,1,5.458-.05,19.169,19.169,0,0,0,.935-6.719,21.486,21.486,0,0,0-5.73-1.189,1.026,1.026,0,0,1-.881-.679c-.642-1.812-1.37-3.631-2.074-5.391a1.029,1.029,0,0,1,.092-.938c.806-1.247,1.573-2.356,2.317-3.428.348-.5.691-1,1.026-1.491-.511-.46-1.023-.919-1.548-1.362a35.274,35.274,0,0,0-5.607-3.883c-1.053,1.75-1.933,3.449-2.787,5.1a1.041,1.041,0,0,1-1.016.55,24.4,24.4,0,0,0-6.79.255,1.033,1.033,0,0,1-1.132-.628,51.5,51.5,0,0,0-2.37-5.066,28.755,28.755,0,0,0-6.356,4,42.991,42.991,0,0,0,2.849,4.184,1.028,1.028,0,0,1,.048,1.161,49.509,49.509,0,0,0-3.457,6.137,1.024,1.024,0,0,1-1.182.582c-2.038-.5-3.971-.985-5.889-1.471a17.931,17.931,0,0,0-.644,8.618c1.21-.2,2.368-.447,3.5-.688.63-.134,1.254-.268,1.88-.392a1.025,1.025,0,0,1,1.148.616,24.943,24.943,0,0,0,3.454,6.135,1.023,1.023,0,0,1,.072,1.178c-1.065,1.732-2.057,3.161-3.016,4.515a16.222,16.222,0,0,0,5.452,4.048c.185-.352.366-.7.544-1.037.629-1.2,1.224-2.341,1.858-3.468a1.039,1.039,0,0,1,1-.518,24.893,24.893,0,0,0,6.181.059A.933.933,0,0,1,1168.019,97.723ZM1181.99,69.4Z" transform="translate(-1143.478 -61.471)"/>
      </g>
      <g id="Grupo_152892" data-name="Grupo 152892" transform="translate(16.825 14.827)">
        <path id="Trazado_199751" data-name="Trazado 199751" d="M1162.629,85.551a6.4,6.4,0,0,1-2.59-.546,3.745,3.745,0,0,1-1.617-1.25,4.218,4.218,0,0,1-.65-2.129,7.9,7.9,0,0,1,1.451-5.49,5.119,5.119,0,0,1,5.532-1.868,1.031,1.031,0,0,1,.368.221,5.5,5.5,0,0,1,3.539,4.833,5.981,5.981,0,0,1-2.767,5.31A6.141,6.141,0,0,1,1162.629,85.551Zm.729-9.459a3.312,3.312,0,0,0-2.518,1.307,5.878,5.878,0,0,0-1.022,4.071,2.392,2.392,0,0,0,.287,1.111,1.816,1.816,0,0,0,.769.55,4.23,4.23,0,0,0,3.927-.236,3.954,3.954,0,0,0,1.812-3.461,3.446,3.446,0,0,0-2.186-3.015l-.139-.042a1.908,1.908,0,0,1-.546-.254A2.437,2.437,0,0,0,1163.358,76.092Z" transform="translate(-1157.742 -74.041)"/>
      </g>
    </g>
    <g id="Grupo_152894" data-name="Grupo 152894" transform="translate(1192.28 109.451)" opacity="0.129">
      <path id="Trazado_199752" data-name="Trazado 199752" d="M1198.083,126.551a33.834,33.834,0,0,1-5.329-8.2c-1.6-3.438-2.411-4.728-3.092-8.939a21.26,21.26,0,0,1-.392-3.921,2.9,2.9,0,0,0-.538-2.812,2.29,2.29,0,0,0-3.875,1.762,2.032,2.032,0,0,0,.053.558c.016.131.033.263.051.394-.012-.048-.018-.014-.006.212a34.9,34.9,0,0,0,.41,4.312,29.642,29.642,0,0,0,2.967,9.487,39.707,39.707,0,0,0,6.509,10.387A2.292,2.292,0,0,0,1198.083,126.551Z" transform="translate(-1184.852 -102.022)"/>
    </g>
    <g id="Grupo_152895" data-name="Grupo 152895" transform="translate(1223.537 148.376)" opacity="0.129">
      <path id="Trazado_199753" data-name="Trazado 199753" d="M1233.882,137.014c-3.128.83-4.369.745-8.214.546-4.309-.4-6.534-.387-10.866-2.155l-.166-.079a2.17,2.17,0,0,0-3.081,2.712c.462,1.28,2.045,1.424,3.138,1.931,4.87,1.683,10.145,1.707,15.24,2.025a24.337,24.337,0,0,0,3.729-.435,4.887,4.887,0,0,0,2.137-.7A2.194,2.194,0,0,0,1233.882,137.014Z" transform="translate(-1211.351 -135.023)"/>
    </g>
  </g>
</svg>
