<svg xmlns="http://www.w3.org/2000/svg" width="52.431" height="60.132" viewBox="0 0 52.431 60.132">
  <g id="Grupo_153017" data-name="Grupo 153017" transform="translate(-1143.478 -61.471)">
    <g id="Grupo_153009" data-name="Grupo 153009" transform="translate(1152.581 80.983)">
      <g id="Grupo_153008" data-name="Grupo 153008" transform="translate(0 0)">
        <path id="Trazado_199831" data-name="Trazado 199831" d="M1197.93,116.48a7.278,7.278,0,0,1,2.859-7.327,60.1,60.1,0,0,0-6.455-7.536,7.552,7.552,0,0,1-9.664,1.786c-2.251-1.135-3.918-3.928-3.685-4.754a82.612,82.612,0,0,0-8.96,2.85,7.383,7.383,0,0,1-.981,7.887c-1.7,2-5.729,1.913-7.334,1.349a41.163,41.163,0,0,0-2.424,8.48,14.1,14.1,0,0,1,3.921,1.187,4.491,4.491,0,0,1,2.535,2.4,4.005,4.005,0,0,1,.042,1.957,8.611,8.611,0,0,1-3.006,5.056,30.646,30.646,0,0,0,5.813,5.532,6.827,6.827,0,0,1,3.5-2.416,6.04,6.04,0,0,1,2.669-.534,4.479,4.479,0,0,1,2.535,1.254,6.983,6.983,0,0,1,2.225,4.685,50.36,50.36,0,0,0,8.716-1.02,20.063,20.063,0,0,1,.862-4.73,5.448,5.448,0,0,1,3.152-3.309c1.92-.65,4,.155,5.867.948a35.3,35.3,0,0,0,3.561-8.06A7.868,7.868,0,0,1,1197.93,116.48Zm-12.687,7.884a6.456,6.456,0,0,1-7-2.181,4.832,4.832,0,0,1-.933-2.071,5.555,5.555,0,0,1,.154-2.268,7.571,7.571,0,0,1,3.073-4.537,5.529,5.529,0,0,1,5.388-.426,6.613,6.613,0,0,1,3.471,5.542A6.188,6.188,0,0,1,1185.244,124.364Z" transform="translate(-1160.82 -98.182)" fill="#feca2e"/>
        <path id="Trazado_199832" data-name="Trazado 199832" d="M1181.121,138.4a.467.467,0,0,1-.466-.441,6.5,6.5,0,0,0-2.075-4.368,4.078,4.078,0,0,0-2.263-1.133,5.619,5.619,0,0,0-2.459.506,6.392,6.392,0,0,0-3.276,2.237.467.467,0,0,1-.671.115,31.032,31.032,0,0,1-5.9-5.617.468.468,0,0,1,.073-.65,8.18,8.18,0,0,0,2.841-4.778,3.479,3.479,0,0,0-.027-1.728,3.991,3.991,0,0,0-2.29-2.121,13.627,13.627,0,0,0-3.791-1.147.467.467,0,0,1-.39-.541,41.836,41.836,0,0,1,2.45-8.576.468.468,0,0,1,.589-.267c1.513.531,5.292.586,6.823-1.211a7.007,7.007,0,0,0,.908-7.4.468.468,0,0,1,.228-.611A51.293,51.293,0,0,1,1178,98.511c.806-.231,1.63-.468,2.453-.712a.467.467,0,0,1,.583.575c-.141.5,1.307,3.13,3.446,4.21a7.065,7.065,0,0,0,9.094-1.668.469.469,0,0,1,.338-.168.475.475,0,0,1,.353.136,60.1,60.1,0,0,1,6.5,7.594.468.468,0,0,1-.11.653,6.813,6.813,0,0,0-2.672,6.846,7.4,7.4,0,0,0,5.409,5.331.468.468,0,0,1,.332.588,35.9,35.9,0,0,1-3.609,8.168.466.466,0,0,1-.583.188c-1.937-.824-3.818-1.516-5.533-.935a4.993,4.993,0,0,0-2.865,3.033,15.281,15.281,0,0,0-.735,3.756c-.032.285-.065.573-.1.864a.468.468,0,0,1-.371.4,50.562,50.562,0,0,1-8.8,1.029Zm-5.085-6.889c.123,0,.246.005.369.017a4.913,4.913,0,0,1,2.807,1.376,7.456,7.456,0,0,1,2.335,4.548,49.652,49.652,0,0,0,7.865-.932c.021-.174.04-.347.06-.519a15.972,15.972,0,0,1,.79-3.985,5.854,5.854,0,0,1,3.439-3.585c1.9-.643,3.909.008,5.824.8a35.005,35.005,0,0,0,3.166-7.154,8.322,8.322,0,0,1-5.619-5.9,7.785,7.785,0,0,1,2.669-7.524,59.091,59.091,0,0,0-5.791-6.759,8.025,8.025,0,0,1-9.892,1.523,8.29,8.29,0,0,1-3.908-4.556c-.636.186-1.271.369-1.895.548a60.915,60.915,0,0,0-6.03,1.93,7.816,7.816,0,0,1-1.228,7.947c-1.718,2.017-5.433,2.122-7.413,1.617a40.889,40.889,0,0,0-2.157,7.527,14.442,14.442,0,0,1,3.579,1.147,4.791,4.791,0,0,1,2.779,2.677,4.365,4.365,0,0,1,.057,2.187,9.133,9.133,0,0,1-2.819,5.03,30.164,30.164,0,0,0,5.072,4.812,7.69,7.69,0,0,1,3.43-2.194A7.217,7.217,0,0,1,1176.036,131.511Zm6.909-6.779a6.914,6.914,0,0,1-5.479-2.67,5.33,5.33,0,0,1-1.019-2.273,5.955,5.955,0,0,1,.161-2.46,8.068,8.068,0,0,1,3.272-4.814,5.978,5.978,0,0,1,5.855-.451,7.06,7.06,0,0,1,3.726,5.938,6.688,6.688,0,0,1-4.472,6.4A6.469,6.469,0,0,1,1182.945,124.732Zm.337-12.3a5.347,5.347,0,0,0-2.893.868,7.125,7.125,0,0,0-2.874,4.258,5.059,5.059,0,0,0-.146,2.077,4.385,4.385,0,0,0,.846,1.868,6.025,6.025,0,0,0,6.479,2.017h0a5.722,5.722,0,0,0,3.833-5.476,6.11,6.11,0,0,0-3.216-5.145A4.469,4.469,0,0,0,1183.282,112.429Z" transform="translate(-1160.417 -97.78)"/>
      </g>
    </g>
    <g id="Grupo_153016" data-name="Grupo 153016" transform="translate(1143.478 61.471)">
      <g id="Grupo_153010" data-name="Grupo 153010" transform="translate(0.452 0.597)">
        <path id="Trazado_199833" data-name="Trazado 199833" d="M1161.04,70.435l-.779-2.628,1.64-2.367-4.04-2.86-1.563,2.6a.381.381,0,0,1-.1.124.358.358,0,0,1-.208.04q-1.349-.019-2.7-.051c-.444-.86-.874-1.679-1.359-2.462a.211.211,0,0,0-.356-.087l-3.209,1.971a.222.222,0,0,0-.075.063c-.046.069-.006.162.034.235a11.652,11.652,0,0,0,1.433,2.036,26.543,26.543,0,0,1-1.548,2.567,1.056,1.056,0,0,1-.509.468,1.025,1.025,0,0,1-.572-.05q-1.13-.326-2.233-.739a7.7,7.7,0,0,0-.335,4.834,21.616,21.616,0,0,0,2.853-.286l1.665,2.951-1.336,2.245,3.062,2.28,1.591-2.375L1155.2,79l1.084,2.506,4.185-1.478-1.013-2.569,1.5-2.492,2.839-.233.089-3.536Zm-4.827,1.338a1.1,1.1,0,0,1-.126.482,1.811,1.811,0,0,1-.138.282,2.509,2.509,0,0,1-.386.461,2.987,2.987,0,0,1-1.016.634,2.586,2.586,0,0,1-.482.124,1.461,1.461,0,0,1-.418.023c-.089-.01-.181-.039-.269-.039.249,0-.023,0-.121-.025a1.864,1.864,0,0,1-1.061-.883,1.914,1.914,0,0,1-.251-.788,1.806,1.806,0,0,1,.149-.738,5.234,5.234,0,0,1,.49-.951,2.511,2.511,0,0,1,.864-.856,1.338,1.338,0,0,1,1.1-.077.591.591,0,0,1,.453-.037,1.493,1.493,0,0,1,.665.45,2.424,2.424,0,0,1,.4.7,1.786,1.786,0,0,1,.08.252c.012.05.021.1.029.151q.016.118.031.237l0-.053c-.008-.069-.006-.071,0-.008q.018.12.032.24a1.188,1.188,0,0,1,0,.121A1.279,1.279,0,0,1,1156.212,71.773Z" transform="translate(-1144.319 -62.581)" fill="#fff"/>
      </g>
      <g id="Grupo_153011" data-name="Grupo 153011" transform="translate(7.566 9.953)" opacity="0.129">
        <path id="Trazado_199834" data-name="Trazado 199834" d="M1162.9,80.347a.406.406,0,0,0-.8-.055c-.132.415-.079.343-.518.772-.421.344-.268.242-.925.487a1.564,1.564,0,0,1-.883.147,1.6,1.6,0,0,1-.211-.054,2.844,2.844,0,0,1-.655-.319c-.2-.1-.377-.288-.607-.3a.681.681,0,0,0-.423,1.256,3.136,3.136,0,0,0,3.449.479,2.965,2.965,0,0,0,1.351-1.678A1.593,1.593,0,0,0,1162.9,80.347Z" transform="translate(-1157.557 -79.992)"/>
      </g>
      <g id="Grupo_153012" data-name="Grupo 153012" transform="translate(12.433 17.204)" opacity="0.129">
        <path id="Trazado_199835" data-name="Trazado 199835" d="M1169.366,93.578a5.45,5.45,0,0,1-1.331.394c-.366.118-.813.058-1.126.3a.766.766,0,0,0,.652,1.343,5.125,5.125,0,0,0,2.688-.926A.716.716,0,0,0,1169.366,93.578Z" transform="translate(-1166.615 -93.485)"/>
      </g>
      <g id="Grupo_153013" data-name="Grupo 153013" transform="translate(18.237 10.475)" opacity="0.129">
        <path id="Trazado_199836" data-name="Trazado 199836" d="M1179.444,81.817c0-.008,0-.015,0-.023l0,.022a.861.861,0,0,0-.109-.447.819.819,0,0,0-1.469.118l-.049.1a4.015,4.015,0,0,0-.15.38c-.041.1-.1.23-.134.3a.909.909,0,0,0-.119.452.873.873,0,0,0,1.716.239,3.742,3.742,0,0,0,.3-1A.862.862,0,0,0,1179.444,81.817Z" transform="translate(-1177.414 -80.964)"/>
      </g>
      <g id="Grupo_153014" data-name="Grupo 153014">
        <path id="Trazado_199837" data-name="Trazado 199837" d="M1155.86,81.434a.467.467,0,0,1-.434-.3,14.59,14.59,0,0,0-1.007-2.183,12.167,12.167,0,0,1-2.434-.03c-.229.416-.451.842-.685,1.288-.145.277-.295.562-.451.857a.468.468,0,0,1-.585.215,8.325,8.325,0,0,1-3.481-2.565.468.468,0,0,1-.014-.56c.442-.622.9-1.262,1.378-2.026a12.27,12.27,0,0,1-1.354-2.4l-.471.1c-.659.141-1.341.286-2.08.39a.467.467,0,0,1-.516-.342,9.057,9.057,0,0,1,.347-5.287.47.47,0,0,1,.558-.3c.894.227,1.788.454,2.727.685a23.768,23.768,0,0,1,1.3-2.287A17.627,17.627,0,0,1,1147.3,64.6a.468.468,0,0,1,.1-.569,14.019,14.019,0,0,1,3.818-2.412.466.466,0,0,1,.6.2,24.454,24.454,0,0,1,1.195,2.446,12.079,12.079,0,0,1,2.661-.093c.414-.8.851-1.622,1.393-2.485a.469.469,0,0,1,.612-.166,17.013,17.013,0,0,1,3.109,2.091c.256.217.507.441.756.666a1.085,1.085,0,0,1,.376.534.469.469,0,0,1-.064.375c-.216.324-.438.643-.666.972-.293.423-.595.859-.907,1.335.259.649.522,1.313.766,1.983a10.073,10.073,0,0,1,2.864.689.467.467,0,0,1,.288.4,9.688,9.688,0,0,1-.583,4.058.448.448,0,0,1-.456.3l-.313-.012a19.043,19.043,0,0,0-2.111,0,9.456,9.456,0,0,1-1.322,2.132,21.046,21.046,0,0,1,1.175,2.348.468.468,0,0,1-.208.589,12.009,12.009,0,0,1-4.467,1.446Zm-1.2-3.447a.468.468,0,0,1,.393.214,12.805,12.805,0,0,1,1.11,2.256,11.027,11.027,0,0,0,3.392-1.1c-.348-.777-.736-1.464-1.113-2.131a.467.467,0,0,1,.046-.527,8.547,8.547,0,0,0,1.483-2.4.468.468,0,0,1,.393-.3,17.83,17.83,0,0,1,2.487-.023,8.732,8.732,0,0,0,.426-3.061,9.788,9.788,0,0,0-2.611-.542.467.467,0,0,1-.4-.31c-.292-.825-.624-1.654-.945-2.456a.469.469,0,0,1,.042-.427c.367-.568.717-1.073,1.055-1.562.158-.229.315-.454.468-.679-.233-.21-.466-.419-.705-.621a16.079,16.079,0,0,0-2.555-1.769c-.48.8-.881,1.571-1.27,2.323a.474.474,0,0,1-.463.25,11.113,11.113,0,0,0-3.093.116.471.471,0,0,1-.516-.286,23.476,23.476,0,0,0-1.08-2.308,13.1,13.1,0,0,0-2.9,1.824,19.57,19.57,0,0,0,1.3,1.906.469.469,0,0,1,.022.529,22.546,22.546,0,0,0-1.575,2.8.466.466,0,0,1-.538.265c-.929-.226-1.809-.449-2.683-.67a8.17,8.17,0,0,0-.293,3.926c.551-.091,1.079-.2,1.593-.313.287-.061.571-.122.857-.178a.467.467,0,0,1,.523.281,11.366,11.366,0,0,0,1.573,2.795.466.466,0,0,1,.033.537c-.485.789-.937,1.44-1.374,2.057a7.39,7.39,0,0,0,2.484,1.844l.248-.472c.286-.549.558-1.067.846-1.58a.473.473,0,0,1,.456-.236,11.341,11.341,0,0,0,2.816.027A.422.422,0,0,1,1154.658,77.987Zm6.365-12.9Z" transform="translate(-1143.478 -61.471)"/>
      </g>
      <g id="Grupo_153015" data-name="Grupo 153015" transform="translate(7.665 6.755)">
        <path id="Trazado_199838" data-name="Trazado 199838" d="M1159.969,79.285a2.914,2.914,0,0,1-1.18-.249,1.707,1.707,0,0,1-.737-.57,1.923,1.923,0,0,1-.3-.97,3.6,3.6,0,0,1,.661-2.5,2.332,2.332,0,0,1,2.52-.851.47.47,0,0,1,.168.1,2.5,2.5,0,0,1,1.612,2.2,2.724,2.724,0,0,1-1.261,2.419A2.8,2.8,0,0,1,1159.969,79.285Zm.332-4.309a1.509,1.509,0,0,0-1.147.6,2.677,2.677,0,0,0-.465,1.855,1.089,1.089,0,0,0,.13.506.828.828,0,0,0,.35.25,1.927,1.927,0,0,0,1.789-.107,1.8,1.8,0,0,0,.825-1.577,1.57,1.57,0,0,0-1-1.374l-.063-.019a.869.869,0,0,1-.249-.116A1.111,1.111,0,0,0,1160.3,74.976Z" transform="translate(-1157.742 -74.041)"/>
      </g>
    </g>
  </g>
</svg>
